<?xml version="1.0" standalone="no"?>
<!DOCTYPE svg PUBLIC "-//W3C//DTD SVG 20010904//EN"
 "http://www.w3.org/TR/2001/REC-SVG-20010904/DTD/svg10.dtd">
<svg version="1.0" xmlns="http://www.w3.org/2000/svg"
 width="584.000000pt" height="740.000000pt" viewBox="0 0 584.000000 740.000000"
 preserveAspectRatio="xMidYMid meet">

<g transform="translate(0.000000,740.000000) scale(0.100000,-0.100000)"
fill="#000000" stroke="none">
<path d="M2903 7248 c-11 -13 -49 -72 -83 -133 -35 -60 -72 -123 -83 -138 -38
-54 -52 -54 -256 14 -215 71 -300 83 -377 54 -25 -9 -42 -21 -37 -26 4 -4 52
-19 105 -33 152 -39 230 -87 288 -174 23 -34 30 -56 28 -82 l-3 -35 -65 -3
c-35 -2 -127 6 -205 17 -312 45 -772 55 -840 19 l-29 -16 39 -11 c22 -5 78
-15 125 -21 98 -14 229 -53 258 -78 11 -9 23 -27 27 -39 9 -33 -26 -50 -130
-63 -89 -11 -244 -37 -277 -46 -10 -3 -18 -9 -18 -13 0 -5 75 -30 168 -56 92
-26 171 -51 177 -56 22 -21 -18 -25 -140 -13 -197 19 -241 18 -304 -11 -29
-14 -67 -37 -85 -51 -30 -26 -99 -114 -93 -121 2 -1 49 6 106 17 133 26 185
26 211 0 24 -24 25 -41 6 -79 -35 -67 -70 -72 -320 -46 -186 19 -618 38 -670
29 -23 -3 -53 -12 -67 -20 -40 -20 -99 -91 -99 -118 l0 -25 52 15 c28 9 62 20
75 25 13 5 52 13 87 19 78 12 132 3 327 -56 202 -62 326 -84 464 -84 140 0
202 12 262 53 66 44 95 105 101 208 3 43 6 79 9 79 2 0 31 -14 64 -30 82 -42
172 -64 232 -57 59 8 152 49 190 85 77 73 76 134 -2 330 l-21 53 57 -6 c178
-20 383 -85 575 -181 l107 -54 5 43 c3 23 7 83 10 133 6 92 34 203 61 239 15
19 15 19 36 -1 16 -17 26 -58 49 -199 16 -97 31 -179 33 -181 2 -2 53 19 113
46 61 27 164 65 230 85 114 35 359 83 370 73 2 -3 -11 -31 -31 -63 -19 -32
-38 -74 -41 -92 -21 -113 48 -247 151 -294 60 -27 128 -23 261 15 65 19 119
34 120 33 1 -1 -3 -30 -9 -64 -26 -152 52 -225 269 -254 152 -20 249 -3 724
126 142 39 227 33 344 -24 63 -31 91 -40 99 -32 17 17 -80 121 -149 158 -116
62 -219 66 -537 19 -277 -41 -327 -43 -427 -11 -47 15 -92 34 -102 42 -26 23
-29 52 -6 75 20 20 28 20 142 15 67 -4 144 -10 171 -13 l50 -7 -26 34 c-74 97
-158 120 -447 124 -112 1 -205 5 -208 8 -7 6 5 10 216 62 221 55 220 55 220
70 0 8 -6 15 -14 15 -46 0 -463 63 -471 71 -7 7 1 20 22 39 34 30 140 68 323
114 52 13 96 28 98 34 6 18 -33 23 -213 29 -198 6 -369 -4 -675 -42 -107 -14
-201 -25 -207 -25 -9 0 -13 16 -13 48 0 46 16 81 50 110 18 16 229 118 313
152 61 25 73 46 32 55 -14 3 -36 7 -50 10 -33 7 -65 -1 -332 -87 -191 -61
-226 -70 -247 -60 -19 8 -45 50 -97 154 -72 144 -104 198 -118 198 -4 0 -17
-10 -28 -22z"/>
<path d="M593 5860 c-55 -33 -67 -60 -57 -138 16 -129 -1 -174 -107 -288 -88
-93 -123 -143 -173 -241 -71 -143 -127 -373 -129 -534 -1 -99 18 -134 90 -169
37 -18 50 -29 46 -40 -3 -8 -8 -38 -10 -66 -5 -47 -3 -52 29 -80 18 -16 44
-36 57 -45 28 -18 29 -37 11 -238 -13 -135 -6 -336 24 -766 8 -112 10 -190 4
-206 -6 -18 -28 -37 -68 -58 -99 -53 -135 -119 -109 -199 64 -198 333 -187
485 20 59 81 94 156 148 324 26 77 60 162 77 188 63 95 166 127 342 107 60 -6
112 -9 115 -6 12 12 -97 108 -157 138 -56 27 -77 32 -161 35 -116 5 -195 -14
-351 -83 -56 -25 -105 -45 -109 -45 -4 0 -10 31 -14 68 -5 52 4 151 39 427 48
378 60 442 102 515 57 99 101 137 366 322 86 61 157 114 157 118 0 13 -83 49
-135 59 -51 10 -108 4 -210 -22 -61 -16 -103 -21 -142 -19 -13 1 -48 28 -81
60 -59 60 -100 78 -148 66 -13 -3 -24 -4 -24 -1 0 17 61 150 79 174 13 15 79
88 148 161 146 154 200 192 280 192 53 0 103 16 103 32 0 28 -32 65 -67 77
-39 14 -85 40 -232 130 -72 44 -91 51 -135 51 -33 0 -62 -7 -83 -20z"/>
<path d="M5093 5866 c-18 -8 -51 -32 -75 -54 -45 -41 -97 -71 -161 -92 -35
-11 -107 -73 -107 -91 0 -11 125 -49 161 -49 37 0 79 -38 251 -225 92 -100
137 -158 158 -203 17 -34 30 -64 30 -66 0 -2 -27 -14 -61 -26 -43 -17 -69 -34
-92 -63 -58 -72 -99 -81 -207 -46 -48 16 -93 22 -170 23 -95 1 -111 -2 -164
-27 l-59 -27 48 -31 c72 -45 308 -224 387 -291 38 -33 81 -82 98 -111 44 -77
105 -353 130 -592 15 -139 18 -381 5 -394 -7 -7 -54 2 -147 29 -278 80 -366
86 -472 34 -62 -30 -176 -127 -164 -139 4 -5 45 -3 90 3 125 18 205 15 258 -9
91 -41 123 -88 189 -281 87 -255 147 -357 253 -427 181 -122 388 -44 388 145
0 47 -4 57 -33 86 -18 18 -51 39 -72 47 -76 26 -85 35 -85 97 0 30 10 155 21
277 26 267 29 520 10 719 -14 140 -13 149 4 168 10 11 26 20 35 20 36 0 50 32
50 118 l0 81 43 19 c70 32 81 52 86 149 7 172 -34 372 -108 528 -47 98 -114
192 -220 308 -89 98 -102 131 -83 204 24 89 10 153 -40 179 -42 22 -137 27
-175 10z"/>
<path d="M2756 5822 c-25 -15 -33 -31 -57 -123 -19 -73 -38 -121 -61 -153 -29
-42 -33 -55 -33 -114 0 -87 22 -129 100 -187 78 -59 149 -85 229 -85 53 0 75
6 134 36 39 19 96 58 126 87 90 86 97 172 20 256 -47 53 -65 102 -72 194 -3
48 -10 84 -19 93 -20 19 -87 18 -104 -2 -8 -10 -16 -66 -21 -162 -7 -122 -12
-154 -33 -199 -13 -29 -29 -53 -35 -53 -28 0 -52 92 -62 233 -7 109 -13 148
-27 167 -23 32 -48 35 -85 12z"/>
<path d="M1995 5539 c-39 -35 -158 -218 -233 -360 -61 -114 -78 -188 -62 -261
25 -118 102 -189 329 -301 213 -106 215 -108 208 -262 -3 -72 -10 -121 -20
-140 -8 -17 -74 -85 -146 -153 -113 -107 -135 -133 -168 -199 -32 -65 -37 -86
-41 -161 -7 -152 57 -349 166 -508 59 -88 185 -228 245 -274 96 -72 243 -89
352 -41 135 60 251 295 231 468 -9 74 -22 102 -103 218 -38 55 -113 165 -166
243 -106 158 -111 172 -83 268 31 104 194 721 200 757 6 34 5 37 -16 37 -13 0
-105 -28 -204 -62 -170 -58 -184 -61 -221 -50 -118 35 -210 204 -229 423 l-7
81 34 -7 c19 -3 148 -72 288 -151 140 -80 266 -147 280 -150 36 -7 71 27 71
69 0 53 -38 99 -183 221 -183 154 -326 269 -372 300 -54 37 -104 35 -150 -5z"/>
<path d="M3704 5544 c-76 -52 -478 -384 -517 -428 -25 -27 -28 -36 -23 -75 8
-57 20 -71 64 -71 27 0 59 15 124 55 100 64 417 235 435 235 55 0 32 -204 -39
-345 -36 -69 -78 -124 -108 -140 -47 -24 -99 -18 -271 35 -172 52 -216 59
-225 36 -3 -8 44 -193 105 -413 61 -219 111 -408 111 -419 0 -45 -29 -98 -182
-329 -179 -271 -194 -305 -184 -421 14 -170 101 -309 239 -381 45 -24 63 -28
142 -28 81 0 95 3 144 30 70 38 220 189 289 288 136 197 206 414 181 567 -19
122 -72 199 -246 364 -111 105 -143 161 -143 250 0 114 54 181 199 249 150 69
293 174 327 238 30 59 36 122 19 195 -32 137 -157 361 -268 478 -47 50 -57 56
-93 56 -28 0 -54 -9 -80 -26z"/>
<path d="M3010 4811 c0 -6 14 -101 30 -211 17 -110 30 -209 30 -220 0 -19 -7
-20 -140 -20 -127 0 -140 2 -140 18 0 9 16 107 35 217 19 110 35 202 35 205
-1 13 -116 -177 -164 -270 -65 -126 -101 -237 -92 -284 9 -48 47 -78 109 -87
67 -10 344 -10 421 0 75 9 116 49 116 111 0 36 -64 195 -188 471 -28 62 -52
94 -52 70z"/>
<path d="M149 4107 c-42 -28 -63 -84 -55 -150 9 -83 57 -237 73 -237 12 0 14
7 7 38 -5 20 -9 63 -9 95 0 57 1 59 53 107 45 43 52 55 52 87 0 44 -6 56 -37
72 -31 16 -46 14 -84 -12z"/>
<path d="M5617 4114 c-26 -14 -28 -19 -22 -57 10 -56 21 -77 59 -109 28 -24
31 -32 31 -80 0 -29 -4 -74 -8 -100 -5 -29 -4 -48 1 -48 5 0 24 28 43 63 28
53 34 74 37 148 5 92 -7 146 -37 173 -26 24 -72 28 -104 10z"/>
<path d="M2610 4082 c-16 -16 -32 -45 -35 -65 -7 -34 0 -48 91 -189 174 -272
256 -390 264 -382 4 5 67 97 141 204 276 404 282 437 71 451 -59 4 -196 8
-305 8 l-199 1 -28 -28z"/>
<path d="M1047 3275 c-146 -54 -209 -170 -252 -465 -13 -89 -24 -109 -73 -135
-67 -34 -105 -62 -95 -68 4 -3 35 -10 67 -16 33 -6 61 -13 63 -15 3 -2 -43
-41 -101 -86 -199 -153 -269 -239 -270 -330 0 -103 106 -198 223 -200 l34 0
-20 23 c-21 22 -66 143 -78 207 -9 51 9 88 50 105 78 33 140 13 158 -53 21
-77 91 -114 145 -76 33 23 27 48 -28 106 -28 29 -53 61 -56 70 -11 35 73 167
96 153 20 -12 70 -126 86 -192 10 -42 19 -155 24 -293 5 -124 9 -226 10 -227
2 -14 27 10 79 77 34 44 66 80 71 80 15 0 177 -198 246 -301 35 -52 79 -129
98 -170 36 -77 76 -214 76 -258 0 -29 16 -59 25 -49 8 8 21 104 41 312 22 230
47 290 161 378 76 58 114 58 202 0 85 -55 111 -55 167 2 55 55 58 87 11 148
-47 62 -67 70 -167 65 -115 -5 -147 -23 -358 -202 -96 -81 -175 -145 -177
-143 -1 1 -40 71 -85 154 -173 323 -294 631 -344 884 -23 115 -44 300 -35 300
3 0 42 5 88 10 95 12 157 34 171 61 13 24 13 75 -1 101 -27 50 -166 74 -252
43z"/>
<path d="M4615 3274 c-112 -61 -113 -134 -2 -185 30 -13 65 -19 120 -19 55 0
77 -4 77 -12 0 -7 -5 -53 -10 -103 -29 -254 -107 -517 -242 -810 -61 -131
-209 -415 -217 -415 -4 0 -76 58 -161 130 -193 162 -265 201 -381 208 -63 4
-88 1 -120 -14 -66 -29 -87 -98 -53 -170 37 -78 104 -85 204 -24 78 48 113 51
166 12 58 -42 123 -118 144 -165 12 -28 25 -114 40 -252 22 -214 34 -285 49
-285 5 0 12 24 15 53 10 75 61 220 109 310 48 90 152 232 250 341 l69 76 42
-57 c24 -32 54 -68 68 -81 24 -22 26 -22 33 -5 4 10 11 117 15 238 9 236 20
301 67 387 41 75 46 76 92 18 58 -73 55 -92 -25 -187 -24 -28 -44 -58 -44 -67
0 -18 56 -56 82 -56 29 0 77 50 88 91 13 47 41 79 73 80 91 5 147 -44 147
-128 0 -41 -37 -129 -76 -180 -30 -40 -30 -43 4 -43 76 0 186 67 212 130 7 18
11 54 8 90 -6 88 -36 123 -227 269 l-164 125 68 17 c37 10 72 22 77 27 12 12
-48 45 -100 57 -42 9 -59 36 -67 110 -31 287 -85 409 -209 472 -65 33 -176 42
-221 17z"/>
<path d="M2877 2958 c-13 -18 -40 -60 -60 -93 -19 -33 -49 -73 -66 -89 -30
-28 -37 -30 -154 -39 -67 -4 -135 -11 -151 -15 -42 -10 -69 -52 -74 -117 -6
-79 13 -136 76 -224 125 -173 165 -256 178 -369 3 -34 10 -62 14 -62 5 0 37
45 72 100 l63 100 27 -32 c27 -32 72 -136 98 -225 7 -23 16 -40 20 -38 4 3 25
54 45 114 22 65 50 124 67 146 l30 36 25 -33 c13 -18 43 -68 66 -110 23 -43
47 -76 52 -75 6 2 11 32 12 66 3 98 34 174 137 328 128 195 151 276 95 347
-38 48 -74 59 -209 64 -69 2 -132 8 -141 13 -9 4 -42 52 -74 106 -32 54 -65
106 -73 116 -23 26 -48 21 -75 -15z"/>
<path d="M1962 1764 c-31 -22 -52 -66 -52 -113 0 -35 -5 -44 -49 -80 -69 -58
-95 -115 -89 -195 9 -110 88 -229 174 -262 24 -9 46 -15 49 -13 2 3 -7 27 -20
55 -44 91 -49 131 -27 194 l19 55 45 -45 c35 -36 54 -70 93 -165 26 -66 68
-150 91 -188 97 -150 139 -273 150 -439 7 -114 25 -158 74 -183 16 -8 31 -15
34 -15 3 0 -6 32 -20 70 -27 80 -25 110 13 140 36 28 102 26 195 -7 83 -28
118 -53 118 -82 0 -10 -16 -41 -35 -67 -86 -121 -125 -206 -125 -275 0 -71 14
-63 172 86 65 62 131 116 145 120 34 8 66 -15 223 -164 l120 -113 1 38 c2 83
-3 111 -31 169 -16 33 -50 85 -75 115 -60 73 -62 111 -7 138 89 46 198 68 248
52 58 -19 68 -63 34 -152 -11 -28 -18 -54 -16 -56 2 -2 18 4 35 12 51 27 63
64 77 245 11 140 16 169 34 191 57 70 116 172 161 278 102 241 131 292 170
292 47 0 47 -109 0 -246 l-18 -54 21 6 c68 21 134 84 167 159 30 67 38 198 15
243 -9 17 -29 38 -44 46 -49 25 -69 57 -75 115 -3 44 -10 60 -31 78 -15 13
-38 23 -51 23 -35 0 -91 -71 -105 -133 -52 -230 -158 -411 -370 -631 -114
-117 -216 -209 -359 -319 -109 -85 -114 -84 -281 54 -263 216 -387 341 -493
498 -89 133 -130 228 -187 440 -12 45 -57 101 -82 101 -7 0 -24 -7 -36 -16z"/>
</g>
</svg>
