<?xml version="1.0" standalone="no"?>
<!DOCTYPE svg PUBLIC "-//W3C//DTD SVG 20010904//EN"
 "http://www.w3.org/TR/2001/REC-SVG-20010904/DTD/svg10.dtd">
<svg version="1.0" xmlns="http://www.w3.org/2000/svg"
 width="584.000000pt" height="740.000000pt" viewBox="0 0 584.000000 740.000000"
 preserveAspectRatio="xMidYMid meet">

<g transform="translate(0.000000,740.000000) scale(0.100000,-0.100000)"
fill="#000000" stroke="none">
<path d="M2632 5774 c-167 -83 -294 -381 -319 -747 l-6 -99 93 47 c121 61 293
118 450 149 143 28 371 50 478 45 39 -2 72 -1 72 3 0 4 -25 44 -56 90 -185
271 -375 467 -508 522 -60 25 -142 21 -204 -10z"/>
<path d="M1604 5261 c-104 -63 -171 -226 -190 -462 l-7 -87 109 -6 c60 -3 174
-9 253 -12 l144 -6 -6 43 c-4 24 -12 116 -18 204 -13 176 -22 205 -86 276 -20
22 -49 47 -64 55 -39 19 -98 18 -135 -5z"/>
<path d="M2940 4970 c-186 -23 -377 -78 -554 -160 l-89 -40 7 -153 c21 -484
153 -1133 357 -1765 22 -67 38 -126 35 -131 -11 -17 -206 -95 -216 -85 -5 5
-38 77 -74 159 -152 355 -289 824 -401 1374 -43 211 -50 240 -58 230 -110
-135 -201 -384 -223 -609 -9 -91 -19 -68 -29 72 -12 158 33 344 126 530 22 43
39 81 39 86 0 4 -91 16 -202 26 -112 10 -213 20 -225 23 -29 6 -29 -8 -8 -174
51 -393 171 -802 330 -1128 162 -333 359 -572 603 -732 l83 -55 92 57 c201
124 455 316 697 528 152 134 534 511 672 664 l110 122 26 -17 c15 -9 60 -40
100 -69 60 -44 71 -56 63 -71 -14 -25 -220 -281 -320 -397 -122 -141 -516
-540 -706 -714 -88 -80 -180 -165 -205 -189 l-45 -43 140 4 c188 7 282 28 540
121 45 16 -61 -65 -133 -102 -136 -70 -256 -100 -488 -120 l-82 -7 62 -130
c33 -71 78 -163 99 -203 44 -85 28 -87 179 25 230 171 476 403 642 606 305
373 490 792 499 1129 l2 93 -180 90 c-435 218 -1002 412 -1575 541 -85 19
-166 37 -179 40 l-24 5 6 111 c3 61 10 115 16 121 13 13 236 -20 526 -78 446
-89 798 -184 1165 -314 63 -22 116 -38 119 -36 7 7 -57 124 -104 190 -65 92
-155 185 -260 270 -52 43 -95 79 -95 81 0 6 75 -23 121 -46 143 -73 273 -204
432 -434 12 -18 24 -4 146 165 l132 184 -73 34 c-331 154 -746 269 -1123 311
-134 15 -409 20 -495 10z"/>
<path d="M4757 4483 c-12 -21 -70 -114 -129 -207 -99 -155 -114 -186 -87 -186
5 0 85 -36 177 -81 l167 -81 85 4 c139 7 190 50 190 161 0 74 -29 134 -106
217 -56 59 -245 210 -265 210 -5 0 -20 -17 -32 -37z"/>
<path d="M4522 3558 c-9 -289 -127 -653 -295 -913 -25 -38 -44 -71 -42 -73 7
-7 290 18 385 34 266 45 450 136 501 249 85 186 -102 479 -475 743 -33 23 -62
42 -66 42 -3 0 -7 -37 -8 -82z"/>
<path d="M1472 3061 c-114 -241 -174 -446 -175 -597 -1 -82 2 -98 29 -150 34
-70 96 -116 174 -133 120 -26 335 -6 489 45 80 26 301 131 301 142 0 4 -23 20
-51 35 -132 75 -310 234 -438 393 -75 92 -208 291 -235 352 -11 23 -22 42 -26
42 -4 0 -34 -58 -68 -129z"/>
<path d="M2639 2097 c-31 -23 -106 -76 -167 -117 -119 -81 -138 -104 -167
-204 -22 -74 -10 -121 40 -165 92 -80 269 -65 503 45 l93 43 -60 113 c-34 62
-87 161 -118 221 -32 59 -60 107 -63 106 -3 0 -30 -19 -61 -42z"/>
</g>
</svg>
