<?xml version="1.0" encoding="utf-8"?>
<!-- Svg Vector Icons : http://www.onlinewebfonts.com/icon -->
<!DOCTYPE svg PUBLIC "-//W3C//DTD SVG 1.1//EN" "http://www.w3.org/Graphics/SVG/1.1/DTD/svg11.dtd">
<svg version="1.1" xmlns="http://www.w3.org/2000/svg" xmlns:xlink="http://www.w3.org/1999/xlink" x="0px" y="0px" viewBox="0 0 256 256" enable-background="new 0 0 256 256" xml:space="preserve">
<metadata> Svg Vector Icons : http://www.onlinewebfonts.com/icon </metadata>
<g><g><g><path fill="#000000" d="M126.2,10.5c-0.5,0.3-7.5,6.3-15.4,13.3c-8,7-14.8,12.9-15.1,13C95.2,37.2,78,30.2,71.3,27c-2.6-1.2-4.7-1.2-6.1,0.3c-1.1,1-1.2,1.4-0.9,3.3c0.1,1.2,0.4,5.3,0.6,9.1c0.3,8.2-0.3,12-2.8,17.1c-2.2,4.4-4.5,6.6-11.2,10.7c-9.2,5.5-15.7,11.1-20.1,17.4c-2.4,3.3-2.7,5.4-1,7c0.6,0.6,6.5,3.9,13.2,7.6c10.1,5.5,12.7,7.1,15,9.4c3.1,3,4.9,6.1,5.9,10.2c0.6,2.5,0.9,5.7,0.5,5.7c-0.6,0-14.7-4.6-19.2-6.2c-7.5-2.8-11.2-4.6-13.6-6.7c-2.6-2.3-4.3-2.4-6.3-0.4c-1.1,1.1-1.3,1.7-1.2,2.9c0.1,1,4.7,8,14.8,22.3c15.6,22.3,15.4,22.1,18.4,20.9c6-2.4,8-3,11.6-3c5.4,0,8.4,1.3,12.2,5.2c1.7,1.7,3.7,4.3,4.5,5.9c3.2,6.1,6.8,19.8,6.4,24.3c-0.3,3.3-1.8,4.7-5.3,4.7c-1.5,0-3.8-0.1-5.3-0.3c-2.4-0.4-2.6-0.3-4,0.8c-2.8,2.3-2.9,2,12.8,26.8c7.9,12.4,14.8,22.9,15.3,23.3c1.4,1.2,3.5,1.1,4.9-0.4c2.5-2.6,7.8-16.4,9.7-25.3c1.6-7.9,2-13.1,1.8-23c-0.4-17.1-3.4-28-12.5-46.4c-5.1-10.2-7.1-15.3-9.2-22.9c-2.2-7.9-3-14-3-22.2c0-8.6,1.1-15.4,3.6-22.6c2.3-6.5,3.7-8.8,6.5-10.9c5.2-3.8,11.2-5.4,20.6-5.4c7.2,0,12.1,0.9,16.6,3.1c6.1,2.9,8.5,6.3,11.5,16.5c4.5,15.5,3.1,34.3-3.9,51.8c-1,2.5-3.7,8.3-5.9,12.8c-6.1,12.3-8.7,19.1-10.7,29.1c-1.4,7.1-1.9,12.1-1.9,20.2c0,8.8,0.9,15.8,2.9,23.5c2.3,8.9,7.2,20.5,9.3,21.9c1.4,1,3.3,0.9,4.4-0.1c0.6-0.4,7.4-10.9,15.3-23.3c15.7-24.7,15.6-24.5,12.9-26.8c-1.4-1.1-1.7-1.2-4.1-0.8c-1.4,0.2-3.8,0.4-5.3,0.3c-2.3,0-2.9-0.2-3.9-1.2c-1.2-1.2-1.2-1.6-1.2-4.8c0-4.1,2.2-13.3,4.3-18.6c3.8-9.4,9.2-14.3,16.8-15.4c2.9-0.4,8,0.6,11.4,2.2c2.9,1.4,4.5,1.5,5.8,0.4c1.9-1.7,29.2-41.4,29.5-42.8c0.2-1.2,0-1.8-1.2-2.9c-1.9-1.9-3.7-1.8-5.9,0.1c-2.6,2.3-4.3,3.2-11.4,6c-5.2,2-20.7,7.2-21.7,7.2c-0.1,0-0.2-0.7-0.2-1.5c0-2.3,1.3-6.7,2.9-9.6c2.5-4.7,5.3-6.8,18.9-14.2c6.7-3.6,12.6-7,13.2-7.6c1.7-1.5,1.3-3.6-1-7c-4.5-6.3-10.9-11.8-20.1-17.4c-6.5-3.9-8.8-6-10.9-9.9c-3.6-6.9-4.2-12.8-2.6-26.6c0.3-2.4,0.2-2.7-0.9-3.8c-0.7-0.7-1.7-1.2-2.6-1.2c-0.7,0-7.2,2.5-14.3,5.5c-7.5,3.2-13.2,5.4-13.6,5.2c-0.3-0.2-7.1-6.1-15.1-13.1c-8-7-15-13-15.5-13.3C128.5,9.8,127.4,9.8,126.2,10.5z M143.2,32.6c15.3,13.3,15.3,13.3,16.6,13.3c0.6,0,5.9-2.1,11.8-4.6c5.9-2.5,10.9-4.6,11-4.6c0.2,0,0.2,1.2,0.1,2.8c-0.2,3.2,0.6,10.6,1.6,14.5c1.1,4.2,4.1,10,6.9,13c1.4,1.6,4.1,3.7,6.1,5c8.2,5,13,8.4,16.3,11.6c2,1.9,3.6,3.7,3.6,4c0,0.3-4,2.7-8.9,5.3c-10.5,5.6-13.7,7.8-16.9,11.4c-2.9,3.3-6.3,9.9-7.2,14.2c-1.2,5.8-0.7,12.5,1,14.3c1.5,1.5,2.9,1.3,10.9-1.1c4.3-1.3,10.3-3.3,13.3-4.4c3-1.1,5.4-1.8,5.4-1.7c0,0.1-3.6,5.3-8,11.6c-5.9,8.3-8.2,11.3-8.8,11.2c-0.5,0-2-0.4-3.4-0.8c-6.7-2-14-1.2-19.4,1.9c-8.7,5.1-14.8,15.3-18.2,30.6c-2.2,9.8-1.4,15.3,2.8,18.7c1.8,1.5,5.9,3.3,7.6,3.3c0.5,0,0.9,0.1,0.9,0.2c0,0.1-4.5,7.2-9.9,15.7l-9.9,15.6l-0.9-2.3c-1.5-3.5-4-12-4.8-16.6c-2.5-14-1.4-29.9,3.2-43.8c0.9-2.7,4.1-10,7.1-16.2c6.2-12.8,8.2-17.9,10.4-26.5c2.2-8.6,3-15,3-23.3c0-11.3-1.8-20.1-5.9-30.2c-1.5-3.5-2.2-4.6-5-7.4c-4.9-4.8-10.6-7.4-19.6-8.8c-13.7-2.1-27.5,1.1-35.3,8.2c-2.4,2.2-3.4,3.5-4.8,6.5c-7.8,16.4-8.8,37.4-2.7,58.1c1.8,6.5,4.2,12.2,9.6,23.3c3,6.2,6.2,13.6,7.1,16.4c5.9,18,6,37.9,0.2,55.3c-1,3-2,5.9-2.3,6.4c-0.4,0.7-2.1-1.6-10.4-14.7c-5.4-8.5-9.9-15.6-9.9-15.7c0-0.1,0.4-0.2,0.9-0.2c1.6,0,5.7-1.8,7.6-3.3c4.1-3.4,5-8.9,2.8-18.7c-3.9-17.5-11.4-28.5-22.1-32.5c-3.6-1.3-11.1-1.4-15.2-0.2c-1.5,0.5-3.1,0.8-3.6,0.9c-0.6,0.1-3-2.9-8.9-11.2c-4.4-6.2-8-11.4-8-11.6c0-0.2,1.8,0.4,4.1,1.2c5.9,2.2,21.6,7.1,22.9,7.1c1.6,0,3.4-1.8,3.9-3.9c2.2-9.5-2.9-22.9-11.2-29.4c-1.4-1.1-6.9-4.4-12.2-7.3c-5.3-2.9-9.7-5.5-9.7-5.8c0-0.7,5.9-6.3,9.2-8.7c1.6-1.2,5.3-3.5,8.1-5.2c2.8-1.7,6.1-4,7.3-5.1c6.3-5.9,9.7-15.2,9.8-26.5c0-3,0.1-5.4,0.3-5.4c0.1,0,5.1,2.1,11,4.6c5.9,2.5,11.2,4.6,11.8,4.6c1.3,0,2.6-1,18.7-15.1L128,19.3l1.2,1C129.8,20.9,136.1,26.4,143.2,32.6z"/><path fill="#000000" d="M125.6,74.8c-1.1,1-20.2,27.8-21.2,29.6c-0.5,1-0.5,1.6-0.1,2.6c0.6,1.5,20.2,29.1,21.4,30.1c1,0.8,3.6,0.8,4.6,0c1.3-1.1,21.4-29.5,21.5-30.3c0-0.4,0-1.2,0-1.7c-0.1-1-19.8-29-21.3-30.3c-0.5-0.4-1.6-0.8-2.4-0.8C127.2,74,126.1,74.4,125.6,74.8z M135.6,95.5c4.6,6.4,7.3,10.6,7.1,11c-0.8,1.4-14.5,20.4-14.7,20.4c-0.1,0-13.8-19-14.7-20.4c-0.2-0.4,2.4-4.4,7.1-11c4.1-5.7,7.5-10.4,7.6-10.4C128.1,85.1,131.5,89.8,135.6,95.5z"/></g></g></g>
</svg>