<?xml version="1.0" standalone="no"?>
<!DOCTYPE svg PUBLIC "-//W3C//DTD SVG 20010904//EN"
 "http://www.w3.org/TR/2001/REC-SVG-20010904/DTD/svg10.dtd">
<svg version="1.0" xmlns="http://www.w3.org/2000/svg"
 width="584.000000pt" height="740.000000pt" viewBox="0 0 584.000000 740.000000"
 preserveAspectRatio="xMidYMid meet">

<g transform="translate(0.000000,740.000000) scale(0.100000,-0.100000)"
fill="#000000" stroke="none">
<path d="M2579 6443 c-421 -367 -502 -433 -534 -433 -28 0 -136 42 -433 167
-111 47 -205 83 -209 80 -3 -4 -9 -84 -14 -179 -14 -306 -84 -504 -234 -666
-57 -62 -89 -85 -401 -286 -68 -45 -147 -109 -218 -177 -130 -126 -139 -100
74 -220 490 -277 547 -324 664 -556 78 -156 115 -370 87 -506 -15 -72 -62
-127 -109 -127 -40 0 -226 54 -514 151 -131 43 -240 79 -243 79 -7 0 74 -118
237 -348 121 -168 202 -273 222 -284 7 -4 44 2 82 12 90 27 275 37 371 21 180
-31 348 -156 481 -360 178 -271 298 -765 235 -961 -23 -72 -88 -141 -173 -184
-38 -19 -87 -37 -110 -41 -28 -5 -40 -11 -36 -20 9 -24 455 -721 502 -785 25
-34 49 -58 54 -54 14 15 80 213 110 334 83 328 97 691 40 1026 -49 287 -103
436 -323 899 -57 121 -125 272 -150 335 -119 298 -197 690 -197 993 0 403 128
860 287 1029 228 241 678 343 1113 252 191 -39 334 -110 454 -224 86 -82 123
-141 175 -282 86 -229 127 -435 138 -692 10 -247 -15 -473 -82 -736 -60 -239
-113 -373 -313 -796 -55 -115 -120 -262 -146 -325 -153 -384 -198 -905 -115
-1337 31 -159 132 -481 153 -485 8 -2 546 840 546 854 0 4 -18 10 -39 14 -59
10 -155 59 -204 105 -98 90 -121 238 -73 474 104 509 330 844 641 948 102 34
302 33 428 -1 l88 -24 25 24 c51 48 441 596 431 606 -3 3 -108 -30 -234 -72
-268 -90 -462 -145 -512 -145 -53 0 -78 23 -97 86 -23 81 -21 256 6 359 25 99
91 237 159 332 83 118 189 195 491 358 80 43 173 96 207 117 l63 40 -28 36
c-64 84 -255 232 -482 372 -176 108 -253 187 -336 344 -79 149 -110 286 -122
538 l-7 136 -130 -55 c-359 -151 -498 -204 -521 -199 -31 8 -383 306 -767 648
-54 49 -102 88 -107 88 -5 0 -163 -134 -351 -297z"/>
<path d="M2830 4769 c-178 -247 -272 -384 -293 -425 l-20 -42 202 -281 c112
-155 206 -281 210 -281 7 0 236 312 361 492 l53 77 -52 83 c-59 91 -299 430
-340 478 l-26 30 -95 -131z"/>
</g>
</svg>
