<?xml version="1.0" standalone="no"?>
<!DOCTYPE svg PUBLIC "-//W3C//DTD SVG 20010904//EN"
 "http://www.w3.org/TR/2001/REC-SVG-20010904/DTD/svg10.dtd">
<svg version="1.0" xmlns="http://www.w3.org/2000/svg"
 width="584.000000pt" height="740.000000pt" viewBox="0 0 584.000000 740.000000"
 preserveAspectRatio="xMidYMid meet">

<g transform="translate(0.000000,740.000000) scale(0.100000,-0.100000)"
fill="#000000" stroke="none">
<path d="M3843 6465 c0 -7 6 -11 14 -8 7 3 13 6 13 8 0 2 -6 5 -13 8 -8 3 -14
-1 -14 -8z"/>
<path d="M3750 6386 c0 -2 7 -7 16 -10 8 -3 12 -2 9 4 -6 10 -25 14 -25 6z"/>
<path d="M3573 6293 c-15 -5 -17 -23 -4 -23 5 0 11 7 15 15 3 8 4 15 3 14 -1
0 -8 -3 -14 -6z"/>
<path d="M3517 6265 c-4 -8 -2 -17 2 -20 5 -2 11 4 14 15 6 23 -8 27 -16 5z"/>
<path d="M3567 6249 c7 -7 15 -10 18 -7 3 3 -2 9 -12 12 -14 6 -15 5 -6 -5z"/>
<path d="M3428 6243 c7 -3 16 -2 19 1 4 3 -2 6 -13 5 -11 0 -14 -3 -6 -6z"/>
<path d="M3448 6223 c7 -3 16 -2 19 1 4 3 -2 6 -13 5 -11 0 -14 -3 -6 -6z"/>
<path d="M3636 6221 c-3 -4 6 -6 19 -3 14 2 25 6 25 8 0 8 -39 4 -44 -5z"/>
<path d="M3458 6203 c7 -3 16 -2 19 1 4 3 -2 6 -13 5 -11 0 -14 -3 -6 -6z"/>
<path d="M3730 6176 c0 -2 7 -7 16 -10 8 -3 12 -2 9 4 -6 10 -25 14 -25 6z"/>
<path d="M3060 6130 c0 -5 5 -10 10 -10 6 0 10 5 10 10 0 6 -4 10 -10 10 -5 0
-10 -4 -10 -10z"/>
<path d="M2826 6105 c-11 -8 -15 -15 -9 -15 6 0 16 7 23 15 16 19 11 19 -14 0z"/>
<path d="M3830 6106 c0 -2 8 -10 18 -17 15 -13 16 -12 3 4 -13 16 -21 21 -21
13z"/>
<path d="M4245 6075 c22 -18 42 -32 44 -29 3 2 -5 11 -17 19 -11 9 -28 22 -36
30 -8 8 -18 15 -23 15 -4 -1 10 -16 32 -35z"/>
<path d="M2780 6065 c-7 -8 -16 -13 -19 -10 -4 2 -8 -3 -8 -11 0 -11 6 -9 24
8 13 12 23 23 23 25 0 7 -8 2 -20 -12z"/>
<path d="M3204 6055 c-18 -14 -18 -14 4 -8 12 3 22 9 22 14 0 12 -3 11 -26 -6z"/>
<path d="M3300 6024 l-25 -14 28 2 c15 1 27 8 27 15 0 7 -1 13 -2 12 -2 -1
-14 -7 -28 -15z"/>
<path d="M3065 6020 c-3 -5 -1 -10 4 -10 6 0 11 5 11 10 0 6 -2 10 -4 10 -3 0
-8 -4 -11 -10z"/>
<path d="M4320 6015 c7 -8 17 -15 22 -15 5 0 3 7 -6 15 -8 8 -18 15 -22 15 -3
0 -1 -7 6 -15z"/>
<path d="M2361 5991 c-1 -8 -9 -24 -18 -35 -16 -20 -16 -20 6 0 13 12 21 28
18 35 -4 11 -6 11 -6 0z"/>
<path d="M2805 5970 c-3 -5 -1 -10 4 -10 6 0 11 5 11 10 0 6 -2 10 -4 10 -3 0
-8 -4 -11 -10z"/>
<path d="M3545 5970 c-3 -5 1 -10 10 -10 9 0 13 5 10 10 -3 6 -8 10 -10 10 -2
0 -7 -4 -10 -10z"/>
<path d="M2703 5958 c-12 -16 -24 -48 -18 -48 2 0 11 14 20 30 16 31 15 40 -2
18z"/>
<path d="M4360 5946 c0 -2 8 -10 18 -17 15 -13 16 -12 3 4 -13 16 -21 21 -21
13z"/>
<path d="M2985 5920 c-3 -6 1 -7 9 -4 18 7 21 14 7 14 -6 0 -13 -4 -16 -10z"/>
<path d="M4240 5920 c0 -6 7 -10 15 -10 8 0 15 2 15 4 0 2 -7 6 -15 10 -8 3
-15 1 -15 -4z"/>
<path d="M2350 5899 c-22 -18 -22 -19 -3 -10 12 6 25 16 28 21 9 15 3 12 -25
-11z"/>
<path d="M4431 5883 c7 -12 15 -20 18 -17 3 2 -3 12 -13 22 -17 16 -18 16 -5
-5z"/>
<path d="M2990 5880 c0 -5 7 -7 15 -4 8 4 15 8 15 10 0 2 -7 4 -15 4 -8 0 -15
-4 -15 -10z"/>
<path d="M4224 5879 c-4 -8 -3 -9 4 -5 11 7 16 -5 13 -29 -1 -5 5 -2 13 8 9
11 16 14 19 7 3 -6 4 -5 3 2 -2 7 -7 13 -12 13 -5 0 -14 4 -21 8 -6 4 -15 2
-19 -4z"/>
<path d="M4125 5860 c-10 -11 -13 -20 -8 -20 13 0 38 29 31 35 -3 3 -13 -4
-23 -15z"/>
<path d="M4334 5861 c14 -16 15 -20 2 -30 -8 -7 -27 -14 -43 -15 -15 -2 -27
-6 -25 -10 3 -9 4 -14 6 -28 1 -14 34 -20 42 -7 3 5 10 9 15 9 6 0 7 -5 3 -12
-5 -7 -2 -9 9 -5 10 4 14 2 11 -7 -2 -6 -18 -11 -35 -10 -25 2 -28 0 -18 -12
8 -10 8 -14 0 -14 -17 0 -13 -31 7 -46 11 -9 13 -13 4 -14 -16 0 -43 25 -36
33 3 3 1 14 -6 24 -11 17 -11 16 -7 -3 2 -12 0 -29 -6 -39 -7 -13 -6 -16 2
-11 14 9 14 7 0 -33 -14 -38 -29 -40 -29 -3 0 21 2 24 10 12 6 -9 10 -10 10
-3 0 7 -6 16 -14 20 -8 4 -16 17 -19 28 -3 11 -3 -1 0 -27 3 -32 2 -48 -6 -48
-6 0 -11 -7 -11 -16 0 -14 -3 -14 -15 -4 -8 7 -15 20 -15 29 0 11 -9 17 -25
19 -14 1 -25 -3 -25 -8 0 -5 7 -7 15 -4 9 4 15 0 15 -10 0 -9 5 -16 10 -16 6
0 10 -16 10 -35 0 -19 5 -35 10 -35 6 0 10 -5 10 -11 0 -5 -4 -7 -10 -4 -5 3
-10 -1 -10 -9 0 -9 4 -16 8 -16 5 0 8 -10 6 -22 -1 -13 -3 -29 -3 -37 -1 -8
-7 -11 -17 -7 -9 3 -12 2 -9 -5 4 -6 13 -8 21 -5 10 4 14 -3 14 -25 0 -17 4
-28 9 -24 16 9 22 -12 12 -39 -8 -20 -7 -24 3 -20 17 7 41 88 30 105 -5 9 -2
10 12 5 10 -4 24 -9 31 -10 7 -1 16 -5 19 -9 4 -4 14 -7 23 -7 13 1 12 3 -3
15 -11 8 -15 15 -9 15 13 0 35 -25 27 -32 -8 -9 47 -48 59 -41 5 3 7 1 4 -4
-8 -13 20 -26 35 -16 6 3 8 1 4 -5 -3 -6 12 -26 34 -45 39 -33 40 -34 15 -34
-14 0 -25 5 -25 11 0 19 -52 64 -82 71 -16 4 -26 11 -23 16 8 11 -33 32 -51
25 -8 -3 -14 1 -14 8 0 8 -9 16 -19 19 -14 3 -20 -2 -24 -22 -3 -14 -1 -30 4
-35 17 -18 10 -45 -10 -39 -12 3 -20 -2 -24 -16 -3 -14 0 -21 9 -21 8 0 14 7
14 16 0 8 4 13 9 9 6 -3 15 3 21 12 9 15 9 14 5 -7 -5 -22 -1 -27 32 -38 50
-17 76 -20 89 -10 20 15 26 -23 7 -44 -14 -16 -15 -20 -3 -18 21 3 60 -11 60
-21 0 -5 -4 -9 -8 -9 -13 0 -6 -140 8 -153 10 -9 11 -8 6 8 -5 16 -1 21 14 22
19 2 19 0 5 -20 -20 -29 -21 -54 0 -37 8 7 13 16 10 20 -3 5 4 6 15 3 11 -3
20 -14 20 -25 0 -10 4 -17 10 -13 11 7 50 -25 50 -42 0 -6 -9 -11 -20 -10 -13
1 -19 6 -15 15 2 7 0 10 -5 7 -6 -3 -10 -2 -10 3 0 5 -11 14 -25 20 -15 7 -25
8 -25 2 0 -6 7 -10 15 -10 8 0 15 -7 15 -16 0 -8 5 -12 10 -9 6 3 10 2 10 -4
0 -16 -14 -20 -27 -6 -6 7 -11 15 -10 16 1 2 -6 -5 -16 -16 -10 -11 -16 -14
-12 -7 3 6 1 12 -4 12 -19 0 -12 -56 9 -75 19 -17 19 -19 3 -38 -10 -11 -13
-17 -7 -14 17 10 26 -21 14 -44 -6 -11 -8 -24 -4 -30 3 -6 -6 -24 -22 -40 -15
-16 -24 -29 -20 -29 4 0 24 17 43 38 32 33 34 34 18 7 -10 -16 -24 -34 -32
-38 -15 -9 -18 -47 -3 -47 6 0 13 7 17 16 3 8 12 13 19 10 9 -3 14 2 14 14 0
10 5 22 11 26 9 5 10 -1 5 -20 -5 -20 -4 -26 5 -20 8 4 9 3 5 -5 -4 -6 -11 -9
-16 -6 -4 3 -11 -2 -14 -11 -3 -9 -12 -14 -20 -11 -8 3 -22 0 -33 -8 -16 -12
-17 -14 -1 -20 21 -8 31 -32 16 -41 -7 -4 -8 -3 -4 4 5 8 2 10 -8 6 -9 -3 -16
-1 -16 5 0 12 -30 12 -40 0 -8 -9 -130 -56 -182 -70 -26 -7 -45 -16 -43 -20 8
-11 124 -2 140 11 8 7 15 9 15 5 0 -4 7 -1 16 6 9 7 26 14 37 16 12 2 27 10
33 18 12 17 44 20 44 5 0 -5 7 -7 15 -4 9 4 15 0 15 -10 0 -9 -4 -16 -10 -16
-5 0 -10 -5 -10 -11 0 -5 14 -2 30 8 24 14 30 23 25 40 -3 13 -2 23 3 23 4 0
8 9 9 20 1 11 -2 20 -8 20 -5 0 -9 5 -9 11 0 5 5 7 10 4 6 -3 10 -1 10 5 0 6
4 9 9 5 6 -3 15 5 21 17 11 22 10 22 -4 4 -18 -23 -21 -14 -6 15 8 13 7 19 0
19 -6 0 -10 15 -8 35 1 21 7 35 15 35 7 0 13 5 13 11 0 6 -9 8 -20 4 -16 -5
-20 -2 -20 14 0 12 -5 21 -11 21 -5 0 -8 -4 -4 -9 3 -5 -7 -22 -22 -38 -27
-28 -27 -28 -11 -2 10 15 14 36 11 49 -3 12 -1 25 4 29 5 3 15 15 22 26 12 20
12 20 6 -1 -6 -24 18 -50 36 -39 8 6 7 10 -2 16 -10 6 -11 9 -1 9 14 0 16 36
2 45 -6 4 -8 11 -4 16 3 5 9 7 14 4 5 -3 11 12 13 32 3 21 4 11 2 -22 -1 -33
-5 -75 -8 -93 -5 -29 -4 -32 8 -22 10 8 15 9 15 2 0 -6 -4 -14 -10 -17 -5 -3
-10 -10 -10 -16 0 -19 16 -7 39 31 14 22 27 38 29 35 3 -2 0 -10 -6 -18 -13
-16 -72 -133 -72 -143 0 -5 14 13 30 39 17 26 30 52 30 57 0 11 39 24 47 16 4
-3 1 -6 -5 -6 -7 0 -12 -12 -12 -26 0 -14 -4 -23 -10 -19 -6 3 -13 -2 -17 -12
-3 -10 -13 -27 -22 -38 -11 -14 -7 -12 12 4 15 14 27 21 27 18 0 -4 10 -1 23
7 24 15 77 19 77 5 0 -5 -4 -9 -10 -9 -5 0 -7 -7 -4 -15 4 -8 10 -15 16 -15 5
0 7 4 4 9 -3 5 1 14 9 21 8 7 12 17 9 22 -3 5 2 12 12 14 11 3 27 16 37 30 13
18 14 22 3 18 -10 -4 -14 0 -12 13 2 11 10 17 21 15 10 -2 14 1 10 7 -3 6 -2
11 3 11 4 0 8 14 8 30 0 17 -3 30 -8 30 -4 0 -8 7 -8 16 0 8 5 12 10 9 6 -4
10 5 10 19 0 14 0 28 0 31 0 3 -3 4 -7 3 -5 0 -7 -9 -5 -20 2 -10 -1 -18 -6
-18 -16 0 -20 -48 -5 -54 12 -5 12 -8 -1 -22 -9 -8 -16 -20 -16 -25 0 -6 -4
-8 -9 -5 -5 3 -8 -8 -7 -25 3 -48 -15 -47 -47 3 -22 35 -24 66 -2 48 8 -7 12
-16 9 -21 -11 -19 8 -30 21 -12 9 13 10 22 3 30 -7 9 -7 13 1 13 6 0 11 -4 11
-10 0 -5 5 -10 10 -10 17 0 11 38 -7 43 -17 4 -17 5 0 6 21 1 21 3 3 46 -8 19
-20 35 -27 35 -8 0 -7 -5 2 -17 13 -15 12 -15 -8 -4 -13 6 -23 18 -23 26 0 9
-6 12 -15 9 -8 -4 -15 -1 -15 5 0 6 -11 16 -25 21 -14 5 -30 21 -35 35 -5 14
-16 25 -25 25 -8 0 -15 7 -15 16 0 8 5 12 10 9 6 -3 10 -1 10 4 0 6 -5 11 -12
11 -6 0 -8 3 -5 7 4 3 0 18 -8 32 -11 18 -6 15 15 -9 17 -19 29 -42 28 -50 -3
-19 3 -23 25 -15 9 4 17 15 17 24 0 12 -2 13 -9 3 -7 -11 -9 -10 -14 3 -4 9
-3 13 3 10 6 -3 10 -1 10 5 0 6 5 8 10 5 15 -9 12 -45 -4 -51 -20 -8 -16 -43
6 -50 10 -3 18 -9 18 -14 0 -7 54 -25 56 -18 0 2 8 -3 16 -10 13 -10 17 -10
22 4 9 24 6 42 -4 19 -8 -19 -9 -19 -9 2 -1 12 -6 25 -13 29 -8 5 -9 2 -5 -9
3 -10 2 -17 -3 -17 -6 0 -10 11 -10 25 0 14 5 25 11 25 7 0 9 9 6 21 -7 24 20
39 34 18 6 -9 7 -4 3 16 -8 35 -14 45 -14 23 0 -9 -6 -18 -12 -21 -14 -4 -108
53 -108 66 0 4 13 -2 29 -14 22 -16 36 -19 60 -14 30 6 31 7 16 36 -9 16 -22
29 -31 29 -10 0 -15 8 -14 23 1 12 2 31 1 42 -1 17 -3 18 -11 5 -8 -12 -10
-11 -10 7 0 13 -8 24 -21 28 -14 5 -18 10 -11 17 7 7 5 17 -7 29 -10 11 -18
32 -19 47 -1 27 -13 63 -31 92 -6 8 -13 29 -17 45 -6 24 -8 26 -12 10 -6 -30
-22 -45 -46 -44 -21 0 -21 0 2 9 24 10 29 19 10 16 -7 0 -13 4 -13 9 0 6 3 9
6 8 3 -1 6 4 6 11 0 9 -18 16 -50 20 -28 3 -55 11 -61 17 -8 8 -5 9 14 3 44
-14 84 -11 88 9 2 12 -3 17 -17 17 -24 0 -131 51 -131 62 0 12 6 10 47 -12 40
-21 67 -26 61 -11 -6 18 -129 101 -140 95 -6 -4 0 -15 16 -29 24 -21 25 -23 9
-36 -10 -7 -15 -10 -11 -5 10 12 -11 48 -23 41 -5 -4 -9 1 -9 9 0 8 5 18 10
21 8 5 7 11 -1 21 -6 8 -8 14 -4 14 4 0 2 7 -5 15 -15 18 -35 20 -24 3 4 -7 3
-8 -4 -4 -7 4 -12 3 -12 -3 0 -5 6 -11 13 -14 6 -2 3 -3 -9 -1 -11 2 -30 -3
-42 -12 -13 -8 -22 -11 -22 -5 0 20 5 26 17 23 7 -1 21 6 32 17 19 19 19 19 0
40 -11 12 -23 21 -26 21 -3 0 1 -8 11 -19z m46 -121 c0 -5 -5 -10 -11 -10 -5
0 -7 5 -4 10 3 6 8 10 11 10 2 0 4 -4 4 -10z m37 -42 c-3 -8 -6 -5 -6 6 -1 11
2 17 5 13 3 -3 4 -12 1 -19z m-52 -27 c3 -6 -4 -9 -15 -8 -11 1 -20 5 -20 9 0
11 28 10 35 -1z m78 -10 c3 -14 1 -18 -9 -14 -8 3 -14 11 -14 19 0 21 17 17
23 -5z m-90 -30 c-3 -12 -11 -17 -19 -14 -11 4 -12 9 -3 19 16 20 28 17 22 -5z
m82 -1 c3 -5 1 -10 -4 -10 -6 0 -11 5 -11 10 0 6 2 10 4 10 3 0 8 -4 11 -10z
m36 -17 c13 -16 12 -17 -3 -4 -10 7 -18 15 -18 17 0 8 8 3 21 -13z m-138 -45
c-6 -12 15 -9 22 2 8 13 35 13 35 -1 0 -5 -4 -7 -10 -4 -5 3 -20 -3 -32 -14
-12 -12 -25 -21 -30 -21 -4 0 -8 -5 -8 -11 0 -6 7 -9 15 -5 9 3 15 0 15 -9 0
-19 -38 -20 -42 -1 -2 12 -12 9 -43 -11 -35 -21 -36 -24 -12 -19 22 5 27 3 27
-14 0 -11 -4 -20 -10 -20 -5 0 -7 7 -4 15 5 13 2 14 -19 6 -18 -7 -28 -6 -36
3 -6 7 -8 16 -4 20 4 3 8 12 9 19 1 7 3 19 5 27 3 10 -2 14 -16 11 -19 -3 -19
-2 -2 16 9 11 17 25 17 31 0 7 5 12 10 12 6 0 10 -7 10 -15 0 -8 -4 -15 -10
-15 -5 0 -10 -5 -10 -11 0 -5 5 -7 10 -4 10 6 14 -7 11 -32 -1 -7 3 -13 8 -13
5 0 9 14 9 30 -1 17 2 33 5 37 4 3 7 -5 7 -19 0 -35 8 -39 43 -22 16 9 26 19
21 23 -9 6 -10 11 -5 44 2 6 6 3 10 -8 5 -11 7 -23 4 -27z m94 -63 c0 -8 -4
-15 -9 -15 -10 0 -11 14 -1 23 9 10 10 9 10 -8z m120 -88 c-2 -6 -9 -13 -17
-15 -8 -3 -10 0 -5 7 4 7 -1 22 -12 33 l-18 21 28 -18 c15 -10 26 -23 24 -28z
m-327 19 c0 -3 -4 -8 -10 -11 -5 -3 -10 -1 -10 4 0 6 5 11 10 11 6 0 10 -2 10
-4z m10 -36 c0 -11 -7 -20 -15 -20 -18 0 -19 12 -3 28 16 16 18 15 18 -8z
m266 -27 c-7 -7 -26 7 -26 19 0 6 6 6 15 -2 9 -7 13 -15 11 -17z m50 -25 c-18
-10 -48 1 -40 14 3 5 12 7 20 4 9 -3 11 1 8 12 -5 14 -3 13 10 -3 14 -16 14
-20 2 -27z m159 4 c-7 -8 -43 9 -48 23 -5 10 1 10 23 -3 16 -9 27 -18 25 -20z
m-105 18 c0 -5 -2 -10 -4 -10 -3 0 -8 5 -11 10 -3 6 -1 10 4 10 6 0 11 -4 11
-10z m-290 -24 c0 -2 -8 -10 -17 -17 -16 -13 -17 -12 -4 4 13 16 21 21 21 13z
m270 -61 c7 -9 8 -15 2 -15 -5 0 -12 7 -16 15 -3 8 -4 15 -2 15 2 0 9 -7 16
-15z m-126 -70 c-4 -8 -8 -15 -10 -15 -2 0 -4 7 -4 15 0 8 4 15 10 15 5 0 7
-7 4 -15z m79 -91 c-10 -7 -21 -14 -25 -14 -14 0 -8 33 9 52 17 19 17 19 25
-3 6 -16 4 -25 -9 -35z m137 36 c0 -5 -2 -10 -4 -10 -3 0 -8 5 -11 10 -3 6 -1
10 4 10 6 0 11 -4 11 -10z m28 -15 c-3 -3 -9 2 -12 12 -6 14 -5 15 5 6 7 -7
10 -15 7 -18z m-213 -75 c3 -5 1 -10 -4 -10 -6 0 -11 5 -11 10 0 6 2 10 4 10
3 0 8 -4 11 -10z m305 -22 c0 -5 -7 -3 -15 6 -8 8 -15 18 -15 22 0 3 7 1 15
-6 8 -7 15 -17 15 -22z m-122 -89 c-3 -8 -7 -3 -11 10 -4 17 -3 21 5 13 5 -5
8 -16 6 -23z m68 -74 c2 -12 -2 -13 -17 -5 -20 11 -24 22 -12 34 8 8 26 -9 29
-29z m-166 -5 c0 -5 -5 -10 -11 -10 -5 0 -7 5 -4 10 3 6 8 10 11 10 2 0 4 -4
4 -10z m187 -32 c-3 -7 -5 -2 -5 12 0 14 2 19 5 13 2 -7 2 -19 0 -25z m-37 1
c0 -5 -4 -9 -10 -9 -5 0 -10 7 -10 16 0 8 5 12 10 9 6 -3 10 -10 10 -16z
m-180 -3 c0 -3 -4 -8 -10 -11 -5 -3 -10 -1 -10 4 0 6 5 11 10 11 6 0 10 -2 10
-4z m205 -66 c3 -5 2 -10 -4 -10 -5 0 -13 5 -16 10 -3 6 -2 10 4 10 5 0 13 -4
16 -10z m36 -13 c-1 -4 -1 -16 -1 -27 0 -17 -5 -20 -35 -17 -48 5 -54 15 -17
28 18 6 32 15 32 21 0 5 5 8 11 6 6 -2 10 -7 10 -11z"/>
<path d="M4156 5851 c-13 -14 -14 -21 -5 -27 7 -4 10 -3 5 4 -3 6 2 15 11 21
10 5 15 12 12 15 -3 4 -14 -2 -23 -13z"/>
<path d="M4295 5860 c-8 -13 3 -30 18 -29 9 0 9 2 0 6 -7 2 -13 9 -13 14 0 6
5 7 12 3 7 -4 8 -3 4 4 -9 15 -13 15 -21 2z"/>
<path d="M4382 5845 c12 -14 33 -32 47 -41 19 -12 15 -5 -14 25 -42 44 -69 57
-33 16z"/>
<path d="M2665 5850 c-3 -5 -1 -10 4 -10 6 0 11 5 11 10 0 6 -2 10 -4 10 -3 0
-8 -4 -11 -10z"/>
<path d="M2396 5833 c-6 -14 -5 -15 5 -6 7 7 10 15 7 18 -3 3 -9 -2 -12 -12z"/>
<path d="M4056 5831 c-4 -5 -2 -12 3 -15 5 -4 12 -2 15 3 4 5 2 12 -3 15 -5 4
-12 2 -15 -3z"/>
<path d="M3940 5819 c0 -5 5 -7 10 -4 6 3 10 8 10 11 0 2 -4 4 -10 4 -5 0 -10
-5 -10 -11z"/>
<path d="M4222 5810 c0 -14 2 -19 5 -12 2 6 2 18 0 25 -3 6 -5 1 -5 -13z"/>
<path d="M3400 5808 c0 -4 7 -8 15 -8 8 0 15 4 15 8 0 5 -7 9 -15 9 -8 0 -15
-4 -15 -9z"/>
<path d="M3300 5795 c-20 -24 -6 -28 15 -5 10 11 13 20 8 20 -6 0 -16 -7 -23
-15z"/>
<path d="M3700 5786 c0 -2 7 -6 15 -10 8 -3 15 -1 15 4 0 6 -7 10 -15 10 -8 0
-15 -2 -15 -4z"/>
<path d="M4242 5784 c3 -3 2 -21 -2 -40 -4 -18 -4 -34 0 -34 4 0 10 14 14 31
8 43 8 49 -6 49 -6 0 -9 -2 -6 -6z"/>
<path d="M4068 5773 c7 -3 16 -2 19 1 4 3 -2 6 -13 5 -11 0 -14 -3 -6 -6z"/>
<path d="M4133 5772 c-9 -6 -7 -11 6 -19 16 -10 18 -9 14 8 -3 10 -6 19 -7 19
0 0 -6 -4 -13 -8z"/>
<path d="M4222 5760 c0 -14 2 -19 5 -12 2 6 2 18 0 25 -3 6 -5 1 -5 -13z"/>
<path d="M3555 5750 c3 -5 8 -10 11 -10 2 0 4 5 4 10 0 6 -5 10 -11 10 -5 0
-7 -4 -4 -10z"/>
<path d="M3908 5748 c5 -5 16 -8 23 -6 8 3 3 7 -10 11 -17 4 -21 3 -13 -5z"/>
<path d="M4096 5735 c-3 -8 -1 -15 4 -15 13 0 22 18 11 24 -5 3 -11 -1 -15 -9z"/>
<path d="M4050 5730 c-23 -7 -23 -8 -3 -9 12 -1 25 4 28 9 3 6 5 10 3 9 -2 -1
-14 -5 -28 -9z"/>
<path d="M2255 5703 c-14 -65 -14 -65 0 -53 15 13 25 69 14 76 -5 3 -11 -8
-14 -23z"/>
<path d="M3560 5715 c0 -9 6 -12 15 -9 8 4 15 7 15 9 0 2 -7 5 -15 9 -9 3 -15
0 -15 -9z"/>
<path d="M4137 5715 c3 -8 9 -12 14 -9 12 7 11 11 -5 17 -10 4 -13 1 -9 -8z"/>
<path d="M3766 5707 c3 -10 9 -15 12 -12 3 3 0 11 -7 18 -10 9 -11 8 -5 -6z"/>
<path d="M3360 5699 c0 -5 5 -7 10 -4 6 3 10 8 10 11 0 2 -4 4 -10 4 -5 0 -10
-5 -10 -11z"/>
<path d="M3456 5698 c-5 -10 -14 -18 -21 -18 -11 0 -11 -6 -2 -30 10 -26 16
-30 35 -25 15 4 21 2 17 -5 -3 -5 1 -10 11 -10 14 0 14 3 4 15 -7 9 -19 14
-26 11 -8 -3 -19 4 -25 15 -10 19 -8 21 18 17 15 -3 23 -3 16 -1 -6 2 -14 14
-16 26 -3 19 -4 20 -11 5z"/>
<path d="M3330 5680 c0 -5 5 -10 11 -10 5 0 7 5 4 10 -3 6 -8 10 -11 10 -2 0
-4 -4 -4 -10z"/>
<path d="M3375 5670 c-4 -6 -4 -10 -1 -10 2 0 11 -3 20 -6 9 -3 16 -2 16 4 0
14 -28 23 -35 12z"/>
<path d="M3513 5659 c-2 -23 3 -25 10 -4 4 8 3 16 -1 19 -4 3 -9 -4 -9 -15z"/>
<path d="M3980 5664 c0 -14 3 -14 15 -4 8 7 15 14 15 16 0 2 -7 4 -15 4 -8 0
-15 -7 -15 -16z"/>
<path d="M4140 5665 c0 -8 4 -15 10 -15 5 0 7 7 4 15 -4 8 -8 15 -10 15 -2 0
-4 -7 -4 -15z"/>
<path d="M3900 5661 c0 -8 41 -23 47 -17 2 1 -8 8 -22 14 -14 6 -25 8 -25 3z"/>
<path d="M2926 5645 c4 -8 8 -15 10 -15 2 0 4 7 4 15 0 8 -4 15 -10 15 -5 0
-7 -7 -4 -15z"/>
<path d="M3013 5645 c0 -8 4 -12 9 -9 5 3 6 10 3 15 -9 13 -12 11 -12 -6z"/>
<path d="M2890 5640 c-9 -6 -10 -10 -3 -10 6 0 15 5 18 10 8 12 4 12 -15 0z"/>
<path d="M3285 5640 c3 -5 8 -10 11 -10 2 0 4 5 4 10 0 6 -5 10 -11 10 -5 0
-7 -4 -4 -10z"/>
<path d="M3530 5635 c-8 -9 -8 -15 -2 -15 12 0 26 19 19 26 -2 2 -10 -2 -17
-11z"/>
<path d="M3106 5624 c-5 -14 -4 -15 9 -4 17 14 19 20 6 20 -5 0 -12 -7 -15
-16z"/>
<path d="M2977 5619 c7 -7 15 -10 18 -7 3 3 -2 9 -12 12 -14 6 -15 5 -6 -5z"/>
<path d="M4083 5615 c-3 -9 -3 -19 1 -22 3 -4 6 1 6 10 0 8 6 18 13 20 9 4 9
6 -1 6 -7 1 -15 -6 -19 -14z"/>
<path d="M3635 5610 c-4 -6 6 -10 22 -10 22 0 25 2 13 10 -19 12 -27 12 -35 0z"/>
<path d="M4030 5606 c0 -2 7 -9 15 -16 13 -11 14 -10 9 4 -5 14 -24 23 -24 12z"/>
<path d="M3534 5586 c-10 -8 -16 -18 -11 -22 4 -4 7 -2 7 4 0 7 5 12 11 12 5
0 7 -4 4 -10 -3 -5 -2 -10 4 -10 5 0 9 9 8 20 -1 11 -2 20 -2 20 -1 0 -10 -6
-21 -14z"/>
<path d="M3015 5577 c-11 -26 3 -34 23 -12 9 10 12 15 5 11 -6 -3 -13 0 -16 6
-3 9 -7 7 -12 -5z"/>
<path d="M3150 5565 c-14 -8 -19 -14 -10 -14 8 0 26 6 40 14 14 8 19 14 10 14
-8 0 -26 -6 -40 -14z"/>
<path d="M3584 5566 c1 -8 5 -18 8 -22 4 -3 5 1 4 10 -1 8 -5 18 -8 22 -4 3
-5 -1 -4 -10z"/>
<path d="M3653 5573 c-18 -7 -16 -23 2 -23 8 0 15 7 15 15 0 8 -1 15 -2 14 -2
0 -9 -3 -15 -6z"/>
<path d="M4004 5566 c19 -16 19 -16 -5 -17 -18 -1 -20 -2 -5 -6 30 -8 42 13
15 27 -23 11 -23 10 -5 -4z"/>
<path d="M3393 5553 c-3 -10 -8 -22 -11 -27 -3 -5 0 -6 5 -3 11 7 25 47 17 47
-3 0 -7 -8 -11 -17z"/>
<path d="M3955 5560 c-3 -5 -1 -10 4 -10 6 0 11 5 11 10 0 6 -2 10 -4 10 -3 0
-8 -4 -11 -10z"/>
<path d="M4070 5551 c-8 -15 -8 -26 0 -39 8 -13 10 -13 9 -2 -1 8 1 23 6 33
11 26 -1 33 -15 8z"/>
<path d="M3619 5548 c-1 -7 -1 -17 0 -22 1 -4 -3 -14 -9 -21 -8 -9 -8 -15 0
-20 5 -3 10 -3 10 2 0 4 4 2 9 -6 8 -12 12 -12 25 -2 9 8 16 21 16 30 -1 20
-49 58 -51 39z m33 -50 c-7 -7 -12 -8 -12 -2 0 14 12 26 19 19 2 -3 -1 -11 -7
-17z"/>
<path d="M2813 5538 c-21 -27 -24 -38 -10 -38 7 0 19 11 25 25 12 26 2 34 -15
13z"/>
<path d="M2962 5512 c-17 -15 -19 -21 -9 -31 9 -10 8 -14 -5 -22 -10 -5 -23
-20 -28 -32 -10 -19 -9 -20 2 -6 7 9 18 14 24 12 6 -2 14 6 17 18 4 13 10 18
18 13 8 -4 10 -3 5 4 -7 12 5 16 32 13 6 -1 12 5 12 12 0 8 7 18 16 21 9 4 14
9 11 12 -9 10 -48 -17 -41 -28 4 -7 3 -8 -4 -4 -6 4 -22 2 -34 -5 -23 -12 -23
-11 1 15 28 30 15 35 -17 8z"/>
<path d="M3440 5508 c0 -14 -3 -33 -6 -41 -3 -8 2 -17 13 -21 14 -6 15 -4 6 5
-7 7 -9 19 -3 34 5 12 4 28 -1 36 -6 10 -9 7 -9 -13z"/>
<path d="M3096 5508 c3 -4 9 -8 15 -8 5 0 9 4 9 8 0 5 -7 9 -15 9 -8 0 -12 -4
-9 -9z"/>
<path d="M3710 5505 c0 -8 4 -15 10 -15 5 0 7 7 4 15 -4 8 -8 15 -10 15 -2 0
-4 -7 -4 -15z"/>
<path d="M3190 5500 c0 -5 7 -7 15 -4 8 4 15 8 15 10 0 2 -7 4 -15 4 -8 0 -15
-4 -15 -10z"/>
<path d="M3227 5490 c-21 -9 -38 -20 -38 -24 2 -18 0 -20 -9 -6 -8 13 -10 12
-10 -2 0 -30 24 -20 99 39 2 2 2 5 0 7 -2 2 -21 -5 -42 -14z"/>
<path d="M3333 5480 c3 -14 11 -55 18 -92 10 -56 14 -65 24 -51 13 18 9 53 -7
53 -5 0 -7 4 -4 8 7 11 -13 84 -26 97 -7 7 -9 2 -5 -15z"/>
<path d="M3491 5484 c-1 -11 7 -28 18 -38 15 -14 20 -14 30 -3 9 11 8 17 -4
27 -13 11 -14 10 -9 -5 5 -12 3 -16 -7 -13 -7 2 -16 15 -20 29 -6 21 -7 22 -8
3z"/>
<path d="M3811 5484 c0 -11 3 -14 6 -6 3 7 2 16 -1 19 -3 4 -6 -2 -5 -13z"/>
<path d="M2695 5479 c-4 -6 -5 -12 -2 -15 2 -3 7 2 10 11 7 17 1 20 -8 4z"/>
<path d="M2885 5480 c3 -5 8 -10 11 -10 2 0 4 5 4 10 0 6 -5 10 -11 10 -5 0
-7 -4 -4 -10z"/>
<path d="M3110 5480 c-18 -12 -2 -12 25 0 13 6 15 9 5 9 -8 0 -22 -4 -30 -9z"/>
<path d="M3400 5480 c-13 -8 -13 -10 2 -10 9 0 20 5 23 10 8 13 -5 13 -25 0z"/>
<path d="M4131 5466 c-14 -15 -19 -26 -12 -26 17 0 43 28 39 41 -2 5 -14 -1
-27 -15z"/>
<path d="M2207 5469 c7 -7 15 -10 18 -7 3 3 -2 9 -12 12 -14 6 -15 5 -6 -5z"/>
<path d="M3243 5459 c-38 -24 -40 -28 -13 -26 10 1 17 3 15 5 -2 3 6 13 18 23
29 25 20 24 -20 -2z"/>
<path d="M4080 5465 c0 -8 2 -15 4 -15 2 0 6 7 10 15 3 8 1 15 -4 15 -6 0 -10
-7 -10 -15z"/>
<path d="M3767 5449 c6 -23 9 -24 16 -5 3 8 0 17 -7 19 -10 4 -12 -1 -9 -14z"/>
<path d="M3955 5460 c-4 -6 -16 -8 -28 -5 -18 5 -19 4 -5 -5 17 -11 48 -4 48
11 0 12 -7 11 -15 -1z"/>
<path d="M4032 5461 c-7 -4 1 -12 18 -18 35 -13 36 -13 11 9 -10 8 -23 13 -29
9z"/>
<path d="M2575 5450 c-3 -5 -1 -10 4 -10 6 0 11 5 11 10 0 6 -2 10 -4 10 -3 0
-8 -4 -11 -10z"/>
<path d="M3040 5449 c0 -5 5 -7 10 -4 6 3 10 8 10 11 0 2 -4 4 -10 4 -5 0 -10
-5 -10 -11z"/>
<path d="M3582 5441 c7 -12 18 -17 27 -13 14 6 14 7 -1 10 -10 2 -18 8 -18 13
0 5 -5 9 -10 9 -6 0 -6 -7 2 -19z"/>
<path d="M3000 5435 c-14 -8 -20 -14 -14 -15 5 0 19 7 30 15 24 18 16 19 -16
0z"/>
<path d="M3078 5443 c-10 -2 -18 -9 -18 -14 0 -6 7 -6 18 -1 9 5 24 12 32 15
13 5 13 5 0 5 -8 0 -23 -2 -32 -5z"/>
<path d="M3390 5422 c6 -13 14 -21 18 -18 3 4 -2 14 -12 24 -18 16 -18 16 -6
-6z"/>
<path d="M3807 5434 c-3 -4 1 -20 9 -36 9 -17 13 -41 10 -53 -3 -13 -2 -26 3
-30 6 -3 6 -18 0 -38 -12 -42 -11 -60 1 -52 6 4 8 11 4 16 -3 5 -2 15 3 22 12
16 14 55 3 62 -6 3 -5 16 0 30 6 16 5 25 -3 28 -6 2 -11 16 -9 30 2 26 -7 34
-21 21z"/>
<path d="M2830 5419 c0 -5 5 -7 10 -4 6 3 10 8 10 11 0 2 -4 4 -10 4 -5 0 -10
-5 -10 -11z"/>
<path d="M3014 5414 c-18 -14 -18 -14 6 -3 31 14 36 19 24 19 -6 0 -19 -7 -30
-16z"/>
<path d="M3723 5408 c-22 -25 -41 -84 -23 -73 5 3 10 -1 10 -10 0 -12 -6 -15
-19 -10 -23 7 -51 -28 -51 -64 0 -13 -3 -21 -7 -18 -6 6 -33 -37 -33 -53 0
-17 39 -16 54 1 9 11 16 22 16 26 0 3 12 31 27 61 15 30 28 62 30 71 1 9 4 28
7 43 2 15 7 32 11 37 11 18 0 12 -22 -11z m-83 -208 c-6 -11 -13 -20 -16 -20
-2 0 0 9 6 20 6 11 13 20 16 20 2 0 0 -9 -6 -20z"/>
<path d="M3465 5410 c3 -5 14 -10 23 -10 15 0 15 2 2 10 -20 13 -33 13 -25 0z"/>
<path d="M2950 5406 c0 -2 7 -7 16 -10 8 -3 12 -2 9 4 -6 10 -25 14 -25 6z"/>
<path d="M3115 5400 c-3 -5 -1 -10 4 -10 6 0 11 5 11 10 0 6 -2 10 -4 10 -3 0
-8 -4 -11 -10z"/>
<path d="M3315 5399 c-4 -6 -5 -12 -2 -15 2 -3 7 2 10 11 7 17 1 20 -8 4z"/>
<path d="M4113 5393 c-15 -5 -17 -86 -3 -118 7 -18 9 -17 19 10 6 17 16 39 22
49 9 15 8 18 -4 13 -9 -3 -18 1 -21 9 -9 22 -8 24 8 18 8 -3 17 -1 20 4 7 11
-22 21 -41 15z"/>
<path d="M2860 5375 c-14 -16 -10 -18 14 -9 9 3 16 10 16 15 0 14 -16 11 -30
-6z"/>
<path d="M3407 5370 c3 -11 7 -20 9 -20 2 0 4 9 4 20 0 11 -4 20 -9 20 -5 0
-7 -9 -4 -20z"/>
<path d="M2969 5364 c-8 -9 -5 -11 11 -7 25 7 35 20 14 20 -8 0 -19 -6 -25
-13z"/>
<path d="M3793 5325 c0 -33 2 -45 4 -27 2 18 2 45 0 60 -2 15 -4 0 -4 -33z"/>
<path d="M3870 5360 c0 -13 18 -22 24 -11 3 5 -1 11 -9 15 -8 3 -15 1 -15 -4z"/>
<path d="M3310 5350 c0 -5 5 -10 10 -10 6 0 10 5 10 10 0 6 -4 10 -10 10 -5 0
-10 -4 -10 -10z"/>
<path d="M3760 5349 c0 -5 5 -7 10 -4 6 3 10 8 10 11 0 2 -4 4 -10 4 -5 0 -10
-5 -10 -11z"/>
<path d="M2905 5340 c-3 -6 1 -7 9 -4 18 7 21 14 7 14 -6 0 -13 -4 -16 -10z"/>
<path d="M3265 5340 c-3 -5 -12 -7 -19 -4 -8 3 -17 1 -21 -5 -4 -7 1 -8 12 -4
17 6 17 5 -1 -15 -31 -36 -14 -33 24 4 19 19 29 34 23 34 -7 0 -14 -4 -18 -10z"/>
<path d="M3520 5340 c-9 -6 -10 -10 -3 -10 6 0 15 5 18 10 8 12 4 12 -15 0z"/>
<path d="M3577 5330 c-14 -11 -30 -20 -35 -20 -5 0 -15 -7 -22 -15 -7 -9 -15
-14 -17 -11 -2 2 -15 -6 -27 -17 -27 -24 -24 -47 5 -42 26 5 126 92 126 110 0
19 1 19 -30 -5z"/>
<path d="M3759 5327 c-4 -20 -15 -49 -49 -129 -16 -39 -24 -70 -19 -74 17 -10
36 15 50 64 7 26 13 49 14 52 9 29 16 82 11 87 -3 4 -7 3 -7 0z"/>
<path d="M3886 5321 c-9 -14 0 -71 13 -84 6 -6 11 -7 11 -1 0 6 -5 15 -12 22
-9 9 -9 12 1 12 10 0 11 3 2 14 -6 7 -9 21 -5 30 6 17 -1 22 -10 7z"/>
<path d="M2896 5303 c-6 -14 -5 -15 5 -6 7 7 10 15 7 18 -3 3 -9 -2 -12 -12z"/>
<path d="M3380 5305 c0 -8 2 -15 4 -15 2 0 6 7 10 15 3 8 1 15 -4 15 -6 0 -10
-7 -10 -15z"/>
<path d="M3582 5269 c-18 -16 -30 -29 -27 -29 3 0 -4 -9 -15 -20 -11 -11 -20
-26 -20 -32 0 -7 23 10 51 38 56 56 65 91 11 43z"/>
<path d="M3944 5285 c10 -8 23 -12 27 -9 5 3 9 0 9 -5 0 -6 -5 -11 -11 -11
-24 0 0 -25 24 -25 32 -1 44 22 16 30 -11 4 -19 9 -16 11 2 3 16 0 31 -5 34
-13 34 0 0 16 -18 8 -32 9 -45 3 -12 -7 -20 -7 -24 0 -3 5 -12 10 -18 10 -7 0
-3 -7 7 -15z"/>
<path d="M4193 5268 c-5 -7 -13 -21 -17 -32 -5 -15 -9 -16 -21 -6 -18 15 -20
3 -2 -15 11 -10 17 -7 37 21 21 32 24 59 3 32z"/>
<path d="M2690 5260 c0 -5 5 -10 10 -10 6 0 10 5 10 10 0 6 -4 10 -10 10 -5 0
-10 -4 -10 -10z"/>
<path d="M2880 5250 c-9 -16 -8 -18 5 -14 8 4 15 12 15 20 0 20 -7 17 -20 -6z"/>
<path d="M3935 5201 c4 -80 15 -110 15 -42 0 23 4 40 8 37 12 -7 7 34 -5 42
-5 4 -13 14 -16 22 -3 8 -4 -18 -2 -59z"/>
<path d="M3165 5250 c-3 -5 -1 -10 4 -10 6 0 11 5 11 10 0 6 -2 10 -4 10 -3 0
-8 -4 -11 -10z"/>
<path d="M3348 5212 c2 -26 7 -51 12 -55 4 -5 6 13 3 40 -2 26 -7 51 -11 55
-4 4 -5 -14 -4 -40z"/>
<path d="M3781 5244 c0 -11 3 -14 6 -6 3 7 2 16 -1 19 -3 4 -6 -2 -5 -13z"/>
<path d="M3433 5165 c0 -44 2 -61 4 -37 2 23 2 59 0 80 -2 20 -4 1 -4 -43z"/>
<path d="M2825 5219 c-4 -6 -5 -12 -2 -15 2 -3 7 2 10 11 7 17 1 20 -8 4z"/>
<path d="M3124 5208 l-19 -23 23 19 c21 18 27 26 19 26 -2 0 -12 -10 -23 -22z"/>
<path d="M2778 5199 c-14 -8 -18 -22 -17 -62 l1 -52 12 50 c6 28 15 56 19 63
10 14 8 15 -15 1z"/>
<path d="M3886 5175 c-18 -87 -18 -87 14 -55 20 20 29 67 11 55 -5 -3 -11 5
-13 17 -3 17 -6 13 -12 -17z"/>
<path d="M3453 5169 c-1 -10 8 -26 20 -34 27 -19 37 -19 37 1 0 8 -4 12 -10 9
-14 -9 -12 8 3 24 9 11 9 12 0 7 -7 -4 -21 -3 -31 3 -14 8 -18 6 -19 -10z"/>
<path d="M3300 5169 c0 -5 -4 -7 -10 -4 -5 3 -10 1 -10 -4 0 -6 7 -11 15 -11
8 0 15 7 15 15 0 8 -2 15 -5 15 -3 0 -5 -5 -5 -11z"/>
<path d="M3675 5169 c-4 -6 -5 -12 -2 -15 2 -3 7 2 10 11 7 17 1 20 -8 4z"/>
<path d="M3823 5154 c-13 -14 -23 -29 -23 -34 0 -19 45 -3 45 16 1 10 4 25 8
32 13 20 -7 11 -30 -14z"/>
<path d="M4280 5166 c0 -2 7 -7 16 -10 8 -3 12 -2 9 4 -6 10 -25 14 -25 6z"/>
<path d="M4150 5138 c-8 -13 -13 -26 -12 -30 1 -5 -2 -8 -8 -8 -5 0 -10 -4
-10 -10 0 -5 6 -10 14 -10 9 0 12 -7 9 -20 -3 -12 0 -20 6 -20 7 0 9 5 5 11
-3 6 0 15 7 20 10 6 11 9 2 9 -16 0 -17 32 -2 47 6 6 10 16 8 22 -2 6 -11 1
-19 -11z"/>
<path d="M4865 5150 c3 -5 8 -10 11 -10 2 0 4 5 4 10 0 6 -5 10 -11 10 -5 0
-7 -4 -4 -10z"/>
<path d="M4212 5125 c5 -25 -5 -34 -17 -15 -3 6 -11 10 -16 10 -6 0 -7 -4 -4
-10 3 -5 0 -10 -7 -10 -7 0 -1 -11 14 -25 26 -22 29 -23 58 -9 16 9 30 17 30
19 0 9 -36 -2 -43 -13 -5 -7 -13 -10 -18 -6 -6 4 -4 13 7 25 9 10 13 19 8 19
-5 0 -2 5 6 10 11 7 11 10 2 10 -7 0 -10 5 -7 10 3 6 1 10 -6 10 -7 0 -9 -10
-7 -25z"/>
<path d="M4378 5134 c-3 -11 -2 -27 1 -37 6 -16 7 -16 18 2 9 15 9 23 -1 36
-12 17 -13 17 -18 -1z"/>
<path d="M2653 5095 c0 -27 2 -38 4 -22 2 15 2 37 0 50 -2 12 -4 0 -4 -28z"/>
<path d="M3350 5122 c0 -10 7 -19 15 -19 17 0 17 0 9 21 -8 22 -24 20 -24 -2z"/>
<path d="M3740 5123 c0 -13 4 -23 9 -23 11 0 24 31 16 38 -3 3 -5 -1 -5 -9 0
-11 -2 -11 -10 1 -8 12 -10 11 -10 -7z"/>
<path d="M4257 5120 c3 -11 7 -20 9 -20 2 0 4 9 4 20 0 11 -4 20 -9 20 -5 0
-7 -9 -4 -20z"/>
<path d="M4420 5130 c0 -5 5 -10 10 -10 6 0 10 5 10 10 0 6 -4 10 -10 10 -5 0
-10 -4 -10 -10z"/>
<path d="M2700 5119 c0 -5 5 -7 10 -4 6 3 10 8 10 11 0 2 -4 4 -10 4 -5 0 -10
-5 -10 -11z"/>
<path d="M3967 5110 c-3 -11 -1 -20 4 -20 5 0 9 2 9 4 0 2 3 11 6 20 3 9 2 16
-4 16 -5 0 -12 -9 -15 -20z"/>
<path d="M4330 5120 c0 -5 5 -10 11 -10 6 0 9 -8 7 -17 -2 -10 5 -26 16 -35
28 -26 43 -22 19 5 -11 12 -24 32 -28 45 -6 22 -25 31 -25 12z"/>
<path d="M3460 5095 c-12 -14 -16 -133 -5 -143 5 -5 9 77 5 112 -1 14 3 18 17
14 12 -3 20 0 20 8 0 19 -24 25 -37 9z"/>
<path d="M4015 5090 c-3 -5 -1 -10 4 -10 6 0 11 5 11 10 0 6 -2 10 -4 10 -3 0
-8 -4 -11 -10z"/>
<path d="M4055 5069 c-5 -20 -11 -29 -21 -25 -8 3 -14 2 -14 -2 0 -4 -18 -15
-39 -26 -30 -14 -43 -16 -57 -7 -17 9 -17 10 6 11 14 0 32 5 40 10 11 7 5 8
-20 4 -19 -4 -39 -11 -44 -15 -6 -5 -24 -9 -40 -10 -29 0 -29 -1 -8 -9 12 -5
22 -14 22 -20 0 -5 -10 -10 -22 -11 -22 0 -22 -1 -3 -8 18 -8 17 -10 -15 -25
-19 -9 -24 -13 -11 -10 16 4 21 3 17 -5 -4 -6 0 -11 8 -11 9 0 16 5 16 12 0 6
3 8 7 5 3 -4 17 0 30 8 13 9 23 12 23 7 0 -13 -44 -52 -59 -52 -7 0 -10 -4 -7
-9 7 -11 -31 -45 -81 -70 -53 -26 -76 -27 -43 -1 14 11 18 18 10 15 -9 -3 -32
-7 -53 -8 -30 -3 -37 0 -37 15 0 10 -4 18 -10 18 -5 0 -10 -9 -10 -21 0 -12
-8 -23 -20 -26 -21 -6 -28 -23 -9 -23 17 0 -11 -31 -35 -40 -20 -7 -19 -7 3
-20 13 -6 21 -8 17 -2 -3 6 19 11 55 14 46 3 65 9 78 25 28 36 87 57 66 24 -9
-16 -82 -57 -143 -80 l-54 -21 -34 34 c-38 38 -42 60 -17 88 17 19 16 19 -11
12 -21 -5 -27 -4 -22 5 4 6 16 11 27 11 11 0 18 4 14 9 -7 13 11 23 55 32 33
6 34 7 6 8 -18 1 -46 -10 -68 -25 -38 -27 -61 -27 -40 -1 9 10 8 17 0 25 -9 9
-7 12 8 12 16 0 17 2 4 11 -11 8 -6 9 20 5 19 -3 42 -1 50 4 26 16 0 24 -49
14 -38 -8 -48 -7 -44 2 3 7 19 15 36 17 24 4 23 4 -8 3 -40 -1 -40 -1 -40 -41
0 -22 -4 -46 -9 -54 -6 -9 -5 -12 1 -8 6 4 13 0 17 -8 6 -17 -2 -19 -22 -6 -9
6 -12 22 -8 55 4 33 2 45 -5 40 -8 -4 -9 -26 -6 -63 8 -73 10 -80 29 -116 l17
-30 9 24 c9 24 9 24 14 3 3 -12 1 -20 -4 -19 -10 2 -15 -6 -38 -55 -11 -23
-16 -26 -34 -17 -19 9 -20 9 -3 -4 16 -14 16 -15 -5 -31 -22 -16 -21 -16 8 0
24 13 35 14 50 6 18 -11 18 -11 -3 -12 -13 0 -23 -4 -23 -10 0 -5 -7 -10 -16
-10 -8 0 -12 -5 -9 -10 3 -6 -1 -13 -11 -17 -14 -5 -13 -8 7 -20 13 -8 17 -12
8 -10 -9 3 -22 1 -30 -4 -11 -7 -11 -9 -1 -9 7 0 11 -4 7 -9 -3 -6 6 -8 20 -5
20 3 23 1 18 -12 -4 -12 -3 -15 5 -10 13 8 15 -4 6 -28 -5 -12 -9 -13 -19 -3
-7 7 -11 15 -8 20 2 4 2 7 -1 7 -3 0 -13 -14 -22 -31 -15 -31 -15 -32 4 -27
15 4 19 2 15 -8 -3 -8 -1 -14 5 -14 5 0 12 7 16 15 3 8 12 12 20 9 8 -3 17 -1
21 5 3 6 11 11 16 11 6 0 -1 -15 -15 -33 -14 -19 -23 -37 -18 -42 4 -5 2 -6
-3 -2 -6 3 -21 -1 -35 -9 l-25 -13 33 -1 c23 0 40 7 53 23 18 20 19 20 10 1
-11 -22 1 -54 13 -35 14 23 46 12 52 -17 3 -16 11 -29 17 -30 7 0 22 -4 35 -7
14 -5 22 -3 22 4 0 24 29 10 32 -16 2 -16 8 -27 13 -25 6 2 9 11 8 20 -1 10 0
11 3 5 8 -19 24 -16 45 9 23 25 25 42 4 34 -8 -3 -22 -9 -30 -12 -17 -7 -19 4
-6 25 5 8 14 10 21 6 9 -5 11 -4 6 3 -4 7 -21 12 -37 12 -20 0 -28 4 -23 11 3
6 0 15 -7 20 -20 12 -3 23 37 22 24 -1 34 3 31 11 -6 16 58 60 77 53 8 -3 17
-1 20 6 3 7 18 -3 39 -25 39 -42 71 -48 88 -17 13 26 3 38 -37 45 -16 3 -35
11 -43 19 -12 12 -11 13 10 9 18 -4 21 -3 10 4 -20 14 9 21 114 26 44 2 82 5
85 6 3 1 8 2 13 1 4 -1 23 5 41 13 19 8 37 12 40 8 3 -3 6 -1 6 5 0 6 -7 13
-15 17 -8 3 -15 2 -15 -3 0 -4 -11 -6 -25 -3 -14 2 -25 0 -25 -7 0 -5 -6 -8
-14 -5 -8 3 -17 0 -21 -5 -3 -6 -11 -8 -17 -5 -6 4 -13 2 -17 -4 -9 -16 -61
-3 -54 14 3 9 -2 14 -16 14 -24 0 -27 10 -8 29 10 11 9 15 -2 19 -10 3 -8 9
10 23 13 10 18 19 12 19 -18 0 -16 20 4 42 10 11 18 39 20 65 2 36 9 53 29 71
l27 25 17 -23 c12 -16 23 -21 36 -16 18 7 18 8 2 17 -22 12 -24 31 -2 22 9 -3
19 -15 23 -26 8 -20 8 -20 14 2 3 13 3 20 0 17 -4 -3 -14 1 -24 10 -13 12 -22
13 -38 5 -16 -9 -22 -8 -29 6 -9 14 -13 15 -26 4 -9 -7 -13 -18 -9 -25 4 -8 3
-8 -5 -1 -7 6 -14 25 -16 43 -4 34 9 42 34 20 9 -8 7 -3 -3 14 -11 18 -15 37
-11 57 5 25 3 31 -11 31 -14 0 -13 3 6 20 13 10 20 19 16 20 -4 0 -3 9 3 20 6
12 7 20 1 20 -5 0 -12 -14 -16 -31z m-60 -79 c-10 -11 -20 -18 -22 -16 -6 5
30 44 36 39 2 -1 -4 -12 -14 -23z m5 -120 c0 -5 -2 -10 -4 -10 -3 0 -8 5 -11
10 -3 6 -1 10 4 10 6 0 11 -4 11 -10z m-15 -79 c-6 -21 -98 -121 -110 -121 -5
0 2 12 16 26 13 14 22 28 20 31 -2 3 9 21 24 41 16 19 30 45 31 56 4 32 5 33
15 7 5 -13 7 -31 4 -40z m-482 -27 c-8 -20 -20 -6 -28 31 l-6 30 20 -23 c11
-13 17 -30 14 -38z m147 16 c0 -5 -2 -10 -4 -10 -3 0 -8 5 -11 10 -3 6 -1 10
4 10 6 0 11 -4 11 -10z m-142 -120 c-7 -11 -17 -20 -22 -20 -5 0 -1 9 9 20 10
11 20 20 22 20 2 0 -2 -9 -9 -20z m17 -160 c-16 -16 -31 -27 -34 -25 -6 6 52
63 58 58 3 -2 -8 -17 -24 -33z m468 33 c-7 -2 -19 -2 -25 0 -7 3 -2 5 12 5 14
0 19 -2 13 -5z m-348 -212 c-3 -6 -15 -11 -26 -11 -11 0 -17 5 -14 10 4 6 10
8 15 5 5 -3 12 0 15 6 4 5 9 8 12 5 3 -2 2 -9 -2 -15z"/>
<path d="M4283 5074 c0 -16 23 -19 31 -5 3 5 -2 11 -12 13 -11 3 -19 0 -19 -8z"/>
<path d="M2070 5070 c0 -5 5 -10 11 -10 5 0 7 5 4 10 -3 6 -8 10 -11 10 -2 0
-4 -4 -4 -10z"/>
<path d="M3943 5067 c-47 -18 -49 -25 -4 -17 22 4 44 3 49 -2 5 -5 15 -2 23 8
8 10 9 15 2 11 -6 -4 -14 -3 -18 3 -7 12 -11 12 -52 -3z"/>
<path d="M4830 5060 c0 -5 5 -10 10 -10 6 0 10 5 10 10 0 6 -4 10 -10 10 -5 0
-10 -4 -10 -10z"/>
<path d="M4322 5048 c-19 -19 -14 -33 13 -36 14 -1 25 3 25 8 0 6 -10 10 -22
10 -18 0 -20 2 -8 10 8 5 12 11 9 14 -3 3 -11 0 -17 -6z"/>
<path d="M3480 5018 c0 -45 13 -62 40 -53 12 4 74 9 138 11 167 5 165 5 155
15 -15 15 -83 23 -83 10 0 -6 -5 -11 -11 -11 -5 0 -7 5 -4 10 3 6 -3 10 -14
10 -12 0 -21 -7 -21 -15 0 -8 -6 -15 -14 -15 -8 0 -13 8 -12 18 1 12 -8 18
-27 20 -17 2 -25 8 -21 14 5 8 1 9 -10 5 -10 -4 -26 -7 -36 -7 -10 0 -22 -9
-25 -20 -3 -11 -14 -20 -23 -20 -15 1 -14 3 2 15 19 15 19 15 -2 15 -15 0 -20
5 -16 15 4 8 1 15 -5 15 -6 0 -11 -15 -11 -32z m104 -30 c-9 -14 -23 2 -17 18
4 12 8 13 14 3 4 -7 5 -17 3 -21z m41 2 c3 -5 -1 -10 -9 -10 -9 0 -16 5 -16
10 0 6 4 10 9 10 6 0 13 -4 16 -10z"/>
<path d="M3850 5046 c0 -2 7 -6 15 -10 8 -3 15 -1 15 4 0 6 -7 10 -15 10 -8 0
-15 -2 -15 -4z"/>
<path d="M4171 5046 c2 -2 15 -9 29 -15 24 -11 24 -11 6 3 -16 13 -49 24 -35
12z"/>
<path d="M2846 5032 c-2 -4 -1 -14 3 -21 6 -10 10 -9 14 3 6 16 -8 32 -17 18z"/>
<path d="M4243 5025 c0 -8 4 -12 9 -9 4 3 8 9 8 15 0 5 -4 9 -8 9 -5 0 -9 -7
-9 -15z"/>
<path d="M4380 5001 c0 -23 -16 -28 -23 -8 -2 6 -8 9 -12 5 -4 -4 -2 -15 5
-23 13 -16 22 -16 65 0 16 6 15 2 -7 -19 -28 -27 -44 -35 -32 -14 4 7 3 8 -4
4 -20 -12 -13 -36 10 -36 21 0 21 0 3 -14 -17 -12 -18 -17 -7 -40 7 -15 17
-24 23 -21 7 5 5 11 -5 18 -13 10 -13 14 0 25 9 8 14 9 14 2 0 -6 5 -8 10 -5
16 10 12 45 -5 45 -8 0 -15 4 -15 9 0 6 10 8 22 6 25 -5 42 14 27 31 -5 7 -8
18 -7 25 3 15 -5 15 -36 3 -13 -5 -17 -4 -12 4 3 6 2 13 -4 17 -5 3 -10 -3
-10 -14z"/>
<path d="M4074 4999 c-3 -6 -1 -16 5 -22 8 -8 11 -5 11 11 0 24 -5 28 -16 11z"/>
<path d="M4105 5000 c-3 -6 1 -7 9 -4 18 7 21 14 7 14 -6 0 -13 -4 -16 -10z"/>
<path d="M4191 4994 c0 -11 3 -14 6 -6 3 7 2 16 -1 19 -3 4 -6 -2 -5 -13z"/>
<path d="M4881 4994 c0 -11 3 -14 6 -6 3 7 2 16 -1 19 -3 4 -6 -2 -5 -13z"/>
<path d="M4233 4987 c3 -9 1 -18 -6 -21 -7 -2 -4 -5 6 -5 19 -1 23 24 5 35 -7
5 -9 2 -5 -9z"/>
<path d="M4299 4963 c-13 -16 -12 -17 4 -4 9 7 17 15 17 17 0 8 -8 3 -21 -13z"/>
<path d="M4139 4958 c-8 -28 -5 -35 15 -30 18 5 18 7 3 10 -9 2 -15 8 -12 13
4 5 4 9 1 9 -3 0 -6 -1 -7 -2z"/>
<path d="M4080 4940 c0 -5 5 -10 10 -10 6 0 10 5 10 10 0 6 -4 10 -10 10 -5 0
-10 -4 -10 -10z"/>
<path d="M3663 4918 c-5 -10 35 -8 67 2 20 7 16 8 -18 7 -24 -1 -46 -5 -49 -9z"/>
<path d="M3705 4896 c-22 -6 -35 -15 -30 -18 6 -4 29 2 50 12 46 21 38 24 -20
6z"/>
<path d="M4215 4900 c-3 -5 -2 -10 4 -10 5 0 13 5 16 10 3 6 2 10 -4 10 -5 0
-13 -4 -16 -10z"/>
<path d="M4271 4894 c0 -11 3 -14 6 -6 3 7 2 16 -1 19 -3 4 -6 -2 -5 -13z"/>
<path d="M3820 4890 c-9 -6 -10 -10 -3 -10 6 0 15 5 18 10 8 12 4 12 -15 0z"/>
<path d="M4297 4881 c-3 -14 -1 -18 9 -14 8 3 14 11 14 19 0 21 -17 17 -23 -5z"/>
<path d="M3748 4863 c-10 -2 -18 -9 -18 -14 0 -15 43 -7 48 9 4 12 0 13 -30 5z"/>
<path d="M4430 4859 c0 -5 5 -7 10 -4 6 3 10 8 10 11 0 2 -4 4 -10 4 -5 0 -10
-5 -10 -11z"/>
<path d="M3590 4829 c0 -5 5 -7 10 -4 6 3 10 8 10 11 0 2 -4 4 -10 4 -5 0 -10
-5 -10 -11z"/>
<path d="M4225 4810 c-3 -6 1 -7 9 -4 18 7 21 14 7 14 -6 0 -13 -4 -16 -10z"/>
<path d="M4342 4804 c-7 -8 -17 -12 -23 -9 -5 4 -9 -1 -9 -9 0 -17 21 -22 34
-8 4 4 13 7 19 7 16 0 20 22 5 28 -7 2 -19 -2 -26 -9z"/>
<path d="M4424 4778 c-45 -65 -45 -66 -34 -73 5 -3 14 4 19 17 9 25 41 57 41
42 0 -5 5 -1 11 9 6 10 6 23 1 33 -7 12 -14 7 -38 -28z"/>
<path d="M4907 4803 c-4 -3 -7 -16 -6 -27 0 -19 1 -19 10 3 10 24 8 36 -4 24z"/>
<path d="M4111 4772 c-14 -20 -17 -32 -10 -43 9 -12 10 -12 6 1 -2 8 3 22 12
30 15 14 26 40 17 40 -3 0 -14 -13 -25 -28z"/>
<path d="M4240 4787 c0 -4 5 -16 12 -27 17 -26 2 -38 -18 -14 -13 16 -15 16
-10 2 3 -10 1 -20 -5 -23 -5 -4 -8 -1 -7 7 2 7 -7 14 -18 16 -17 2 -25 -5 -34
-30 -7 -18 -12 -44 -12 -58 0 -23 0 -23 -5 -2 -2 12 -9 19 -15 16 -6 -4 -5 3
2 17 7 15 -2 8 -24 -16 -19 -22 -35 -46 -36 -54 0 -11 -4 -10 -14 4 -17 24
-50 13 -43 -15 3 -11 1 -18 -4 -14 -5 3 -9 0 -9 -7 0 -7 8 -9 23 -5 29 9 50
14 60 15 5 1 6 5 3 10 -3 5 3 11 14 14 11 3 18 1 14 -4 -9 -15 12 -10 37 10
13 10 41 26 62 36 35 16 49 35 27 35 -5 0 -10 5 -10 10 0 6 12 2 27 -7 15 -10
24 -12 20 -5 -6 8 -2 12 10 12 24 0 43 19 36 36 -8 22 -22 16 -16 -7 5 -17 2
-20 -13 -17 -10 2 -18 9 -17 14 1 5 -7 21 -18 34 -10 14 -19 22 -19 17z m-44
-75 c1 -15 -1 -21 -3 -14 -4 10 -9 8 -19 -5 -12 -14 -11 -11 1 15 8 17 17 32
18 32 1 0 3 -12 3 -28z"/>
<path d="M4940 4773 c0 -10 5 -25 10 -33 8 -12 10 -9 10 12 0 15 -4 30 -10 33
-5 3 -10 -2 -10 -12z"/>
<path d="M2779 4763 c-13 -16 -12 -17 4 -4 9 7 17 15 17 17 0 8 -8 3 -21 -13z"/>
<path d="M4575 4770 c3 -5 8 -10 11 -10 2 0 4 5 4 10 0 6 -5 10 -11 10 -5 0
-7 -4 -4 -10z"/>
<path d="M4475 4744 c-9 -15 -12 -23 -6 -20 11 7 35 46 28 46 -3 0 -12 -12
-22 -26z"/>
<path d="M4920 4761 c0 -6 4 -13 10 -16 6 -3 7 1 4 9 -7 18 -14 21 -14 7z"/>
<path d="M4850 4731 c0 -11 -7 -27 -16 -35 -14 -15 -14 -16 0 -16 9 0 16 7 16
16 0 9 5 12 12 8 7 -5 9 -2 5 8 -3 9 0 21 6 27 8 8 7 11 -6 11 -10 0 -17 -8
-17 -19z"/>
<path d="M4897 4726 c-10 -26 -8 -43 3 -26 8 12 10 12 10 1 0 -8 2 -12 5 -9 3
3 2 15 -3 28 -8 20 -9 21 -15 6z"/>
<path d="M2786 4705 c-3 -8 -1 -15 3 -15 5 0 11 7 15 15 3 8 1 15 -3 15 -5 0
-11 -7 -15 -15z"/>
<path d="M3610 4710 c0 -5 7 -7 15 -4 8 4 15 8 15 10 0 2 -7 4 -15 4 -8 0 -15
-4 -15 -10z"/>
<path d="M2884 4695 c3 -21 16 -31 16 -12 0 9 -4 18 -9 21 -5 4 -8 -1 -7 -9z"/>
<path d="M4032 4689 c-12 -19 -11 -19 8 -9 11 6 18 15 15 21 -8 12 -8 12 -23
-12z"/>
<path d="M4970 4690 c0 -5 5 -10 11 -10 5 0 7 5 4 10 -3 6 -8 10 -11 10 -2 0
-4 -4 -4 -10z"/>
<path d="M3460 4680 c0 -5 5 -10 10 -10 6 0 10 5 10 10 0 6 -4 10 -10 10 -5 0
-10 -4 -10 -10z"/>
<path d="M4675 4659 c-20 -18 -33 -34 -30 -37 2 -3 -1 -12 -8 -20 -9 -12 -6
-12 14 2 42 26 89 38 89 20 0 -7 -12 -16 -27 -20 -63 -14 -63 -14 -50 -35 6
-10 18 -17 25 -14 7 2 24 0 38 -6 34 -12 45 -3 13 11 l-24 11 23 -5 c17 -3 22
-1 18 9 -3 10 0 12 11 8 12 -5 14 -3 8 8 -8 12 -6 12 8 0 9 -7 17 -22 17 -32
0 -11 5 -19 11 -19 6 0 8 8 4 20 -8 26 11 60 34 60 23 0 35 26 15 34 -7 3 -13
0 -11 -6 1 -6 -4 -13 -10 -15 -8 -3 -13 4 -13 16 0 12 -5 21 -11 21 -7 0 -9
-10 -7 -25 3 -14 -1 -30 -8 -35 -18 -16 -29 7 -12 27 12 15 11 15 -8 3 -19
-12 -24 -11 -39 3 -15 15 -19 16 -47 1 -43 -22 -46 -10 -4 16 20 12 36 24 36
26 0 12 -23 0 -55 -27z"/>
<path d="M1783 4651 c0 -11 5 -18 9 -15 4 3 5 11 1 19 -7 21 -12 19 -10 -4z"/>
<path d="M4878 4663 c7 -3 16 -2 19 1 4 3 -2 6 -13 5 -11 0 -14 -3 -6 -6z"/>
<path d="M2885 4650 c4 -6 11 -8 16 -5 14 9 11 15 -7 15 -8 0 -12 -5 -9 -10z"/>
<path d="M2725 4641 c-3 -5 -1 -12 4 -15 5 -3 11 1 15 9 6 16 -9 21 -19 6z"/>
<path d="M3055 4631 c-3 -5 -1 -12 5 -16 5 -3 10 1 10 9 0 18 -6 21 -15 7z"/>
<path d="M4886 4623 c-6 -14 -5 -15 5 -6 7 7 10 15 7 18 -3 3 -9 -2 -12 -12z"/>
<path d="M2770 4619 c0 -5 5 -7 10 -4 6 3 10 8 10 11 0 2 -4 4 -10 4 -5 0 -10
-5 -10 -11z"/>
<path d="M4440 4616 c0 -14 -71 -66 -90 -66 -5 0 -10 -5 -10 -11 0 -5 -4 -8
-9 -5 -5 3 -42 -6 -82 -20 -70 -24 -92 -25 -149 -9 -24 7 -24 7 -5 -8 14 -12
16 -16 6 -17 -8 0 -11 -3 -7 -7 8 -8 96 -4 111 5 10 6 15 8 46 10 9 1 26 11
39 22 24 21 46 27 35 10 -9 -14 1 -12 38 6 58 29 96 63 94 84 -1 22 -17 28
-17 6z"/>
<path d="M3120 4602 c6 -13 14 -21 18 -18 3 4 -2 14 -12 24 -18 16 -18 16 -6
-6z"/>
<path d="M4345 4594 c-16 -9 -43 -23 -58 -31 -16 -8 -26 -17 -23 -20 6 -6 79
19 87 30 3 4 12 7 19 5 7 -2 14 5 15 15 4 21 -2 21 -40 1z"/>
<path d="M4877 4570 c20 -35 29 -37 36 -10 3 11 2 18 -3 15 -4 -3 -13 2 -20
10 -22 27 -32 16 -13 -15z"/>
<path d="M5085 4589 c-4 -6 -5 -12 -2 -15 2 -3 7 2 10 11 7 17 1 20 -8 4z"/>
<path d="M4830 4561 c0 -19 55 -50 67 -37 3 3 0 6 -8 6 -9 0 -24 7 -35 16 -18
14 -18 15 6 8 22 -6 23 -5 8 10 -22 21 -38 20 -38 -3z"/>
<path d="M1932 4540 c0 -19 2 -27 5 -17 2 9 2 25 0 35 -3 9 -5 1 -5 -18z"/>
<path d="M4770 4550 c0 -11 2 -20 4 -20 2 0 6 9 9 20 3 11 1 20 -4 20 -5 0 -9
-9 -9 -20z"/>
<path d="M2775 4550 c-3 -5 -1 -10 4 -10 6 0 11 5 11 10 0 6 -2 10 -4 10 -3 0
-8 -4 -11 -10z"/>
<path d="M4942 4535 c0 -16 2 -22 5 -12 2 9 2 23 0 30 -3 6 -5 -1 -5 -18z"/>
<path d="M5060 4549 c0 -5 5 -7 10 -4 6 3 10 8 10 11 0 2 -4 4 -10 4 -5 0 -10
-5 -10 -11z"/>
<path d="M4600 4540 c-8 -5 -12 -11 -10 -14 3 -2 14 2 24 10 22 15 10 19 -14
4z"/>
<path d="M2795 4530 c-3 -5 -2 -10 4 -10 5 0 13 5 16 10 3 6 2 10 -4 10 -5 0
-13 -4 -16 -10z"/>
<path d="M4700 4537 c0 -3 15 -10 32 -16 18 -6 28 -7 23 -2 -12 10 -55 25 -55
18z"/>
<path d="M4618 4513 c-3 -10 1 -34 8 -53 10 -27 13 -30 13 -12 1 12 6 22 12
22 5 0 7 6 3 13 -6 10 -4 10 7 0 10 -10 10 -16 1 -25 -7 -7 -13 -43 -13 -82
l-1 -71 -10 45 c-6 25 -16 65 -23 90 l-12 45 -7 -41 c-5 -28 -2 -53 9 -80 14
-37 15 -97 1 -136 -14 -40 -15 -48 -6 -53 4 -3 11 1 13 7 4 10 6 10 6 1 1 -7
8 -13 16 -13 30 0 16 -36 -22 -57 -30 -17 -38 -16 -23 2 17 21 3 39 -18 23
-15 -11 -15 -11 -6 2 6 8 10 32 8 53 -2 21 1 35 6 32 10 -6 22 23 15 36 -3 5
-1 18 5 29 8 15 7 27 -3 47 -8 16 -17 45 -21 66 -7 37 -22 47 -43 26 -6 -6
-22 -7 -38 -3 -15 4 -22 9 -17 13 7 4 4 15 -8 31 -16 21 -20 22 -36 10 -9 -8
-20 -14 -23 -13 -3 1 -33 -6 -66 -16 -33 -10 -80 -22 -105 -26 -63 -9 -80 -15
-80 -26 0 -6 5 -7 10 -4 6 3 10 1 10 -4 0 -11 -35 -10 -46 2 -15 15 -44 6 -60
-19 -16 -24 -16 -27 3 -52 13 -18 31 -28 54 -30 19 -2 40 -8 46 -14 9 -7 13
-7 13 1 0 6 5 11 11 11 5 0 7 -4 4 -10 -3 -5 -1 -10 4 -10 6 0 11 5 11 10 0
13 47 13 55 0 4 -6 16 -8 28 -4 16 4 19 3 12 -5 -6 -5 -38 -12 -71 -14 -33 -2
-66 -7 -72 -11 -7 -4 -12 -3 -12 1 0 5 -11 10 -25 11 -14 1 -25 -3 -25 -8 0
-6 7 -10 15 -10 8 0 15 -5 15 -11 0 -5 -4 -7 -10 -4 -6 4 -7 -1 -3 -11 5 -14
2 -16 -20 -12 -15 3 -27 2 -27 -3 0 -4 10 -10 23 -12 12 -3 2 -4 -22 -2 -35 3
-48 -1 -63 -18 -14 -15 -21 -18 -24 -9 -3 6 -11 9 -17 5 -7 -4 -14 -8 -17 -9
-3 0 -13 -4 -22 -8 -22 -10 -24 -30 -3 -22 8 3 15 1 15 -4 0 -14 60 -42 76
-36 8 3 14 1 14 -4 0 -5 7 -6 17 -3 11 4 14 3 9 -5 -7 -12 -3 -13 92 -17 18
-1 36 -6 40 -10 7 -7 -109 -1 -153 9 -11 2 -51 18 -88 35 -38 17 -72 29 -76
26 -5 -2 -26 9 -46 25 -41 33 -54 38 -35 15 7 -8 9 -15 6 -15 -4 0 -2 -9 4
-20 8 -15 17 -19 30 -15 12 4 27 -1 40 -13 13 -12 30 -17 45 -14 30 5 31 2 4
-29 l-21 -24 22 -14 21 -14 -23 -24 -23 -25 27 7 c20 5 29 2 37 -13 6 -12 11
-28 11 -36 0 -23 -21 -20 -27 4 -6 23 -6 23 -55 10 -44 -13 -60 -40 -23 -40
14 0 25 -4 25 -8 0 -10 -31 -9 -48 2 -8 4 -11 14 -8 22 3 9 -1 14 -13 14 -30
0 -52 11 -45 22 4 6 10 5 15 -3 4 -7 11 -11 14 -7 4 3 -1 18 -11 33 -16 24
-18 25 -33 10 -15 -14 -14 -18 2 -48 11 -18 15 -29 11 -25 -4 4 -13 3 -20 -3
-8 -6 -20 -9 -27 -6 -8 3 -20 1 -28 -4 -10 -6 -7 -9 14 -9 15 0 27 -5 27 -10
0 -6 6 -10 13 -9 6 1 19 0 27 -4 8 -3 39 -13 68 -22 29 -9 51 -19 49 -21 -2
-2 -22 2 -45 10 -59 21 -297 52 -288 37 3 -4 31 -11 63 -14 32 -4 78 -13 103
-21 39 -13 40 -15 10 -10 -19 3 -42 7 -50 10 -10 2 -16 -3 -17 -14 -1 -12 16
-27 50 -45 60 -31 143 -95 152 -117 5 -12 -23 9 -55 40 -28 27 -129 84 -137
77 -2 -3 6 -11 19 -18 29 -15 158 -139 158 -152 0 -5 -26 18 -57 50 -32 32
-82 74 -110 93 -57 36 -65 45 -32 35 14 -5 19 -3 15 4 -4 5 -19 10 -34 9 -15
-1 -36 2 -47 7 -11 4 -3 -4 17 -19 40 -28 91 -76 81 -76 -3 0 0 -7 7 -15 7 -8
16 -13 20 -10 5 3 12 0 16 -6 5 -8 2 -10 -7 -5 -8 4 -5 0 5 -8 19 -15 19 -16
-9 -16 -15 0 -26 3 -22 6 3 3 0 13 -6 21 -27 33 -103 106 -120 115 -17 9 -17
7 -7 -12 7 -12 10 -31 7 -41 -5 -18 4 -24 27 -20 10 2 26 -19 26 -34 0 -5 -5
-3 -10 5 -8 11 -9 8 -6 -15 2 -16 5 -32 6 -35 1 -3 2 -14 1 -25 -1 -18 0 -18
9 3 5 12 7 30 3 40 -13 35 6 5 27 -42 15 -37 17 -46 5 -36 -11 9 -15 9 -15 1
0 -6 6 -14 14 -17 8 -3 17 -13 20 -21 5 -13 4 -13 -8 -4 -7 6 -21 9 -29 5 -14
-5 -15 -1 -7 28 12 42 13 41 -3 27 -18 -17 -16 -67 3 -79 13 -8 13 -10 -2 -10
-9 0 -18 -6 -21 -12 -2 -7 -4 2 -5 21 0 18 -9 42 -19 54 -10 11 -13 18 -8 15
6 -4 10 8 11 27 1 24 -2 32 -12 28 -8 -3 -14 -16 -14 -29 0 -27 -9 -29 -57
-12 -33 12 -45 35 -18 35 8 0 12 -4 10 -8 -3 -3 5 -9 17 -12 26 -7 24 -9 33
23 7 24 7 24 -8 5 -15 -19 -16 -18 -14 15 2 39 3 39 -88 27 -48 -6 -49 -6 -17
6 18 7 30 15 27 19 -9 9 -85 -31 -84 -45 0 -6 2 -7 5 -2 5 13 125 7 139 -6 7
-7 4 -8 -8 -3 -24 9 -134 -6 -117 -16 10 -6 10 -8 -1 -12 -8 -3 0 -13 19 -27
18 -12 30 -27 26 -32 -6 -11 13 -39 28 -39 5 0 2 7 -7 16 -27 27 -9 27 33 0
33 -20 41 -22 46 -11 4 11 -13 24 -54 45 -33 17 -60 32 -60 33 0 8 128 -40
150 -56 23 -16 24 -18 7 -34 -17 -17 -18 -17 -11 1 5 14 3 17 -7 14 -8 -3 -14
-19 -14 -40 0 -20 3 -34 6 -32 10 6 33 -25 25 -33 -4 -4 -11 -2 -15 6 -5 7
-11 12 -15 12 -19 -3 -26 0 -26 10 0 18 -38 60 -45 50 -3 -6 -11 -8 -18 -6
-15 6 -44 -12 -34 -21 4 -4 18 -2 31 4 25 11 36 7 36 -12 0 -7 -3 -7 -8 0 -5
9 -20 6 -51 -9 l-44 -21 39 -34 c36 -31 54 -72 32 -72 -5 0 -8 6 -6 13 3 14
-48 67 -64 67 -13 0 2 -22 29 -43 13 -10 23 -23 23 -29 0 -6 -9 -3 -20 7 -20
18 -20 17 -20 -8 0 -14 4 -37 10 -51 17 -45 2 -28 -24 26 -14 29 -22 55 -19
58 3 3 8 -1 10 -8 3 -6 9 -9 14 -6 15 9 -10 34 -33 34 -13 0 -17 -4 -12 -12 4
-7 -2 -4 -14 6 -25 22 -28 15 -8 -17 21 -32 27 -124 9 -132 -8 -3 -20 -2 -25
1 -14 9 33 -58 51 -72 8 -6 11 -17 8 -25 -4 -10 -6 -9 -6 4 -1 9 -5 17 -10 17
-4 0 -3 -16 3 -35 6 -19 15 -35 21 -35 5 0 26 -17 47 -37 21 -20 38 -31 38
-25 0 7 -16 28 -35 48 -43 42 -44 48 -5 26 17 -10 36 -33 45 -54 14 -36 23
-43 53 -39 6 1 12 -2 12 -8 0 -5 3 -18 7 -28 7 -17 6 -17 -20 0 -33 21 -34 21
-40 -3 -3 -11 -2 -20 2 -20 4 0 8 -7 8 -15 0 -26 -16 -16 -36 23 -11 21 -27
45 -36 52 -10 8 2 -23 26 -69 35 -65 55 -91 97 -123 30 -22 56 -37 59 -34 3 3
15 -1 25 -9 11 -7 26 -11 33 -9 6 3 18 -2 25 -11 11 -13 15 -13 21 -3 5 7 9
18 9 23 0 6 -4 4 -9 -4 -7 -11 -14 -10 -39 8 -17 11 -35 21 -42 21 -28 0 -101
43 -122 72 l-23 33 38 -22 c20 -12 37 -18 37 -13 0 6 -4 10 -9 10 -6 0 -8 9
-6 19 2 11 -3 22 -11 25 -17 7 -18 -6 -2 -22 9 -9 9 -12 1 -12 -13 0 -26 18
-29 38 -1 6 3 12 9 12 7 0 6 4 -3 10 -8 5 -12 12 -9 15 9 8 68 -28 74 -45 3
-8 20 -22 38 -30 17 -8 31 -21 29 -28 -1 -6 5 -12 14 -12 9 0 12 -5 8 -12 -5
-7 -3 -8 5 -4 7 5 10 14 7 22 -3 8 1 14 9 14 7 0 17 -9 20 -20 3 -11 11 -20
16 -20 13 0 11 14 -3 29 -11 11 -10 13 5 8 22 -8 22 9 0 21 -12 7 -24 5 -39
-4 -20 -14 -24 -13 -50 10 -16 14 -24 26 -17 26 18 0 4 30 -14 30 -12 0 -13
-3 -4 -14 7 -9 8 -17 3 -20 -12 -7 -23 19 -16 37 7 18 36 15 65 -7 14 -10 17
-15 7 -12 -20 6 -31 -17 -15 -33 17 -17 27 -13 20 7 -5 14 -3 15 8 5 19 -18
34 -16 19 2 -7 8 -8 15 -2 15 5 0 15 -7 22 -15 7 -8 23 -15 36 -15 17 0 25 -7
30 -25 3 -13 13 -30 22 -37 15 -12 16 -11 3 5 -8 10 -9 17 -3 17 6 0 14 -4 17
-10 3 -5 15 -10 26 -10 11 0 18 4 14 9 -3 5 -1 12 3 15 11 6 62 -16 62 -26 0
-5 5 -8 11 -8 5 0 7 4 4 10 -4 6 1 7 11 3 11 -4 13 -8 6 -11 -7 -2 -10 -8 -6
-13 9 -15 -13 -10 -26 6 -15 18 -46 20 -56 4 -4 -8 0 -9 15 -4 23 7 28 -4 10
-22 -15 -15 -3 -33 21 -33 10 0 22 -4 25 -10 3 -5 12 -10 18 -10 7 0 6 4 -3
10 -14 9 -7 14 13 11 4 -1 17 5 29 13 17 13 23 13 34 1 20 -19 17 -27 -5 -20
-11 3 -22 1 -26 -5 -3 -5 -3 -10 2 -11 55 -5 93 -4 93 3 0 4 -9 8 -21 8 -11 0
-18 4 -15 9 3 5 -2 12 -11 15 -14 6 -11 10 15 26 18 11 35 27 38 35 4 8 11 15
17 15 5 0 2 -9 -8 -20 -25 -28 -9 -25 27 5 23 19 25 25 11 23 -45 -4 -65 2
-59 17 6 16 -19 22 -28 6 -3 -5 -17 -11 -31 -13 -13 -3 -22 -1 -19 3 3 5 12 9
20 9 8 0 14 5 14 10 0 6 7 10 16 10 8 0 13 4 9 9 -3 6 -23 2 -48 -8 -23 -10
-55 -21 -72 -25 -28 -5 -27 -4 10 16 22 12 51 24 65 25 14 2 33 4 42 5 9 1 15
5 12 9 -2 4 3 13 12 20 13 10 17 10 25 -2 5 -9 9 -10 9 -2 0 6 -5 15 -11 18
-12 8 17 45 35 45 6 0 3 -7 -6 -14 -25 -18 -22 -28 5 -22 12 3 16 3 10 0 -28
-13 -11 -23 30 -18 65 8 72 12 57 29 -11 13 -10 14 6 8 17 -6 18 -5 4 13 -14
18 -14 18 3 5 15 -12 20 -11 37 4 14 12 20 14 20 5 0 -10 3 -10 15 0 10 9 15
9 15 1 0 -9 -10 -14 -30 -13 -3 0 -11 -7 -19 -15 -13 -14 -12 -15 13 -11 l28
6 -27 -24 c-16 -13 -33 -24 -39 -24 -6 0 -2 8 9 17 l20 16 -20 -8 c-47 -17
-78 -24 -86 -19 -5 3 -9 1 -9 -5 0 -6 -6 -8 -13 -5 -8 3 -13 -4 -14 -18 -2
-17 0 -19 7 -9 12 21 52 20 70 -1 8 -10 26 -20 40 -22 14 -1 42 -10 62 -20 34
-16 38 -17 62 -1 14 10 26 19 26 21 0 10 -20 2 -36 -13 -13 -13 -19 -14 -22
-5 -2 6 -10 12 -18 12 -8 0 -14 10 -14 24 0 20 -4 23 -22 18 -23 -5 -23 -5 -4
16 11 12 24 22 30 21 6 0 6 -3 -2 -6 -6 -2 -10 -9 -6 -14 3 -5 14 -5 26 2 16
9 19 8 15 -3 -2 -7 -10 -12 -16 -11 -6 2 -11 -7 -11 -18 0 -20 4 -21 50 -15
45 6 49 5 44 -11 -4 -11 -3 -14 3 -7 4 7 17 14 28 17 18 4 17 5 -3 6 -15 1
-21 5 -16 12 5 8 -1 10 -20 5 -67 -16 -81 -18 -75 -12 4 4 17 9 30 11 13 3 25
9 27 13 1 5 14 7 27 4 17 -3 25 0 25 9 0 8 10 19 23 24 13 6 21 17 19 28 -2
11 4 17 18 17 13 0 20 -6 19 -17 0 -11 -3 -13 -6 -5 -2 6 -9 12 -15 12 -7 0
-6 -5 1 -14 10 -11 7 -17 -10 -30 -13 -8 -21 -18 -18 -20 8 -8 59 43 62 61 1
10 6 24 11 31 11 18 -4 31 -36 34 -22 2 -25 5 -15 18 19 25 20 26 14 8 -8 -23
31 -25 39 -3 4 8 13 15 21 15 11 0 8 -5 -8 -18 l-22 -19 36 1 c20 1 32 5 28 9
-14 14 -1 45 21 50 12 3 17 10 13 17 -4 6 4 23 16 37 22 24 22 26 4 19 -16 -6
-17 -5 -8 5 10 10 15 9 28 -1 12 -10 15 -10 15 3 0 9 -8 21 -17 26 -17 10 -15
11 20 15 6 0 12 7 12 14 0 7 6 16 13 21 7 4 15 23 17 41 2 18 17 49 32 69 17
24 20 30 7 19 -12 -10 -24 -18 -28 -18 -12 0 29 49 42 50 6 0 12 4 12 9 0 5
-19 7 -42 5 -24 -2 -34 -1 -23 2 11 4 23 11 27 18 5 7 8 7 8 0 0 -8 27 -11 48
-5 1 1 -2 9 -7 19 -7 13 -6 23 1 30 18 18 28 14 21 -5 -4 -11 -2 -15 3 -10 11
11 12 67 1 67 -5 0 -5 5 -1 12 4 7 3 8 -4 4 -6 -4 -9 -13 -5 -22 5 -15 -22
-54 -39 -54 -4 0 -8 7 -8 16 0 8 5 12 10 9 6 -3 10 0 10 9 0 8 3 23 6 33 4 11
-2 8 -17 -10 l-24 -28 -14 23 c-13 21 -13 22 2 9 18 -14 22 -7 18 27 -1 6 3
12 9 12 6 0 8 -6 4 -12 -5 -10 -4 -10 6 -1 14 13 4 37 -12 27 -6 -4 0 7 13 25
12 17 27 31 31 31 5 0 6 5 3 11 -4 6 -17 -3 -31 -22 -13 -18 -24 -29 -24 -24
0 5 -7 0 -15 -11 -8 -10 -15 -14 -15 -9 0 6 4 15 10 21 14 14 20 79 8 95 -8
11 -9 10 -4 -3 7 -22 -12 -35 -20 -14 -3 9 -10 14 -14 11 -4 -3 -11 2 -14 11
-3 8 -10 12 -16 9 -5 -3 -10 -2 -10 3 0 6 7 12 15 16 8 3 12 12 9 21 -3 8 -1
15 6 15 6 0 8 -4 5 -10 -3 -5 -1 -10 4 -10 18 0 12 -18 -6 -23 -15 -4 -15 -5
2 -6 15 -1 23 10 35 48 14 44 14 48 0 43 -8 -3 -22 -11 -31 -19 -15 -12 -16
-11 -13 13 3 28 14 46 14 23 0 -8 9 0 20 16 11 17 20 25 20 19 0 -5 -5 -15
-12 -22 -6 -6 -9 -14 -6 -17 3 -3 12 5 21 19 14 21 14 25 2 30 -8 3 -21 -2
-30 -10 -8 -9 -15 -11 -15 -6 0 14 -29 10 -34 -5 -3 -8 -2 -12 3 -9 5 4 7 -3
4 -14 -3 -11 -9 -18 -13 -15 -5 3 -11 -3 -13 -12 -4 -17 -5 -17 -6 0 0 10 6
34 14 54 8 20 14 38 11 40 -5 5 -33 -39 -39 -62 -3 -15 -5 -14 -6 7 0 15 3 29
7 32 7 4 8 23 3 111 l-2 40 -35 -38 c-22 -24 -33 -44 -30 -55 6 -19 -9 -50
-20 -39 -4 3 -1 14 7 24 12 14 9 13 -15 -3 -21 -13 -31 -15 -34 -6 -2 7 -8 10
-13 6 -5 -3 -9 0 -9 6 0 6 14 13 30 17 29 5 110 83 110 105 0 5 4 7 8 4 4 -2
14 -1 22 5 8 5 10 9 4 9 -7 0 -10 12 -8 30 2 16 -1 32 -6 35 -6 4 -10 -9 -10
-31 0 -55 -12 -34 -14 25 -2 55 -12 73 -27 51 -14 -21 -2 24 19 69 9 19 17 62
18 95 1 34 6 80 11 103 11 48 0 61 -30 35 -16 -15 -17 -14 -11 1 3 9 2 17 -4
17 -5 0 -12 -8 -14 -17z m-197 -76 c-10 -9 -11 -8 -5 6 3 10 9 15 12 12 3 -3
0 -11 -7 -18z m186 -29 c-3 -8 -6 -5 -6 6 -1 11 2 17 5 13 3 -3 4 -12 1 -19z
m-55 -68 c-4 -68 -2 -80 12 -80 9 0 16 -4 16 -10 0 -5 -5 -10 -11 -10 -7 0 -9
-11 -5 -30 3 -16 2 -30 -3 -30 -4 0 -11 24 -15 53 -8 72 -8 187 2 187 4 0 6
-36 4 -80z m-302 60 c0 -5 -8 -10 -17 -10 -15 0 -16 2 -3 10 19 12 20 12 20 0z
m69 -37 c-7 -10 -14 -19 -15 -21 -1 -2 -4 4 -8 13 -3 9 -2 13 3 10 5 -3 12 -1
16 5 3 5 9 10 12 10 3 0 -1 -8 -8 -17z m-69 -13 c0 -5 -5 -10 -11 -10 -5 0 -7
5 -4 10 3 6 8 10 11 10 2 0 4 -4 4 -10z m230 -8 c0 -5 -15 -17 -34 -27 -19
-11 -37 -27 -39 -37 -9 -33 -59 -20 -71 18 -5 17 -2 23 16 27 14 4 29 1 37 -8
12 -12 18 -12 43 3 15 9 28 20 28 24 0 4 5 8 10 8 6 0 10 -4 10 -8z m-350 -23
c0 -5 -7 -9 -15 -9 -15 0 -20 12 -9 23 8 8 24 -1 24 -14z m465 1 c3 -5 1 -10
-4 -10 -6 0 -11 5 -11 10 0 6 2 10 4 10 3 0 8 -4 11 -10z m-68 -52 c-2 -13 -4
-5 -4 17 -1 22 1 32 4 23 2 -10 2 -28 0 -40z m-32 12 c-3 -5 -11 -10 -16 -10
-6 0 -7 5 -4 10 3 6 11 10 16 10 6 0 7 -4 4 -10z m-46 -37 c1 9 5 17 10 17 12
0 9 -19 -9 -50 l-13 -25 -8 29 c-9 34 1 59 12 30 7 -17 8 -17 8 -1z m-226 -10
c-23 -3 -33 -9 -32 -21 0 -13 2 -13 6 -3 4 10 9 8 19 -10 7 -13 13 -19 14 -14
0 6 9 11 21 12 36 3 89 24 84 34 -4 5 1 9 9 9 8 0 17 -4 20 -9 3 -5 16 -7 29
-4 20 4 21 3 5 -10 -10 -8 -15 -17 -11 -21 4 -4 -3 -9 -15 -13 -18 -4 -20 -8
-11 -19 9 -11 8 -14 -5 -14 -9 0 -16 -5 -16 -12 0 -21 -12 0 -19 32 l-6 32
-30 -26 c-31 -27 -51 -34 -39 -14 5 8 2 9 -12 3 -45 -19 -83 -13 -63 11 9 11
8 15 -5 20 -9 3 -16 14 -16 23 0 14 10 18 53 18 30 0 38 -1 20 -4z m317 -7 c0
-3 -4 -8 -10 -11 -5 -3 -10 -1 -10 4 0 6 5 11 10 11 6 0 10 -2 10 -4z m-126
-31 c-4 -8 -8 -15 -10 -15 -2 0 -4 7 -4 15 0 8 4 15 10 15 5 0 7 -7 4 -15z
m66 -26 l-25 -21 30 6 30 7 -25 -20 c-20 -16 -26 -17 -28 -6 -5 20 -14 19 -46
-6 -14 -11 -26 -16 -26 -10 0 7 11 17 25 23 14 6 25 15 25 20 0 5 4 7 9 4 4
-3 16 3 26 14 10 11 21 18 24 14 3 -3 -5 -14 -19 -25z m67 -21 c-3 -8 -6 -5
-6 6 -1 11 2 17 5 13 3 -3 4 -12 1 -19z m-429 -11 c7 -5 15 -7 18 -4 10 9 36
-21 29 -33 -3 -5 1 -10 9 -10 8 0 17 -4 21 -9 10 -17 -68 0 -97 20 -15 10 -34
19 -42 19 -9 0 -13 6 -10 14 6 16 53 18 72 3z m-287 -14 c13 -16 12 -17 -3 -4
-17 13 -22 21 -14 21 2 0 10 -8 17 -17z m469 1 c0 -7 -9 -12 -19 -11 -10 0
-17 6 -14 12 5 16 33 15 33 -1z m77 10 c-3 -3 -12 -4 -19 -1 -8 3 -5 6 6 6 11
1 17 -2 13 -5z m-16 -77 c-8 -8 -11 -5 -11 9 0 27 14 41 18 19 2 -9 -1 -22 -7
-28z m219 23 c0 -5 -2 -10 -4 -10 -3 0 -8 5 -11 10 -3 6 -1 10 4 10 6 0 11 -4
11 -10z m-74 -20 c-8 -8 -17 -25 -20 -37 -4 -13 -13 -24 -19 -24 -55 -6 -58
-6 -55 10 2 9 11 17 22 19 18 4 57 37 51 44 -2 2 5 4 15 4 16 0 17 -3 6 -16z
m-176 -27 c0 -8 -4 -12 -9 -9 -5 4 -11 0 -14 -6 -2 -7 -7 -10 -11 -7 -10 10 4
36 19 36 8 0 15 -7 15 -14z m330 -30 c0 -21 -3 -24 -9 -14 -5 8 -7 20 -4 28 8
21 13 15 13 -14z m-385 7 c-3 -5 -11 -10 -16 -10 -6 0 -7 5 -4 10 3 6 11 10
16 10 6 0 7 -4 4 -10z m111 -9 c-3 -5 1 -11 9 -15 15 -5 22 -66 8 -66 -5 0
-19 9 -32 19 -23 17 -23 19 -6 44 15 24 34 40 21 18z m-115 -34 c-10 -9 -11
-8 -5 6 3 10 9 15 12 12 3 -3 0 -11 -7 -18z m-8 -48 c-3 -23 -2 -23 12 -5 14
19 15 19 15 -6 0 -15 -4 -29 -9 -33 -13 -7 -43 24 -35 37 4 6 2 8 -4 5 -6 -5
-8 1 -5 13 7 28 29 19 26 -11z m-207 8 c8 3 35 -8 59 -26 24 -17 50 -31 59
-31 22 0 20 -13 -4 -28 -23 -14 -42 -8 -34 11 2 7 -7 24 -21 37 -21 20 -29 22
-44 13 -21 -13 -42 0 -40 27 0 9 2 10 5 3 3 -7 12 -9 20 -6z m479 5 c-18 -16
-85 -54 -85 -48 0 7 72 55 85 55 6 1 6 -2 0 -7z m-119 -58 c8 3 14 1 14 -4 0
-6 -6 -10 -14 -10 -7 0 -21 -10 -29 -22 l-15 -23 3 25 c2 14 7 36 11 50 l9 25
3 -23 c2 -16 8 -22 18 -18z m-180 15 c7 -12 -15 -31 -28 -23 -9 6 1 34 12 34
5 0 12 -5 16 -11z m126 -9 c-12 -12 -22 -25 -22 -29 0 -5 -9 -11 -19 -14 -28
-7 -17 14 22 41 40 27 48 28 19 2z m-427 0 c3 -5 1 -10 -4 -10 -6 0 -11 5 -11
10 0 6 2 10 4 10 3 0 8 -4 11 -10z m413 -64 c3 -3 2 -9 -2 -13 -4 -4 -11 -1
-16 7 -6 10 -10 11 -10 3 0 -7 11 -20 25 -29 14 -9 25 -20 25 -25 0 -19 -34
-8 -67 21 -19 17 -38 28 -43 25 -6 -3 -7 1 -4 9 4 11 17 14 46 11 22 -2 43 -6
46 -9z m187 -5 c-3 -6 -11 -11 -17 -11 -6 0 -6 6 2 15 14 17 26 13 15 -4z
m-555 -10 c0 -12 -20 -25 -27 -18 -7 7 6 27 18 27 5 0 9 -4 9 -9z m708 -22
c-3 -8 -7 -3 -11 10 -4 17 -3 21 5 13 5 -5 8 -16 6 -23z m-20 -18 c2 -14 0
-21 -7 -17 -5 4 -7 14 -4 23 5 13 2 15 -11 10 -11 -4 -15 -3 -11 4 11 16 30 5
33 -20z m-88 -7 c0 -8 -5 -12 -10 -9 -6 4 -8 11 -5 16 9 14 15 11 15 -7z m35
-12 c-5 -4 -11 -16 -13 -26 -3 -18 -2 -18 13 -2 20 20 25 20 25 2 0 -19 -37
-27 -51 -10 -13 15 3 44 25 44 7 0 7 -3 1 -8z m-245 -12 c0 -5 -5 -10 -11 -10
-5 0 -7 5 -4 10 3 6 8 10 11 10 2 0 4 -4 4 -10z m359 -52 c-12 -23 -21 -24
-12 -1 5 11 3 14 -6 8 -10 -6 -11 -3 -1 15 9 17 14 20 20 9 5 -7 4 -21 -1 -31z
m-199 -3 c-14 -17 -30 -20 -30 -6 0 5 8 12 18 14 9 3 19 5 21 6 2 0 -2 -6 -9
-14z m-756 -76 c18 3 26 0 26 -9 0 -5 -7 -6 -17 -3 -12 5 -14 3 -8 -8 5 -8 -1
-6 -13 5 -12 10 -19 23 -16 28 4 6 9 5 14 -2 4 -6 10 -11 14 -11z m129 4 c-3
-7 -6 -13 -8 -13 -2 0 -5 6 -8 13 -3 8 1 14 8 14 7 0 11 -6 8 -14z m617 -3 c0
-5 -2 -10 -4 -10 -3 0 -8 5 -11 10 -3 6 -1 10 4 10 6 0 11 -4 11 -10z m204
-22 c-10 -16 -22 -7 -17 13 4 15 8 17 14 8 4 -7 5 -17 3 -21z m-54 -19 c0 -9
-6 -22 -14 -28 -11 -10 -16 -8 -21 8 -8 27 13 69 26 50 5 -8 9 -21 9 -30z
m-180 11 c0 -5 -8 -10 -17 -10 -15 0 -16 2 -3 10 19 12 20 12 20 0z m70 0 c0
-5 -8 -10 -17 -10 -15 0 -16 2 -3 10 19 12 20 12 20 0z m-636 -12 c-3 -4 2
-24 11 -44 22 -53 14 -51 -15 5 -22 41 -23 47 -9 47 10 0 15 -4 13 -8z m684
-37 c-2 -7 -15 -15 -30 -17 -24 -2 -27 0 -19 15 11 21 53 23 49 2z m182 6 c0
-2 -13 -15 -28 -30 -21 -20 -29 -23 -29 -12 0 8 3 13 5 10 3 -3 11 4 19 15 12
17 33 28 33 17z m-522 -28 c-2 -6 -8 -10 -13 -10 -5 0 -11 4 -13 10 -2 6 4 11
13 11 9 0 15 -5 13 -11z m543 -3 c5 3 9 0 9 -6 0 -7 -7 -9 -16 -6 -9 3 -18 6
-20 6 -3 0 -2 5 2 12 6 9 9 9 12 0 2 -7 8 -10 13 -6z m-1007 -51 c-4 -8 -10
-12 -15 -9 -14 8 -10 24 6 24 9 0 12 -6 9 -15z m424 -13 c2 -7 -1 -12 -8 -12
-6 0 -9 4 -6 9 4 5 1 12 -4 14 -6 3 -5 4 2 3 6 -1 14 -8 16 -14z m-713 -2 c3
-5 1 -10 -4 -10 -6 0 -11 5 -11 10 0 6 2 10 4 10 3 0 8 -4 11 -10z m815 1 c0
-17 -18 -21 -24 -6 -3 9 0 15 9 15 8 0 15 -4 15 -9z m418 -16 c1 -14 -3 -25
-8 -25 -5 0 -7 7 -4 15 4 9 0 15 -7 15 -11 0 -11 3 1 10 8 5 15 10 15 10 0 0
2 -11 3 -25z m-1288 5 c0 -13 -12 -19 -26 -13 -21 8 -17 19 6 19 11 0 20 -3
20 -6z m76 -37 c-7 -7 -26 7 -26 19 0 6 6 6 15 -2 9 -7 13 -15 11 -17z m85 10
c13 -16 12 -17 -3 -4 -17 13 -22 21 -14 21 2 0 10 -8 17 -17z m375 -15 c6 -18
14 -42 18 -53 4 -11 -3 -2 -15 20 -12 22 -26 42 -30 43 -10 4 -2 22 9 22 4 0
12 -15 18 -32z m373 23 c8 -5 9 -11 3 -15 -5 -3 -15 1 -22 9 -14 16 -3 20 19
6z m301 5 c0 -2 -8 -10 -17 -17 -16 -13 -17 -12 -4 4 13 16 21 21 21 13z m90
-34 c0 -5 -6 -17 -14 -28 -14 -19 -14 -19 -13 1 2 23 27 48 27 27z m-60 -26
c0 -3 -4 -8 -10 -11 -5 -3 -10 -1 -10 4 0 6 5 11 10 11 6 0 10 -2 10 -4z
m-1175 -26 c3 -5 2 -10 -4 -10 -5 0 -13 5 -16 10 -3 6 -2 10 4 10 5 0 13 -4
16 -10z m1215 -18 c-8 -3 -23 -15 -33 -26 -10 -12 -16 -15 -12 -8 7 14 -11 17
-20 2 -13 -21 -23 -9 -12 14 10 21 13 22 26 8 13 -13 16 -12 24 6 6 13 15 18
25 14 13 -5 13 -7 2 -10z m-1273 -8 c0 -6 -9 -9 -19 -6 -28 7 -31 20 -5 18 13
0 24 -6 24 -12z m1177 1 c-4 -8 -11 -15 -16 -15 -6 0 -5 6 2 15 7 8 14 15 16
15 2 0 1 -7 -2 -15z m-1141 -20 c-3 -9 1 -15 11 -15 11 0 15 -8 13 -29 -1 -16
-6 -27 -10 -24 -4 2 -5 13 -2 23 3 11 0 20 -10 24 -8 3 -15 15 -15 26 0 12 4
19 10 15 5 -3 7 -12 3 -20z m-97 -26 c19 -22 19 -22 -3 -10 -24 12 -39 31 -25
31 5 0 17 -10 28 -21z m84 -21 c0 -5 -6 -6 -12 -2 -10 6 -10 4 0 -8 9 -11 11
-29 7 -51 -6 -29 -3 -36 20 -51 18 -12 24 -21 17 -28 -6 -6 -6 -20 1 -39 8
-21 8 -32 0 -40 -7 -7 -9 -3 -6 18 3 19 2 24 -5 15 -7 -10 -11 -10 -22 3 -11
13 -10 15 4 9 9 -3 16 -1 16 5 0 6 -8 11 -17 11 -10 0 -31 11 -48 25 -22 18
-25 23 -10 19 20 -6 20 -5 1 10 -11 9 -15 16 -9 16 7 0 14 8 16 18 3 11 5 9 6
-8 1 -20 3 -22 11 -10 16 25 11 40 -13 40 -13 0 -28 5 -35 12 -9 9 -12 9 -12
1 0 -7 4 -14 9 -17 5 -3 7 -15 4 -26 -7 -28 -14 -19 -23 30 -7 38 -6 40 14 34
11 -4 27 -11 34 -17 9 -7 11 -6 6 7 -3 9 -1 16 5 16 6 0 11 10 11 21 0 18 2
19 15 9 8 -7 15 -17 15 -22z m568 -3 c-3 -3 -9 2 -12 12 -6 14 -5 15 5 6 7 -7
10 -15 7 -18z m-467 -12 c13 -16 12 -17 -3 -4 -17 13 -22 21 -14 21 2 0 10 -8
17 -17z m1074 7 c-3 -5 -11 -10 -16 -10 -6 0 -7 5 -4 10 3 6 11 10 16 10 6 0
7 -4 4 -10z m-1292 -30 c3 -13 1 -20 -5 -18 -6 2 -13 14 -15 27 -4 27 12 20
20 -9z m140 -20 c-7 -25 -23 -37 -23 -16 0 8 5 18 10 21 6 4 7 11 4 17 -4 6
-2 8 4 5 5 -4 8 -16 5 -27z m1134 8 c-3 -8 -6 -5 -6 6 -1 11 2 17 5 13 3 -3 4
-12 1 -19z m-1001 -19 c19 -22 19 -22 -3 -8 -13 8 -23 17 -23 21 0 12 6 9 26
-13z m528 -3 c-5 -12 -44 -19 -44 -9 0 3 33 18 47 22 1 1 0 -5 -3 -13z m388
-18 c-7 -7 -10 -5 -7 8 5 29 6 30 12 16 3 -8 1 -18 -5 -24z m-842 -8 c7 0 10
-3 7 -7 -9 -8 -57 17 -57 30 0 6 8 3 18 -6 10 -10 25 -17 32 -17z m920 20 c0
-5 -9 -14 -20 -20 -24 -13 -26 -7 -4 14 18 18 24 20 24 6z m-520 -16 c0 -2
-11 -4 -25 -4 -14 0 -25 4 -25 9 0 4 11 6 25 3 14 -2 25 -6 25 -8z m-505 -4
c3 -5 1 -10 -4 -10 -6 0 -11 5 -11 10 0 6 2 10 4 10 3 0 8 -4 11 -10z m506
-32 c11 -21 11 -22 -4 -9 -10 7 -17 17 -17 22 0 15 9 10 21 -13z m-530 -15
c13 -16 12 -17 -3 -4 -17 13 -22 21 -14 21 2 0 10 -8 17 -17z m731 -4 c-14 -5
-20 -14 -16 -24 4 -11 2 -14 -9 -9 -8 3 -14 15 -13 28 1 18 6 21 31 17 28 -4
28 -4 7 -12z m-757 1 c3 -5 2 -10 -4 -10 -5 0 -13 5 -16 10 -3 6 -2 10 4 10 5
0 13 -4 16 -10z m586 -13 c-6 -8 -8 -17 -4 -20 3 -4 -7 -7 -23 -6 -26 0 -27 1
-8 9 12 5 25 13 29 19 3 6 9 11 12 11 3 0 0 -6 -6 -13z m-506 -27 c3 -6 -1 -7
-9 -4 -18 7 -21 14 -7 14 6 0 13 -4 16 -10z m370 0 c3 -6 -1 -7 -9 -4 -18 7
-21 14 -7 14 6 0 13 -4 16 -10z m-440 -10 c-6 -10 27 -34 63 -45 16 -4 22 -2
22 8 0 12 4 13 24 4 17 -8 21 -14 13 -19 -9 -6 -8 -11 3 -18 20 -13 33 -13 25
1 -4 6 2 5 14 -2 14 -10 17 -15 8 -21 -17 -11 -47 -10 -47 2 0 5 -7 7 -15 4
-11 -5 -13 -2 -9 11 5 13 3 16 -7 13 -8 -3 -23 -1 -34 5 -11 5 -34 10 -52 9
-18 -1 -33 3 -33 8 0 5 7 7 15 4 8 -4 15 -1 15 5 0 7 -7 14 -15 17 -20 8 -19
24 1 24 8 0 13 -4 9 -10z m975 6 c0 -3 -4 -8 -10 -11 -5 -3 -10 -1 -10 4 0 6
5 11 10 11 6 0 10 -2 10 -4z m-80 -16 c-8 -5 -24 -9 -35 -9 l-20 0 20 9 c11 5
27 9 35 9 13 1 13 0 0 -9z m-430 -10 c0 -5 -4 -10 -9 -10 -6 0 -13 5 -16 10
-3 6 1 10 9 10 9 0 16 -4 16 -10z m-155 -10 c3 -5 1 -10 -4 -10 -6 0 -11 5
-11 10 0 6 2 10 4 10 3 0 8 -4 11 -10z m480 -10 c3 -5 -1 -10 -10 -10 -9 0
-13 5 -10 10 3 6 8 10 10 10 2 0 7 -4 10 -10z m75 -5 c-7 -8 -18 -15 -24 -14
-7 0 -6 2 2 6 6 2 10 9 6 14 -3 5 2 9 12 9 13 0 14 -3 4 -15z m50 1 c0 -3 -4
-8 -10 -11 -5 -3 -10 -1 -10 4 0 6 5 11 10 11 6 0 10 -2 10 -4z m-910 -32 c0
-8 -4 -12 -10 -9 -5 3 -10 10 -10 16 0 5 5 9 10 9 6 0 10 -7 10 -16z m487 -1
c-14 -15 -19 -15 -26 -5 -5 8 -11 13 -15 12 -4 -1 -12 0 -19 3 -6 2 8 4 33 5
42 2 43 1 27 -15z m343 7 l25 -8 -25 0 c-14 0 -34 3 -45 8 l-20 9 20 -1 c11 0
31 -4 45 -8z m-440 -30 c0 -5 -7 -7 -15 -4 -8 4 -15 8 -15 10 0 2 7 4 15 4 8
0 15 -4 15 -10z m291 0 c21 -12 26 -29 7 -26 -19 3 -38 16 -38 27 0 12 7 11
31 -1z m-499 -12 c4 -10 10 -10 31 -1 18 8 28 9 33 2 3 -6 15 -9 25 -6 11 3
17 1 13 -4 -8 -14 -44 -11 -44 4 0 9 -3 8 -9 -2 -6 -10 -20 -11 -51 -6 -30 5
-38 10 -29 16 19 12 27 11 31 -3z m62 -40 c-5 -8 -2 -9 9 -5 10 3 17 2 17 -3
0 -16 -19 -21 -41 -9 -17 9 -19 13 -8 20 20 12 31 11 23 -3z m81 -8 c19 -21
17 -24 -9 -14 -9 3 -13 11 -9 17 4 6 0 8 -11 4 -10 -4 -15 -3 -11 3 9 15 20
12 40 -10z m79 -9 c3 -5 -1 -11 -9 -14 -9 -4 -12 -1 -8 9 6 16 10 17 17 5z
m66 -5 c0 -11 -19 -15 -25 -6 -3 5 1 10 9 10 9 0 16 -2 16 -4z m30 -5 c0 -12
-49 -51 -64 -51 -6 0 3 13 19 29 32 31 45 37 45 22z m-80 -45 c0 -28 -36 -41
-89 -30 -18 4 -21 8 -12 17 7 7 14 8 21 1 12 -12 70 -6 70 7 0 5 -7 5 -17 2
-11 -4 -14 -3 -9 5 10 17 36 15 36 -2z"/>
<path d="M4120 4100 c0 -6 7 -10 15 -10 8 0 15 2 15 4 0 2 -7 6 -15 10 -8 3
-15 1 -15 -4z"/>
<path d="M3460 3200 c0 -5 5 -10 11 -10 5 0 7 5 4 10 -3 6 -8 10 -11 10 -2 0
-4 -4 -4 -10z"/>
<path d="M3472 3098 c3 -7 12 -14 21 -16 12 -2 15 1 11 12 -7 19 -38 22 -32 4z"/>
<path d="M4831 4520 c0 -8 4 -24 8 -35 6 -14 3 -25 -11 -37 -12 -10 -15 -19
-9 -23 13 -8 57 15 45 24 -5 3 -10 14 -12 24 -5 28 -21 64 -21 47z"/>
<path d="M4145 4510 c-3 -5 1 -10 10 -10 9 0 13 5 10 10 -3 6 -8 10 -10 10 -2
0 -7 -4 -10 -10z"/>
<path d="M4770 4504 c0 -9 6 -22 13 -28 9 -7 11 -21 6 -41 l-7 -30 -1 34 -1
34 -20 -26 c-24 -30 -26 -45 -5 -27 27 23 16 -6 -12 -31 -16 -13 -22 -17 -15
-9 14 17 16 34 2 25 -7 -4 -7 3 0 20 15 41 13 75 -5 69 -9 -4 -15 0 -15 7 -1
24 -17 -12 -23 -51 l-6 -35 15 33 c23 51 34 37 13 -18 -10 -27 -16 -56 -13
-64 5 -14 10 -14 37 0 47 24 67 44 67 69 0 11 5 26 10 31 7 7 4 17 -8 32 -23
26 -32 28 -32 6z"/>
<path d="M2202 4460 c14 -37 23 -92 28 -170 l7 -115 1 101 c2 103 -13 180 -42
219 -10 13 -8 1 6 -35z"/>
<path d="M5005 4499 c-4 -6 -5 -12 -2 -15 2 -3 7 2 10 11 7 17 1 20 -8 4z"/>
<path d="M3940 4492 c0 -4 20 -7 45 -7 30 1 44 -2 42 -9 -3 -6 -10 -10 -16 -8
-12 2 -15 -11 -5 -20 11 -12 41 26 31 40 -10 13 -97 17 -97 4z"/>
<path d="M4870 4496 c0 -2 7 -6 15 -10 8 -3 15 -1 15 4 0 6 -7 10 -15 10 -8 0
-15 -2 -15 -4z"/>
<path d="M3043 4463 c-18 -38 -16 -54 2 -19 9 16 14 33 13 37 -2 5 -9 -4 -15
-18z"/>
<path d="M3111 4474 c0 -11 3 -14 6 -6 3 7 2 16 -1 19 -3 4 -6 -2 -5 -13z"/>
<path d="M3372 4462 c1 -26 3 -30 10 -18 5 10 5 23 -1 34 -8 14 -10 10 -9 -16z"/>
<path d="M4961 4474 c0 -11 3 -14 6 -6 3 7 2 16 -1 19 -3 4 -6 -2 -5 -13z"/>
<path d="M4880 4459 c0 -5 5 -7 10 -4 6 3 10 8 10 11 0 2 -4 4 -10 4 -5 0 -10
-5 -10 -11z"/>
<path d="M4941 4444 c0 -11 3 -14 6 -6 3 7 2 16 -1 19 -3 4 -6 -2 -5 -13z"/>
<path d="M3815 4440 c-3 -5 0 -10 9 -10 8 0 23 -3 33 -6 16 -5 16 -4 -1 10
-23 19 -32 20 -41 6z"/>
<path d="M4038 4433 c-7 -26 1 -43 20 -43 16 1 16 1 0 11 -9 5 -15 16 -12 24
4 8 10 12 15 9 5 -3 9 0 9 5 0 18 -27 12 -32 -6z"/>
<path d="M4095 4439 c-19 -7 -19 -8 1 -8 12 -1 24 -8 28 -16 3 -8 11 -15 18
-14 10 0 10 2 1 6 -7 2 -13 9 -13 15 0 6 7 8 14 5 10 -4 13 -1 9 9 -6 17 -23
19 -23 2 0 -9 -2 -10 -8 -2 -4 7 -15 8 -27 3z"/>
<path d="M4881 4431 c-7 -5 -9 -11 -4 -14 5 -3 15 -2 22 2 7 5 9 11 4 14 -5 3
-15 2 -22 -2z"/>
<path d="M3770 4416 c0 -2 14 -6 30 -8 17 -3 30 -1 30 4 0 4 -13 8 -30 8 -16
0 -30 -2 -30 -4z"/>
<path d="M4835 4400 c-3 -5 -1 -10 4 -10 6 0 11 5 11 10 0 6 -2 10 -4 10 -3 0
-8 -4 -11 -10z"/>
<path d="M4862 4377 c-2 -41 13 -43 20 -2 3 13 2 22 -3 20 -4 -3 -9 0 -11 7
-3 7 -5 -4 -6 -25z"/>
<path d="M5011 4384 c0 -11 3 -14 6 -6 3 7 2 16 -1 19 -3 4 -6 -2 -5 -13z"/>
<path d="M3721 4373 c7 -12 15 -20 18 -17 3 2 -3 12 -13 22 -17 16 -18 16 -5
-5z"/>
<path d="M2460 4371 c0 -6 4 -13 10 -16 6 -3 7 1 4 9 -7 18 -14 21 -14 7z"/>
<path d="M3765 4369 c-4 -6 -5 -12 -2 -15 2 -3 7 2 10 11 7 17 1 20 -8 4z"/>
<path d="M4839 4373 c-2 -25 -10 -58 -15 -62 -3 -3 -13 -6 -22 -6 -13 0 -17
-9 -16 -37 1 -20 5 -49 9 -65 7 -27 8 -26 26 26 10 30 17 57 14 59 -2 3 -8 -4
-12 -14 -10 -24 -38 -32 -29 -9 3 9 6 21 6 26 0 6 4 8 8 5 16 -10 33 11 37 47
3 20 3 37 0 37 -3 0 -5 -3 -6 -7z"/>
<path d="M3800 4355 c-10 -13 -8 -15 14 -15 14 0 26 -5 26 -12 0 -6 3 -8 7 -5
3 4 -3 16 -14 27 -18 17 -23 17 -33 5z"/>
<path d="M3886 4357 c-16 -12 -16 -15 -4 -19 21 -9 46 8 32 22 -7 7 -16 6 -28
-3z"/>
<path d="M4802 4350 c0 -14 2 -19 5 -12 2 6 2 18 0 25 -3 6 -5 1 -5 -13z"/>
<path d="M3118 4343 c7 -3 16 -2 19 1 4 3 -2 6 -13 5 -11 0 -14 -3 -6 -6z"/>
<path d="M4717 4310 c-23 -26 -24 -33 -14 -60 7 -17 13 -25 15 -18 2 7 12 32
23 55 10 24 19 45 19 48 0 14 -21 2 -43 -25z"/>
<path d="M4765 4308 c-4 -18 -16 -51 -26 -72 -10 -22 -17 -42 -14 -44 2 -3 13
15 23 39 21 48 37 109 29 109 -3 0 -9 -15 -12 -32z"/>
<path d="M3910 4316 c0 -7 -9 -16 -20 -19 -15 -4 -20 -14 -20 -41 0 -30 4 -36
21 -36 18 0 19 3 10 14 -10 12 -6 21 18 47 17 17 28 35 25 40 -8 14 -34 10
-34 -5z"/>
<path d="M2780 4312 c0 -5 7 -15 15 -22 8 -7 15 -9 15 -6 0 4 -7 14 -15 22 -8
9 -15 11 -15 6z"/>
<path d="M3110 4310 c0 -5 7 -10 16 -10 8 0 12 5 9 10 -3 6 -10 10 -16 10 -5
0 -9 -4 -9 -10z"/>
<path d="M3545 4310 c3 -5 11 -10 16 -10 6 0 7 5 4 10 -3 6 -11 10 -16 10 -6
0 -7 -4 -4 -10z"/>
<path d="M4885 4310 c-3 -5 -1 -10 4 -10 6 0 11 5 11 10 0 6 -2 10 -4 10 -3 0
-8 -4 -11 -10z"/>
<path d="M3017 4293 c3 -7 8 -13 12 -13 4 0 8 6 8 13 0 8 -6 14 -13 14 -7 0
-10 -6 -7 -14z"/>
<path d="M3430 4285 c0 -14 4 -25 10 -25 5 0 7 7 4 15 -4 8 -1 15 5 15 6 0 11
5 11 10 0 6 -7 10 -15 10 -9 0 -15 -9 -15 -25z"/>
<path d="M2346 4275 c8 -37 14 -45 14 -19 0 10 -5 26 -10 34 -8 11 -9 7 -4
-15z"/>
<path d="M2444 4289 c-3 -6 -1 -16 5 -22 8 -8 11 -5 11 11 0 24 -5 28 -16 11z"/>
<path d="M2607 4280 c3 -11 7 -20 9 -20 2 0 4 9 4 20 0 11 -4 20 -9 20 -5 0
-7 -9 -4 -20z"/>
<path d="M3530 4290 c0 -5 5 -10 11 -10 5 0 7 5 4 10 -3 6 -8 10 -11 10 -2 0
-4 -4 -4 -10z"/>
<path d="M4916 4284 c-4 -9 -4 -19 -1 -22 2 -3 7 3 11 12 4 9 4 19 1 22 -2 3
-7 -3 -11 -12z"/>
<path d="M3347 4283 c-4 -3 -7 -13 -7 -22 1 -13 3 -13 11 2 11 19 8 33 -4 20z"/>
<path d="M3971 4281 c-9 -6 -10 -11 -2 -15 6 -4 11 -3 11 3 0 6 7 8 15 5 8 -4
15 -1 15 5 0 13 -20 14 -39 2z"/>
<path d="M2780 4275 c0 -5 5 -17 10 -25 5 -8 10 -10 10 -5 0 6 -5 17 -10 25
-5 8 -10 11 -10 5z"/>
<path d="M4238 4273 c6 -2 18 -2 25 0 6 3 1 5 -13 5 -14 0 -19 -2 -12 -5z"/>
<path d="M2555 4260 c3 -5 8 -10 11 -10 2 0 4 5 4 10 0 6 -5 10 -11 10 -5 0
-7 -4 -4 -10z"/>
<path d="M2716 4257 c3 -10 9 -15 12 -12 3 3 0 11 -7 18 -10 9 -11 8 -5 -6z"/>
<path d="M4035 4259 c-11 -16 -1 -19 13 -3 7 8 8 14 3 14 -5 0 -13 -5 -16 -11z"/>
<path d="M2960 4245 c0 -8 2 -15 4 -15 2 0 6 7 10 15 3 8 1 15 -4 15 -6 0 -10
-7 -10 -15z"/>
<path d="M3565 4250 c3 -5 14 -10 23 -10 15 0 15 2 2 10 -20 13 -33 13 -25 0z"/>
<path d="M4075 4250 c3 -5 8 -10 11 -10 2 0 4 5 4 10 0 6 -5 10 -11 10 -5 0
-7 -4 -4 -10z"/>
<path d="M3110 4239 c0 -5 5 -7 10 -4 6 3 10 8 10 11 0 2 -4 4 -10 4 -5 0 -10
-5 -10 -11z"/>
<path d="M3943 4243 c9 -2 23 -2 30 0 6 3 -1 5 -18 5 -16 0 -22 -2 -12 -5z"/>
<path d="M3245 4229 c-4 -6 -4 -13 -1 -16 3 -4 6 -1 6 5 0 25 19 10 30 -22 6
-19 18 -40 26 -46 11 -10 14 -9 14 9 0 12 -4 20 -9 17 -5 -3 -11 1 -15 9 -6
16 11 20 32 6 10 -6 11 -18 3 -52 -14 -60 -14 -152 1 -167 13 -13 52 3 42 19
-3 6 -11 3 -19 -7 -11 -16 -13 -14 -17 15 -3 17 -1 34 4 37 5 4 7 12 4 20 -3
8 -2 14 3 14 4 0 8 7 8 15 0 8 -4 12 -9 9 -4 -3 -8 2 -8 11 0 10 5 14 13 9 9
-5 9 -4 0 6 -7 8 -8 22 -3 41 5 17 5 29 -1 29 -5 0 -9 7 -9 16 0 8 -4 12 -10
9 -5 -3 -10 -1 -10 4 0 6 -5 11 -11 11 -5 0 -7 -5 -3 -12 4 -6 -3 -4 -17 5
-27 20 -35 21 -44 6z"/>
<path d="M3780 4225 c0 -8 4 -15 8 -15 4 0 20 -10 35 -22 29 -23 57 -32 57
-17 0 5 -12 12 -26 15 -22 6 -25 11 -19 33 4 19 3 22 -4 11 -9 -12 -14 -13
-31 -2 -17 10 -20 10 -20 -3z"/>
<path d="M2930 4221 c0 -5 7 -11 15 -15 8 -3 15 -1 15 3 0 5 -7 11 -15 15 -8
3 -15 1 -15 -3z"/>
<path d="M3086 4215 c4 -8 1 -22 -6 -30 -9 -10 -9 -15 -1 -15 6 0 11 5 11 11
0 5 5 7 12 3 8 -5 9 -2 5 10 -4 10 -7 22 -7 27 0 5 -4 9 -10 9 -5 0 -7 -7 -4
-15z"/>
<path d="M3450 4220 c0 -5 4 -10 9 -10 6 0 13 5 16 10 3 6 -1 10 -9 10 -9 0
-16 -4 -16 -10z"/>
<path d="M4762 4214 c-13 -15 -12 -25 14 -88 5 -13 4 -17 -3 -13 -6 4 -16 0
-23 -8 -11 -13 -10 -14 2 -10 9 4 19 -1 24 -12 6 -14 9 -9 13 22 4 27 2 45 -7
54 -9 9 -12 25 -8 43 6 32 6 33 -12 12z"/>
<path d="M3400 4205 c0 -8 4 -15 9 -15 5 0 12 -18 16 -40 7 -44 15 -53 34 -41
10 6 9 11 -3 24 -9 8 -16 26 -16 39 0 13 -9 29 -20 36 -17 10 -20 10 -20 -3z"/>
<path d="M3229 4165 c-12 -25 -12 -32 -2 -28 7 3 13 -2 13 -11 0 -10 -6 -13
-15 -10 -8 4 -15 2 -15 -4 0 -12 29 -24 41 -16 5 3 9 0 9 -5 0 -6 -9 -11 -19
-11 -26 0 -35 -16 -21 -37 9 -16 10 -15 5 5 -4 12 -2 22 3 22 6 0 14 -19 18
-42 l8 -43 7 58 c5 43 3 67 -8 88 -11 23 -12 33 -3 43 6 8 7 16 3 19 -4 3 -15
-10 -24 -28z"/>
<path d="M3182 4165 c0 -16 2 -22 5 -12 2 9 2 23 0 30 -3 6 -5 -1 -5 -18z"/>
<path d="M3690 4169 c0 -5 4 -8 9 -5 5 4 11 0 14 -6 2 -7 8 -9 13 -5 5 4 2 12
-6 17 -20 13 -30 12 -30 -1z"/>
<path d="M4725 4170 c-3 -5 -1 -10 4 -10 6 0 11 5 11 10 0 6 -2 10 -4 10 -3 0
-8 -4 -11 -10z"/>
<path d="M2920 4157 c0 -7 9 -13 20 -14 18 -2 18 0 6 13 -18 17 -26 18 -26 1z"/>
<path d="M3130 4161 c0 -6 4 -13 10 -16 6 -3 7 1 4 9 -7 18 -14 21 -14 7z"/>
<path d="M3077 4098 c2 -29 6 -64 8 -78 2 -14 4 -32 4 -40 1 -12 4 -11 12 3 6
10 8 25 5 33 -3 8 0 24 6 34 10 15 10 22 0 32 -11 11 -12 9 -6 -7 5 -16 4 -17
-6 -8 -6 6 -12 27 -12 47 0 20 -3 36 -8 36 -4 0 -6 -24 -3 -52z"/>
<path d="M3260 4139 c0 -5 5 -7 10 -4 6 3 10 8 10 11 0 2 -4 4 -10 4 -5 0 -10
-5 -10 -11z"/>
<path d="M3476 4135 c4 -8 11 -15 16 -15 6 0 5 6 -2 15 -7 8 -14 15 -16 15 -2
0 -1 -7 2 -15z"/>
<path d="M3730 4142 c0 -5 -16 -7 -36 -6 -30 3 -34 1 -29 -16 4 -13 0 -20 -15
-25 -25 -8 -25 -11 0 -58 11 -20 16 -37 10 -37 -5 0 -10 7 -10 15 0 8 -9 19
-20 25 -11 6 -20 20 -20 30 0 11 -5 20 -11 20 -8 0 -8 4 0 14 8 10 9 16 1 21
-14 9 -38 -17 -32 -35 4 -12 2 -13 -9 -4 -16 13 -49 25 -49 19 0 -4 51 -28 80
-38 11 -4 10 -6 -4 -6 -10 -1 -25 -9 -33 -18 -8 -10 -12 -13 -9 -6 4 6 2 14
-4 18 -5 3 -10 2 -10 -4 0 -5 -2 -16 -5 -23 -4 -9 5 -20 20 -28 l26 -14 -28
-24 -28 -23 27 4 c23 3 26 2 18 -13 -7 -13 -6 -20 5 -23 9 -4 12 -1 9 7 -3 8
-1 17 4 20 6 3 13 -1 16 -9 4 -12 15 -14 48 -9 50 8 60 18 48 50 -7 18 -5 23
13 28 l22 6 -23 16 c-17 12 -23 23 -19 40 2 13 -1 26 -7 29 -8 3 -7 7 2 11 6
3 12 12 12 20 0 8 5 14 11 14 6 0 9 -7 6 -14 -4 -11 -1 -13 11 -9 26 9 42 24
36 34 -7 11 -24 12 -24 1z m-73 -84 c-3 -8 -6 -5 -6 6 -1 11 2 17 5 13 3 -3 4
-12 1 -19z"/>
<path d="M3895 4140 c3 -5 8 -10 11 -10 2 0 4 5 4 10 0 6 -5 10 -11 10 -5 0
-7 -4 -4 -10z"/>
<path d="M4745 4140 c-3 -5 -1 -10 4 -10 6 0 11 5 11 10 0 6 -2 10 -4 10 -3 0
-8 -4 -11 -10z"/>
<path d="M4911 4134 c0 -11 3 -14 6 -6 3 7 2 16 -1 19 -3 4 -6 -2 -5 -13z"/>
<path d="M3350 4136 c0 -2 7 -7 16 -10 8 -3 12 -2 9 4 -6 10 -25 14 -25 6z"/>
<path d="M3400 4128 c-6 -37 -5 -43 9 -40 9 2 12 -4 8 -18 -3 -11 -1 -18 4
-15 10 7 8 55 -2 55 -4 0 -10 8 -12 18 -4 16 -5 16 -7 0z"/>
<path d="M2970 4115 c0 -8 2 -15 4 -15 2 0 6 7 10 15 3 8 1 15 -4 15 -6 0 -10
-7 -10 -15z"/>
<path d="M3293 4108 c-5 -13 -10 -42 -9 -66 1 -23 -2 -42 -6 -42 -5 0 -8 -7
-8 -17 0 -14 2 -14 20 2 14 13 17 21 9 26 -6 4 -9 11 -6 16 6 10 18 103 13
103 -1 0 -7 -10 -13 -22z"/>
<path d="M2945 4110 c3 -5 8 -10 11 -10 2 0 4 5 4 10 0 6 -5 10 -11 10 -5 0
-7 -4 -4 -10z"/>
<path d="M4720 4105 c-7 -9 -8 -15 -2 -15 5 0 12 7 16 15 3 8 4 15 2 15 -2 0
-9 -7 -16 -15z"/>
<path d="M2987 4093 c-7 -11 10 -40 18 -31 4 4 3 14 -3 24 -5 9 -12 12 -15 7z"/>
<path d="M3454 4088 c-9 -15 10 -30 29 -22 9 3 17 10 17 14 0 12 -39 19 -46 8z"/>
<path d="M2510 4081 c0 -6 4 -13 10 -16 6 -3 7 1 4 9 -7 18 -14 21 -14 7z"/>
<path d="M3139 4070 c5 -14 14 -41 19 -60 l11 -35 -3 37 c-1 20 -10 47 -19 60
l-17 23 9 -25z"/>
<path d="M3373 4075 c0 -8 4 -15 9 -15 4 0 8 4 8 9 0 6 -4 12 -8 15 -5 3 -9
-1 -9 -9z"/>
<path d="M3770 4064 c0 -8 5 -12 10 -9 6 4 8 11 5 16 -9 14 -15 11 -15 -7z"/>
<path d="M2915 4060 c-3 -5 1 -20 11 -32 14 -20 15 -20 9 -3 -4 11 -8 26 -8
33 0 15 -4 15 -12 2z"/>
<path d="M3180 4058 c0 -10 4 -18 9 -18 5 0 5 -20 0 -46 -7 -35 -5 -49 5 -60
19 -19 30 -18 22 2 -4 9 -1 23 6 32 11 13 14 10 19 -19 6 -30 6 -28 4 9 -1 24
-10 51 -19 60 -9 9 -23 26 -31 37 -13 18 -14 18 -15 3z m29 -90 c-18 -19 -21
-20 -15 -5 3 10 6 23 6 28 0 6 5 7 10 4 6 -3 10 0 11 7 0 10 2 10 6 1 2 -7 -6
-23 -18 -35z"/>
<path d="M4700 4059 c0 -5 -4 -8 -9 -5 -5 4 -7 -3 -4 -14 3 -11 9 -20 14 -20
5 0 9 -7 9 -16 0 -8 -4 -12 -10 -9 -5 3 -10 2 -10 -4 0 -14 18 -23 25 -12 3 6
13 8 23 5 15 -5 14 -4 -1 6 -18 11 -18 13 -1 31 16 18 16 19 1 13 -20 -7 -23
6 -5 24 9 9 7 12 -10 12 -12 0 -22 -5 -22 -11z"/>
<path d="M3486 4041 c-3 -5 1 -11 9 -15 15 -6 29 7 18 18 -9 9 -21 8 -27 -3z"/>
<path d="M3795 4041 c-27 -6 -50 -41 -27 -41 5 0 24 -15 42 -32 25 -25 31 -28
26 -13 -6 20 -6 20 9 1 9 -13 19 -16 24 -10 12 12 -19 84 -37 84 -7 0 -10 5
-7 10 3 6 5 9 3 9 -2 -1 -16 -4 -33 -8z"/>
<path d="M4835 4040 c3 -5 8 -10 11 -10 2 0 4 5 4 10 0 6 -5 10 -11 10 -5 0
-7 -4 -4 -10z"/>
<path d="M4903 4035 c-3 -9 -3 -18 -1 -21 3 -3 8 4 11 16 6 23 -1 27 -10 5z"/>
<path d="M4795 4017 c1 -12 3 -33 4 -47 l1 -24 17 24 c12 17 13 25 5 28 -7 2
-12 10 -12 17 0 8 -4 16 -9 19 -4 3 -7 -5 -6 -17z"/>
<path d="M2787 4010 c3 -11 7 -20 9 -20 2 0 4 9 4 20 0 11 -4 20 -9 20 -5 0
-7 -9 -4 -20z"/>
<path d="M2968 4005 c-15 -20 -16 -24 -2 -29 8 -3 13 -2 9 3 -3 5 2 16 10 25
8 8 12 17 8 19 -5 3 -16 -5 -25 -18z"/>
<path d="M4861 4013 c-1 -6 -4 -20 -7 -30 -5 -17 -5 -17 6 0 6 10 9 23 6 30
-3 9 -5 9 -5 0z"/>
<path d="M4881 4004 c0 -11 3 -14 6 -6 3 7 2 16 -1 19 -3 4 -6 -2 -5 -13z"/>
<path d="M2561 3980 c0 -29 1 -32 10 -17 7 11 7 23 0 35 -9 14 -10 11 -10 -18z"/>
<path d="M3122 3984 c-15 -32 -15 -45 0 -20 10 18 11 18 24 -5 17 -32 18 -9 1
25 l-14 26 -11 -26z"/>
<path d="M3457 4003 c-12 -12 -7 -22 8 -17 8 4 15 10 15 15 0 11 -14 12 -23 2z"/>
<path d="M3508 3998 c8 -9 11 -22 7 -28 -4 -7 2 -6 14 2 14 8 17 14 9 17 -7 2
-20 9 -28 15 -13 9 -13 9 -2 -6z"/>
<path d="M3741 3994 c0 -11 3 -14 6 -6 3 7 2 16 -1 19 -3 4 -6 -2 -5 -13z"/>
<path d="M3870 4006 c0 -2 7 -7 16 -10 8 -3 12 -2 9 4 -6 10 -25 14 -25 6z"/>
<path d="M3406 3965 c-11 -8 -15 -15 -9 -15 6 0 16 7 23 15 16 19 11 19 -14 0z"/>
<path d="M3305 3960 c3 -5 8 -10 11 -10 2 0 4 5 4 10 0 6 -5 10 -11 10 -5 0
-7 -4 -4 -10z"/>
<path d="M2597 3945 c-4 -8 -2 -17 3 -20 6 -4 10 3 10 14 0 25 -6 27 -13 6z"/>
<path d="M3286 3947 c3 -10 9 -15 12 -12 3 3 0 11 -7 18 -10 9 -11 8 -5 -6z"/>
<path d="M2816 3937 c3 -10 9 -15 12 -12 3 3 0 11 -7 18 -10 9 -11 8 -5 -6z"/>
<path d="M3330 3929 c0 -5 5 -7 10 -4 6 3 10 8 10 11 0 2 -4 4 -10 4 -5 0 -10
-5 -10 -11z"/>
<path d="M4860 3929 c0 -5 5 -7 10 -4 6 3 10 8 10 11 0 2 -4 4 -10 4 -5 0 -10
-5 -10 -11z"/>
<path d="M2883 3911 c0 -11 5 -18 9 -15 4 3 5 11 1 19 -7 21 -12 19 -10 -4z"/>
<path d="M3146 3913 c-6 -14 -5 -15 5 -6 7 7 10 15 7 18 -3 3 -9 -2 -12 -12z"/>
<path d="M3169 3915 c0 -11 -2 -32 -3 -47 -1 -16 1 -28 5 -28 10 0 16 68 7 83
-5 8 -8 6 -9 -8z"/>
<path d="M3267 3910 c3 -11 9 -20 15 -20 5 0 4 9 -2 20 -6 11 -12 20 -14 20
-2 0 -2 -9 1 -20z"/>
<path d="M3461 3905 c-13 -14 -19 -25 -14 -25 10 0 53 37 53 45 0 12 -17 3
-39 -20z"/>
<path d="M4887 3923 c-4 -3 -7 -11 -7 -17 0 -6 5 -5 12 2 6 6 9 14 7 17 -3 3
-9 2 -12 -2z"/>
<path d="M3045 3901 c-3 -5 -1 -12 4 -15 5 -3 11 1 15 9 6 16 -9 21 -19 6z"/>
<path d="M3205 3895 c-3 -8 -7 -22 -10 -30 -2 -8 0 -17 5 -20 6 -4 10 2 10 12
0 15 2 16 10 3 8 -13 10 -13 10 2 0 9 -5 20 -10 23 -6 4 -8 11 -5 16 4 5 4 9
0 9 -3 0 -8 -7 -10 -15z"/>
<path d="M3630 3900 c-20 -6 -21 -8 -5 -8 11 0 34 4 50 8 27 7 27 8 5 8 -14 0
-36 -4 -50 -8z"/>
<path d="M4834 3894 c-4 -10 -14 -28 -23 -38 -9 -11 -10 -16 -3 -12 8 5 12 1
13 -11 0 -10 7 2 14 27 14 43 12 72 -1 34z"/>
<path d="M2967 3884 c6 -17 5 -17 -10 -5 -23 19 -21 1 4 -29 16 -19 19 -21 15
-6 -4 11 -2 22 4 26 7 5 6 11 -5 20 -13 11 -14 10 -8 -6z"/>
<path d="M2701 3874 c0 -11 3 -14 6 -6 3 7 2 16 -1 19 -3 4 -6 -2 -5 -13z"/>
<path d="M3110 3867 c11 -11 20 -32 21 -46 l0 -26 10 24 c6 16 6 28 -2 38 -7
7 -9 16 -5 20 3 3 6 1 6 -5 0 -7 5 -12 12 -12 23 0 -10 23 -36 26 l-25 3 19
-22z"/>
<path d="M4865 3879 c-4 -6 -5 -12 -2 -15 2 -3 7 2 10 11 7 17 1 20 -8 4z"/>
<path d="M2730 3871 c0 -5 5 -13 10 -16 6 -3 10 -2 10 4 0 5 -4 13 -10 16 -5
3 -10 2 -10 -4z"/>
<path d="M2831 3864 c0 -11 3 -14 6 -6 3 7 2 16 -1 19 -3 4 -6 -2 -5 -13z"/>
<path d="M3275 3870 c3 -5 8 -10 11 -10 2 0 4 5 4 10 0 6 -5 10 -11 10 -5 0
-7 -4 -4 -10z"/>
<path d="M3628 3873 c7 -3 16 -2 19 1 4 3 -2 6 -13 5 -11 0 -14 -3 -6 -6z"/>
<path d="M4895 3869 c-4 -6 -4 -13 -1 -16 3 -4 6 0 6 8 0 11 2 11 10 -1 8 -13
10 -12 10 3 0 19 -15 23 -25 6z"/>
<path d="M2997 3841 c-4 -17 -3 -21 5 -13 5 5 8 16 6 23 -3 8 -7 3 -11 -10z"/>
<path d="M2916 3838 c3 -5 10 -6 15 -3 13 9 11 12 -6 12 -8 0 -12 -4 -9 -9z"/>
<path d="M2580 3830 c0 -5 5 -10 11 -10 5 0 7 5 4 10 -3 6 -8 10 -11 10 -2 0
-4 -4 -4 -10z"/>
<path d="M3540 3820 c0 -6 7 -10 15 -10 8 0 15 2 15 4 0 2 -7 6 -15 10 -8 3
-15 1 -15 -4z"/>
<path d="M3058 3793 c2 -13 9 -23 14 -23 5 0 6 10 3 21 -5 14 -3 19 3 15 6 -3
13 -2 17 4 3 6 -4 9 -18 8 -19 -2 -23 -7 -19 -25z"/>
<path d="M3630 3802 c-13 -14 -12 -15 4 -9 10 4 25 7 33 7 9 0 13 3 9 7 -12
13 -31 11 -46 -5z"/>
<path d="M2585 3800 c-3 -5 -1 -10 4 -10 6 0 11 5 11 10 0 6 -2 10 -4 10 -3 0
-8 -4 -11 -10z"/>
<path d="M2790 3801 c0 -10 19 -25 25 -20 1 2 -3 10 -11 17 -8 7 -14 8 -14 3z"/>
<path d="M2840 3790 c13 -23 20 -26 20 -6 0 8 -7 16 -15 20 -13 4 -14 2 -5
-14z"/>
<path d="M2934 3799 c-3 -6 -1 -16 5 -22 8 -8 11 -5 11 11 0 24 -5 28 -16 11z"/>
<path d="M4809 3783 c-13 -15 -12 -15 9 -4 23 12 28 21 13 21 -5 0 -15 -7 -22
-17z"/>
<path d="M2705 3780 c3 -5 11 -10 16 -10 6 0 7 5 4 10 -3 6 -11 10 -16 10 -6
0 -7 -4 -4 -10z"/>
<path d="M3440 3780 c0 -5 7 -7 15 -4 8 4 15 8 15 10 0 2 -7 4 -15 4 -8 0 -15
-4 -15 -10z"/>
<path d="M3520 3786 c0 -2 8 -10 18 -17 15 -13 16 -12 3 4 -13 16 -21 21 -21
13z"/>
<path d="M3487 3774 c-3 -3 -19 -6 -36 -6 -17 -1 -31 -6 -31 -12 0 -6 -4 -6
-11 2 -9 8 -20 3 -44 -21 -37 -37 -52 -69 -29 -60 8 3 12 8 9 11 -3 3 7 18 22
34 26 27 44 36 42 21 -3 -21 2 -33 12 -27 8 4 7 9 -2 15 -13 8 -6 11 17 8 4 0
10 4 13 9 4 7 14 5 26 -5 14 -10 15 -14 5 -13 -36 5 -44 -1 -20 -13 14 -8 28
-9 31 -4 3 5 9 2 12 -7 8 -21 37 -21 37 0 0 14 -2 15 -17 3 -15 -13 -15 -12
-5 8 7 12 12 26 12 32 0 12 -35 33 -43 25z"/>
<path d="M4770 3769 c0 -5 5 -7 10 -4 6 3 10 8 10 11 0 2 -4 4 -10 4 -5 0 -10
-5 -10 -11z"/>
<path d="M4806 3757 c-16 -12 -16 -14 -1 -42 l17 -30 -7 28 c-3 17 -1 35 6 43
14 17 8 18 -15 1z"/>
<path d="M4839 3752 c-15 -13 -19 -21 -10 -26 7 -5 10 -2 9 5 -2 7 3 13 11 14
8 0 16 6 19 13 5 17 -2 15 -29 -6z"/>
<path d="M4875 3735 c-9 -20 -14 -39 -11 -42 3 -4 6 -1 6 5 0 6 9 9 20 7 11
-2 22 1 26 6 3 5 2 9 -3 8 -27 -5 -33 1 -23 22 7 11 10 23 7 25 -2 3 -12 -12
-22 -31z"/>
<path d="M2884 3745 c-9 -21 -2 -26 13 -10 8 9 9 16 3 20 -6 3 -13 -1 -16 -10z"/>
<path d="M4960 3750 c0 -5 5 -10 11 -10 5 0 7 5 4 10 -3 6 -8 10 -11 10 -2 0
-4 -4 -4 -10z"/>
<path d="M3201 3734 c0 -11 3 -14 6 -6 3 7 2 16 -1 19 -3 4 -6 -2 -5 -13z"/>
<path d="M2701 3735 c0 -18 28 -61 29 -44 0 8 -7 24 -15 35 -8 10 -14 15 -14
9z"/>
<path d="M4940 3719 c0 -5 5 -7 10 -4 6 3 10 8 10 11 0 2 -4 4 -10 4 -5 0 -10
-5 -10 -11z"/>
<path d="M4937 3693 c-10 -9 -9 -23 1 -23 5 0 9 7 9 15 0 17 -1 18 -10 8z"/>
<path d="M3276 3673 c-6 -14 -5 -15 5 -6 7 7 10 15 7 18 -3 3 -9 -2 -12 -12z"/>
<path d="M4881 3681 c-10 -6 -9 -10 3 -14 8 -3 18 -2 21 3 8 13 -9 20 -24 11z"/>
<path d="M2927 3669 c7 -7 15 -10 18 -7 3 3 -2 9 -12 12 -14 6 -15 5 -6 -5z"/>
<path d="M3035 3670 c-3 -5 -1 -10 4 -10 6 0 11 5 11 10 0 6 -2 10 -4 10 -3 0
-8 -4 -11 -10z"/>
<path d="M4840 3660 c-9 -6 -10 -10 -3 -10 6 0 15 5 18 10 8 12 4 12 -15 0z"/>
<path d="M2894 3645 c-3 -7 6 -30 21 -49 15 -19 24 -40 20 -46 -3 -5 -1 -10 4
-10 15 0 14 28 -1 45 -33 36 -37 45 -32 59 3 9 3 16 0 16 -4 0 -9 -7 -12 -15z"/>
<path d="M4910 3649 c0 -5 5 -7 10 -4 6 3 10 8 10 11 0 2 -4 4 -10 4 -5 0 -10
-5 -10 -11z"/>
<path d="M2961 3634 c0 -11 3 -14 6 -6 3 7 2 16 -1 19 -3 4 -6 -2 -5 -13z"/>
<path d="M4891 3640 c1 -8 -1 -23 -5 -32 -4 -9 -6 -23 -4 -32 2 -11 10 -9 33
11 24 20 25 22 6 13 -22 -11 -23 -10 -19 8 3 11 1 26 -4 33 -7 11 -8 11 -7 -1z"/>
<path d="M3032 3620 c0 -14 2 -19 5 -12 2 6 2 18 0 25 -3 6 -5 1 -5 -13z"/>
<path d="M4840 3616 c0 -9 5 -16 10 -16 6 0 10 4 10 9 0 6 -4 13 -10 16 -5 3
-10 -1 -10 -9z"/>
<path d="M2795 3609 c-4 -6 -5 -12 -2 -15 2 -3 7 2 10 11 7 17 1 20 -8 4z"/>
<path d="M2365 3580 c3 -5 8 -10 11 -10 2 0 4 5 4 10 0 6 -5 10 -11 10 -5 0
-7 -4 -4 -10z"/>
<path d="M3235 3578 c4 -9 -1 -23 -10 -32 -9 -9 -12 -16 -6 -16 6 0 11 -7 11
-15 0 -16 16 -20 24 -6 3 5 -2 12 -12 16 -16 6 -16 7 1 17 15 8 23 6 37 -10
18 -19 17 -20 -26 -63 -44 -43 -53 -59 -34 -59 6 0 10 7 10 16 0 8 5 12 10 9
6 -3 10 -1 10 4 0 6 7 11 16 11 8 0 12 4 9 10 -3 6 1 7 9 4 9 -3 16 -1 16 5 0
6 -5 11 -11 11 -5 0 -7 5 -4 10 10 16 25 12 25 -7 0 -13 3 -14 11 -6 12 12 4
25 -33 61 -22 20 -22 28 -2 36 9 4 13 2 8 -5 -12 -19 19 -29 33 -11 7 9 13 20
13 25 0 12 -68 8 -73 -5 -3 -10 -8 -10 -21 1 -14 12 -16 12 -11 -1z"/>
<path d="M2600 3551 c0 -11 4 -22 9 -25 4 -3 6 6 3 19 -5 30 -12 33 -12 6z"/>
<path d="M3360 3559 c0 -5 -4 -8 -9 -4 -5 3 -12 1 -15 -4 -8 -13 22 -7 36 7 9
9 9 12 0 12 -7 0 -12 -5 -12 -11z"/>
<path d="M2450 3530 c0 -5 5 -10 11 -10 5 0 7 5 4 10 -3 6 -8 10 -11 10 -2 0
-4 -4 -4 -10z"/>
<path d="M3356 3519 c-16 -19 -16 -20 1 -17 11 2 18 -4 20 -17 1 -11 0 -14 -3
-8 -4 10 -11 10 -25 2 -11 -5 -17 -14 -14 -20 4 -5 1 -9 -6 -9 -7 0 -9 -3 -5
-7 4 -5 14 1 22 11 8 11 14 14 14 8 0 -20 16 -13 28 12 8 19 8 26 -1 29 -8 3
-6 9 6 19 18 13 18 14 -1 15 -10 1 -26 -7 -36 -18z"/>
<path d="M2695 3510 c3 -5 8 -10 11 -10 2 0 4 5 4 10 0 6 -5 10 -11 10 -5 0
-7 -4 -4 -10z"/>
<path d="M3210 3500 c0 -6 7 -13 15 -17 24 -9 27 1 5 15 -13 8 -20 8 -20 2z"/>
<path d="M3425 3500 c-3 -5 -1 -10 4 -10 6 0 11 5 11 10 0 6 -2 10 -4 10 -3 0
-8 -4 -11 -10z"/>
<path d="M3536 3475 c4 -8 8 -15 10 -15 2 0 4 7 4 15 0 8 -4 15 -10 15 -5 0
-7 -7 -4 -15z"/>
<path d="M2670 3470 c0 -5 5 -10 10 -10 6 0 10 5 10 10 0 6 -4 10 -10 10 -5 0
-10 -4 -10 -10z"/>
<path d="M2980 3471 c0 -5 7 -12 16 -15 14 -5 15 -4 4 9 -14 17 -20 19 -20 6z"/>
<path d="M2490 3460 c0 -5 5 -10 10 -10 6 0 10 5 10 10 0 6 -4 10 -10 10 -5 0
-10 -4 -10 -10z"/>
<path d="M3400 3460 c0 -5 5 -10 10 -10 6 0 10 5 10 10 0 6 -4 10 -10 10 -5 0
-10 -4 -10 -10z"/>
<path d="M3010 3433 c0 -15 19 -37 26 -31 3 4 -1 14 -10 23 -9 9 -16 13 -16 8z"/>
<path d="M3335 3430 c-17 -7 -14 -9 13 -9 20 -1 31 3 27 9 -7 12 -13 12 -40 0z"/>
<path d="M2790 3410 c0 -5 5 -10 11 -10 5 0 7 5 4 10 -3 6 -8 10 -11 10 -2 0
-4 -4 -4 -10z"/>
<path d="M4820 3409 c0 -15 18 -19 23 -6 3 8 -1 14 -9 14 -8 0 -14 -4 -14 -8z"/>
<path d="M2890 3401 c0 -5 5 -13 10 -16 6 -3 10 -2 10 4 0 5 -4 13 -10 16 -5
3 -10 2 -10 -4z"/>
<path d="M3026 3381 c-3 -5 1 -12 10 -15 22 -8 25 -4 9 11 -8 7 -16 9 -19 4z"/>
<path d="M4786 3365 c-9 -14 -13 -25 -8 -25 5 0 14 11 20 25 6 14 10 25 8 25
-2 0 -11 -11 -20 -25z"/>
<path d="M3280 3374 c0 -3 9 -13 20 -22 14 -11 22 -32 24 -62 6 -66 6 -67 17
-41 5 14 6 27 2 30 -4 3 -9 20 -11 36 -2 17 -11 38 -19 48 -16 17 -33 23 -33
11z"/>
<path d="M2565 3360 c-3 -5 -1 -10 4 -10 6 0 11 5 11 10 0 6 -2 10 -4 10 -3 0
-8 -4 -11 -10z"/>
<path d="M3244 3358 c-4 -6 -3 -8 3 -5 6 4 14 0 17 -9 3 -8 10 -12 16 -9 5 3
10 1 10 -4 0 -6 5 -11 12 -11 6 0 1 11 -12 25 -26 28 -35 31 -46 13z"/>
<path d="M3208 3353 c7 -3 16 -2 19 1 4 3 -2 6 -13 5 -11 0 -14 -3 -6 -6z"/>
<path d="M3160 3325 c0 -8 4 -15 10 -15 5 0 7 7 4 15 -4 8 -8 15 -10 15 -2 0
-4 -7 -4 -15z"/>
<path d="M3250 3331 c0 -10 39 -36 45 -29 2 2 -8 11 -21 21 -13 10 -24 13 -24
8z"/>
<path d="M2806 3304 c-8 -21 -8 -24 5 -24 5 0 8 4 5 9 -4 5 -1 11 6 13 8 3 9
6 1 11 -6 4 -14 0 -17 -9z"/>
<path d="M3231 3305 c15 -14 79 -53 79 -47 0 15 -16 27 -49 39 -18 7 -32 10
-30 8z"/>
<path d="M4761 3282 c0 -7 -10 -23 -21 -34 -11 -12 -18 -29 -15 -39 6 -18 -10
-35 -39 -40 -11 -2 -21 -11 -24 -19 -4 -12 -2 -13 9 -2 7 6 20 12 29 12 9 0
24 14 34 31 11 18 14 29 7 25 -20 -13 -12 13 10 28 13 8 19 21 16 33 -3 10 -5
12 -6 5z"/>
<path d="M4800 3280 c0 -5 5 -10 11 -10 5 0 7 5 4 10 -3 6 -8 10 -11 10 -2 0
-4 -4 -4 -10z"/>
<path d="M4876 3273 c-6 -14 -5 -15 5 -6 7 7 10 15 7 18 -3 3 -9 -2 -12 -12z"/>
<path d="M3196 3272 c-9 -9 -7 -42 3 -42 5 0 7 10 4 23 l-5 22 17 -23 c9 -13
23 -21 31 -18 8 3 19 -4 25 -16 11 -20 12 -20 21 -4 12 21 -1 38 -32 43 -15 2
-19 -1 -14 -9 4 -8 3 -10 -2 -5 -5 5 -9 13 -9 19 0 12 -30 20 -39 10z"/>
<path d="M4835 3254 c-9 -14 -15 -27 -13 -30 2 -2 12 10 22 26 21 37 15 40 -9
4z"/>
<path d="M2802 3246 c7 -8 15 -12 17 -11 5 6 -10 25 -20 25 -5 0 -4 -6 3 -14z"/>
<path d="M2965 3250 c3 -5 8 -10 11 -10 2 0 4 5 4 10 0 6 -5 10 -11 10 -5 0
-7 -4 -4 -10z"/>
<path d="M2922 3216 c7 -8 15 -12 17 -11 5 6 -10 25 -20 25 -5 0 -4 -6 3 -14z"/>
<path d="M3125 3210 c10 -11 20 -20 23 -20 3 0 -3 9 -13 20 -10 11 -20 20 -23
20 -3 0 3 -9 13 -20z"/>
<path d="M3040 3210 c0 -5 5 -10 11 -10 5 0 7 5 4 10 -3 6 -8 10 -11 10 -2 0
-4 -4 -4 -10z"/>
<path d="M3243 3208 c4 -13 2 -16 -11 -12 -14 5 -13 3 2 -10 11 -9 27 -16 37
-16 18 0 29 -20 28 -48 0 -13 -3 -11 -11 6 -6 12 -16 22 -22 22 -6 0 -6 -4 1
-11 6 -6 9 -18 6 -25 -3 -9 2 -14 16 -14 12 0 21 -4 21 -10 0 -5 7 -10 16 -10
8 0 13 -4 9 -9 -3 -5 4 -25 15 -43 11 -19 21 -43 23 -54 3 -20 73 -91 82 -83
2 2 -10 23 -26 47 -16 23 -29 49 -29 57 0 7 -4 17 -10 20 -6 4 -7 -1 -3 -12 4
-14 3 -15 -6 -7 -7 6 -13 21 -14 33 -1 11 -5 21 -10 21 -5 0 -7 5 -5 12 2 6
-6 22 -19 36 -13 14 -21 27 -18 30 3 3 12 -3 21 -14 14 -17 15 -18 10 -1 -3
10 -6 28 -6 40 0 14 -3 17 -8 10 -5 -8 -11 -8 -24 1 -10 7 -14 16 -10 21 4 4
-4 4 -17 0 -15 -4 -21 -3 -17 3 3 5 -2 16 -11 23 -15 12 -16 12 -10 -3z"/>
<path d="M2740 3193 c0 -6 9 -21 21 -34 l20 -24 -17 30 c-24 39 -24 40 -24 28z"/>
<path d="M3191 3174 c0 -11 3 -14 6 -6 3 7 2 16 -1 19 -3 4 -6 -2 -5 -13z"/>
<path d="M3055 3169 c-4 -6 -5 -12 -2 -15 2 -3 7 2 10 11 7 17 1 20 -8 4z"/>
<path d="M3065 3130 c3 -5 8 -10 11 -10 2 0 4 5 4 10 0 6 -5 10 -11 10 -5 0
-7 -4 -4 -10z"/>
<path d="M3230 3136 c0 -2 8 -10 18 -17 15 -13 16 -12 3 4 -13 16 -21 21 -21
13z"/>
<path d="M3010 3120 c0 -5 5 -10 11 -10 5 0 7 5 4 10 -3 6 -8 10 -11 10 -2 0
-4 -4 -4 -10z"/>
<path d="M2912 3084 c-2 -19 2 -34 7 -34 13 0 22 28 10 35 -5 4 -7 10 -4 15 3
5 2 11 -3 14 -4 2 -9 -11 -10 -30z"/>
<path d="M3090 3111 c0 -5 5 -13 10 -16 6 -3 10 -2 10 4 0 5 -4 13 -10 16 -5
3 -10 2 -10 -4z"/>
<path d="M3145 3112 c6 -4 11 -18 13 -31 3 -28 9 -37 18 -28 4 4 1 13 -6 22
-11 13 -10 14 5 9 15 -6 16 -5 4 15 -8 11 -21 21 -29 21 -9 0 -11 -3 -5 -8z"/>
<path d="M4712 3100 c-18 -29 -15 -38 4 -12 9 13 14 25 12 27 -2 2 -9 -5 -16
-15z"/>
<path d="M2815 3100 c-3 -5 -1 -10 4 -10 6 0 11 5 11 10 0 6 -2 10 -4 10 -3 0
-8 -4 -11 -10z"/>
<path d="M4630 3095 c0 -8 8 -11 20 -8 11 3 20 7 20 8 0 1 -9 5 -20 8 -12 3
-20 0 -20 -8z"/>
<path d="M2730 3068 c0 -8 7 -21 15 -28 19 -16 19 -1 0 24 -12 16 -15 17 -15
4z"/>
<path d="M3248 3073 c7 -3 16 -2 19 1 4 3 -2 6 -13 5 -11 0 -14 -3 -6 -6z"/>
<path d="M4646 3072 c-3 -5 1 -9 9 -9 8 0 12 4 9 9 -3 4 -7 8 -9 8 -2 0 -6 -4
-9 -8z"/>
<path d="M2813 3052 c1 -14 5 -18 11 -12 7 7 6 14 -1 21 -9 9 -12 7 -10 -9z"/>
<path d="M3120 3066 c0 -2 8 -10 18 -17 15 -13 16 -12 3 4 -13 16 -21 21 -21
13z"/>
<path d="M3310 3048 c0 -8 7 -21 15 -28 19 -16 19 -1 0 24 -12 16 -15 17 -15
4z"/>
<path d="M3385 3050 c3 -5 8 -10 11 -10 2 0 4 5 4 10 0 6 -5 10 -11 10 -5 0
-7 -4 -4 -10z"/>
<path d="M4581 3044 c0 -11 3 -14 6 -6 3 7 2 16 -1 19 -3 4 -6 -2 -5 -13z"/>
<path d="M3257 3010 c37 -52 50 -52 16 0 -15 22 -31 40 -35 40 -5 0 3 -18 19
-40z"/>
<path d="M4615 3040 c-3 -5 -2 -10 4 -10 5 0 13 5 16 10 3 6 2 10 -4 10 -5 0
-13 -4 -16 -10z"/>
<path d="M3270 3035 c0 -7 54 -55 58 -51 2 2 -9 16 -23 30 -25 25 -35 31 -35
21z"/>
<path d="M2976 3007 c3 -10 9 -15 12 -12 3 3 0 11 -7 18 -10 9 -11 8 -5 -6z"/>
<path d="M3095 3010 c-3 -5 -1 -10 4 -10 6 0 11 5 11 10 0 6 -2 10 -4 10 -3 0
-8 -4 -11 -10z"/>
<path d="M3440 3002 c0 -4 9 -15 20 -25 14 -11 20 -13 20 -4 0 7 -9 18 -20 25
-11 7 -20 9 -20 4z"/>
<path d="M3202 2975 c15 -16 30 -26 33 -23 4 3 -9 16 -27 28 l-33 23 27 -28z"/>
<path d="M3310 2966 c0 -2 9 -6 20 -9 11 -3 20 -1 20 4 0 5 -9 9 -20 9 -11 0
-20 -2 -20 -4z"/>
<path d="M4541 2937 l-25 -32 32 29 c33 31 37 36 25 35 -5 0 -19 -14 -32 -32z"/>
<path d="M3165 2927 c10 -15 20 -25 23 -22 3 3 -5 16 -17 28 l-23 22 17 -28z"/>
<path d="M3090 2920 c0 -5 5 -10 11 -10 5 0 7 5 4 10 -3 6 -8 10 -11 10 -2 0
-4 -4 -4 -10z"/>
<path d="M3367 2919 c7 -7 15 -10 18 -7 3 3 -2 9 -12 12 -14 6 -15 5 -6 -5z"/>
<path d="M4130 2920 c0 -5 -10 -10 -22 -10 -22 -1 -22 -1 -4 -11 14 -9 20 -8
27 2 10 16 12 29 4 29 -3 0 -5 -4 -5 -10z"/>
<path d="M2780 2912 c0 -15 40 -46 48 -37 4 4 1 10 -6 12 -7 3 -19 11 -27 20
-8 8 -15 10 -15 5z"/>
<path d="M4170 2902 c0 -5 -17 -13 -37 -19 l-38 -10 48 -2 c30 -1 46 3 42 9
-3 6 -1 10 4 10 6 0 11 -4 11 -9 0 -5 10 -13 23 -17 12 -4 25 -12 29 -18 11
-17 70 -16 63 2 -3 7 -5 16 -5 18 0 2 -5 4 -11 4 -5 0 -8 -4 -5 -9 3 -5 -3
-11 -13 -14 -14 -3 -18 -1 -14 9 3 8 -1 14 -11 14 -9 0 -24 9 -33 20 -17 20
-53 28 -53 12z"/>
<path d="M2843 2874 c0 -23 1 -24 9 -10 7 12 7 21 0 28 -6 6 -9 0 -9 -18z"/>
<path d="M2881 2884 c0 -11 3 -14 6 -6 3 7 2 16 -1 19 -3 4 -6 -2 -5 -13z"/>
<path d="M3744 2860 c0 -11 4 -20 9 -20 4 0 6 -4 3 -8 -8 -14 40 -35 63 -29
12 3 21 1 21 -4 0 -18 32 -59 42 -53 5 3 0 14 -12 24 -11 9 -20 25 -20 35 0
14 -6 16 -28 12 -35 -7 -47 1 -56 36 -7 31 -22 36 -22 7z"/>
<path d="M4185 2860 c-8 -13 15 -24 27 -12 6 6 4 11 -6 15 -8 3 -18 2 -21 -3z"/>
<path d="M2885 2851 c-3 -5 -1 -12 5 -16 5 -3 10 1 10 9 0 18 -6 21 -15 7z"/>
<path d="M4217 2833 c-12 -13 -19 -14 -30 -4 -18 14 -61 0 -70 -23 -8 -21 3
-20 19 2 12 15 13 15 9 -8 l-4 -25 20 24 c11 13 22 21 25 18 3 -3 -4 -16 -15
-28 -19 -21 -25 -22 -53 -11 -24 9 -35 9 -43 0 -7 -8 -5 -9 7 -5 10 3 24 0 31
-8 12 -11 19 -11 38 -1 31 16 94 74 88 80 -3 3 -13 -2 -22 -11z"/>
<path d="M4548 2843 c7 -3 16 -2 19 1 4 3 -2 6 -13 5 -11 0 -14 -3 -6 -6z"/>
<path d="M3558 2833 c7 -3 16 -2 19 1 4 3 -2 6 -13 5 -11 0 -14 -3 -6 -6z"/>
<path d="M3620 2820 c13 -11 28 -20 34 -20 13 0 -35 39 -48 40 -5 0 1 -9 14
-20z"/>
<path d="M3697 2804 c6 -15 23 -19 23 -5 0 5 -7 11 -14 14 -10 4 -13 1 -9 -9z"/>
<path d="M4222 2795 c-12 -14 -18 -25 -13 -25 5 0 16 11 25 25 9 14 15 25 13
25 -2 0 -13 -11 -25 -25z"/>
<path d="M4490 2810 c-8 -5 -12 -12 -9 -15 4 -3 12 1 19 10 14 17 11 19 -10 5z"/>
<path d="M3670 2800 c0 -5 5 -10 11 -10 5 0 7 5 4 10 -3 6 -8 10 -11 10 -2 0
-4 -4 -4 -10z"/>
<path d="M3730 2799 c0 -5 5 -7 10 -4 6 3 10 8 10 11 0 2 -4 4 -10 4 -5 0 -10
-5 -10 -11z"/>
<path d="M4290 2796 c7 -7 14 -6 21 1 9 9 7 12 -9 10 -14 -1 -18 -5 -12 -11z"/>
<path d="M4340 2800 c-13 -8 -13 -10 2 -10 9 0 20 5 23 10 8 13 -5 13 -25 0z"/>
<path d="M3800 2780 c-9 -6 -10 -10 -3 -10 6 0 15 5 18 10 8 12 4 12 -15 0z"/>
<path d="M3737 2770 c7 -7 32 -13 56 -14 29 -1 44 -5 44 -14 0 -8 -8 -12 -19
-9 -10 3 -15 1 -12 -5 3 -5 15 -7 27 -4 11 3 28 1 37 -4 10 -5 34 -7 54 -3 33
5 34 7 19 19 -10 7 -25 13 -33 13 -10 0 -8 -3 5 -9 11 -5 15 -9 8 -9 -6 -1
-18 -4 -26 -7 -9 -3 -26 5 -39 18 -13 13 -35 23 -53 23 -16 0 -41 4 -55 9 -20
7 -23 6 -13 -4z"/>
<path d="M3060 2766 c0 -2 9 -6 20 -9 11 -3 18 -1 14 4 -5 9 -34 13 -34 5z"/>
<path d="M4240 2756 c0 -2 7 -7 16 -10 8 -3 12 -2 9 4 -6 10 -25 14 -25 6z"/>
<path d="M3750 2730 c-18 -12 -2 -12 25 0 13 6 15 9 5 9 -8 0 -22 -4 -30 -9z"/>
<path d="M3970 2730 c0 -5 5 -10 11 -10 5 0 7 5 4 10 -3 6 -8 10 -11 10 -2 0
-4 -4 -4 -10z"/>
<path d="M3066 2713 c-6 -14 -5 -15 5 -6 7 7 10 15 7 18 -3 3 -9 -2 -12 -12z"/>
<path d="M4150 2720 c-23 -7 -23 -8 -3 -9 12 -1 25 4 28 9 3 6 5 10 3 9 -2 -1
-14 -5 -28 -9z"/>
<path d="M3745 2700 c3 -5 11 -10 16 -10 6 0 7 5 4 10 -3 6 -11 10 -16 10 -6
0 -7 -4 -4 -10z"/>
<path d="M4230 2699 c0 -5 5 -7 10 -4 6 3 10 8 10 11 0 2 -4 4 -10 4 -5 0 -10
-5 -10 -11z"/>
<path d="M2880 2653 c0 -5 9 -18 20 -28 11 -10 20 -15 20 -11 0 4 -9 16 -20
28 -11 12 -20 17 -20 11z"/>
<path d="M3127 2609 c7 -7 15 -10 18 -7 3 3 -2 9 -12 12 -14 6 -15 5 -6 -5z"/>
<path d="M2850 2599 c0 -5 5 -7 10 -4 6 3 10 8 10 11 0 2 -4 4 -10 4 -5 0 -10
-5 -10 -11z"/>
<path d="M3109 2446 c19 -20 36 -36 38 -36 9 0 -42 60 -56 65 -9 3 0 -10 18
-29z"/>
<path d="M3370 2406 c0 -2 7 -6 15 -10 8 -3 15 -1 15 4 0 6 -7 10 -15 10 -8 0
-15 -2 -15 -4z"/>
<path d="M3455 2248 c28 -26 51 -45 53 -43 5 5 -59 65 -81 77 -12 6 1 -9 28
-34z"/>
<path d="M4330 2210 c-13 -8 -12 -10 3 -10 9 0 17 5 17 10 0 12 -1 12 -20 0z"/>
</g>
</svg>
